<svg width="64" height="36" viewBox="0 0 64 36" fill="none" xmlns="http://www.w3.org/2000/svg">
<path d="M43.8658 23.0039C41.8858 28.1934 36.8377 31.9153 30.9501 31.9153C25.049 31.9153 20.0142 28.2119 18.043 23.0043L19.5501 23.0039C21.445 27.4202 25.8309 30.5143 30.9434 30.5143C36.044 30.5143 40.4275 27.4044 42.3293 23.0039H43.8651H43.8658Z" fill="#E8C349"/>
<path d="M43.8677 23.004L43.7368 22.954C41.7768 28.0909 36.7794 31.7759 30.9522 31.7753C25.1109 31.7756 20.1271 28.1091 18.1762 22.9547L18.0451 23.0045V23.1444L19.5523 23.1439V23.004L19.4237 23.0591C21.3397 27.5255 25.7755 30.6543 30.946 30.6546C36.1049 30.6543 40.5374 27.5097 42.4598 23.0593L42.3311 23.004V23.1439H43.8676V23.0033L43.7367 22.9532L43.8689 23.0033V22.8633H42.2404L42.2037 22.9479C40.3234 27.299 35.9892 30.3739 30.9469 30.3737C25.8919 30.3737 21.556 27.3145 19.6825 22.9481L19.6463 22.8633L17.8438 22.8637L17.9156 23.0533C19.906 28.3137 24.9925 32.0546 30.9539 32.0548C36.902 32.0543 42.0008 28.2956 44.0007 23.0533L44.0732 22.8633H43.8698V23.0039L43.8677 23.004Z" fill="#E8C349"/>
<path d="M42.447 13.129L42.5759 13.0741C42.2032 12.2006 41.7199 11.3795 41.1713 10.6241L41.1093 10.5389L41.0102 10.5747C40.7983 10.652 40.5444 10.7029 40.3091 10.7027C39.7597 10.7027 39.2633 10.4805 38.9032 10.1206C38.543 9.76034 38.321 9.26466 38.321 8.71549C38.321 8.46808 38.3659 8.23132 38.4489 8.01385L38.487 7.91369L38.4003 7.85083C36.3349 6.34867 33.7887 5.46056 31.0389 5.46056C25.8629 5.46056 21.4225 8.59296 19.5156 13.07L19.6446 13.1251V12.985H18.1491V13.1251L18.2801 13.175C20.2356 8.03772 25.2205 4.34326 31.0455 4.34369C34.064 4.34369 36.8591 5.33558 39.119 6.99458L39.1953 7.05052L39.2758 7.00055C39.5831 6.80971 39.9353 6.70338 40.3249 6.70316C40.8784 6.70316 41.3785 6.92713 41.7413 7.28984C42.1042 7.65264 42.3283 8.15226 42.3283 8.70548C42.3281 9.08533 42.227 9.43194 42.0452 9.73327L41.9969 9.8135L42.0526 9.88862C42.7841 10.8797 43.3929 12.006 43.8311 13.1742L43.9621 13.125L43.9617 12.9849L42.4463 12.9887V13.1283L42.5752 13.0734L42.4462 13.1278L42.4467 13.2678L44.1635 13.2635L44.0929 13.0748C43.6457 11.8822 43.0253 10.7341 42.2776 9.72134L42.1648 9.80455L42.2847 9.87669C42.4921 9.53328 42.6083 9.13424 42.6081 8.7043C42.6079 7.44401 41.5856 6.42229 40.3244 6.42197C39.8832 6.42197 39.4766 6.54408 39.1273 6.76166L39.2014 6.88046L39.2842 6.76773C36.9789 5.07506 34.1257 4.0625 31.0449 4.0625C25.0988 4.06293 20.013 7.83175 18.0173 13.0741L17.9453 13.2641H19.7363L19.7727 13.1788C21.6374 8.8018 25.9777 5.7393 31.0381 5.73962C33.7273 5.73962 36.2147 6.60759 38.2345 8.07618L38.3168 7.96292L38.1858 7.91305C38.0908 8.16228 38.0397 8.43292 38.0397 8.71443C38.0397 9.9663 39.0548 10.9816 40.308 10.9816C40.5827 10.9814 40.8635 10.9243 41.1045 10.837L41.0567 10.7053L40.9434 10.7877C41.4811 11.5282 41.9537 12.3316 42.3169 13.1829L42.3534 13.2681L42.4462 13.2679L42.4484 13.1283L42.447 13.129Z" fill="#E8C349"/>
<path fill-rule="evenodd" clip-rule="evenodd" d="M42.446 13.1285C42.0778 12.2662 41.5999 11.4539 41.0568 10.706C40.8305 10.7883 40.563 10.8422 40.3082 10.8422C39.1329 10.8422 38.18 9.88967 38.18 8.71504C38.18 8.45069 38.2281 8.19688 38.317 7.96354C36.2746 6.47821 33.7575 5.60012 31.0382 5.60012C25.9198 5.60012 21.5294 8.69736 19.6438 13.1246H18.1484C20.1238 7.93487 25.1594 4.20312 31.0449 4.20312C34.0947 4.20312 36.9188 5.20567 39.2013 6.88108C39.5297 6.67704 39.909 6.56271 40.3243 6.56271C41.5081 6.56271 42.4678 7.52209 42.4678 8.70492C42.4678 9.10982 42.3591 9.48264 42.1646 9.80517C42.9044 10.807 43.5189 11.9441 43.9614 13.1246L42.4465 13.1288L42.446 13.1285ZM40.3224 9.87934C39.6633 9.87913 39.1289 9.34498 39.1289 8.68692C39.1289 8.02801 39.6632 7.49365 40.3224 7.49365C40.9826 7.49365 41.5172 8.0279 41.5174 8.68692C41.5172 9.34498 40.9826 9.87934 40.3224 9.87934Z" fill="#E8C349"/>
<path d="M5.38397 15.8174C5.68568 15.5151 6.02373 15.2913 6.399 15.1452C6.78301 14.9896 7.17202 14.9121 7.5652 14.9121C7.95827 14.9121 8.34238 14.9896 8.71743 15.1452C9.10218 15.2913 9.44493 15.5151 9.74642 15.8174L10.172 16.242L9.32126 17.1064L8.88235 16.6811C8.69963 16.4981 8.49355 16.3613 8.26487 16.27C8.03662 16.1779 7.80304 16.1332 7.5653 16.1332C7.32746 16.1332 7.0942 16.1779 6.86573 16.27C6.63695 16.3613 6.43098 16.4982 6.24815 16.6811C6.0651 16.8549 5.92821 17.0559 5.83696 17.2842C5.74517 17.5127 5.69911 17.7457 5.69911 17.9835C5.69911 18.2208 5.74517 18.4546 5.83696 18.6827C5.92811 18.9115 6.0651 19.1175 6.24815 19.3003C6.61446 19.6653 7.05305 19.8485 7.5653 19.8485C7.8121 19.8485 8.05016 19.8029 8.27863 19.7116C8.5072 19.6202 8.70847 19.4832 8.88246 19.3004L9.32137 18.8746L10.1721 19.7387L9.74653 20.1647C9.44504 20.4659 9.10229 20.6941 8.71754 20.8495C8.34248 20.9957 7.95837 21.0694 7.5653 21.0694C7.17213 21.0694 6.78311 20.9957 6.39911 20.8495C6.02384 20.6941 5.68578 20.4659 5.38408 20.1647C5.08195 19.8627 4.85786 19.5242 4.71138 19.1489C4.56532 18.774 4.49219 18.3906 4.49219 17.9976C4.49219 17.5955 4.56532 17.2071 4.71138 16.8316C4.85775 16.4566 5.08184 16.1189 5.38397 15.8174Z" fill="#E8C349"/>
<path d="M5.38343 15.8169L5.48247 15.9157C5.77202 15.626 6.09271 15.4143 6.44942 15.2751L6.45102 15.2744C6.81967 15.1253 7.19003 15.0518 7.56466 15.0518C7.93918 15.0518 8.3041 15.1251 8.66305 15.2742L8.66423 15.2744L8.6671 15.2757C9.0332 15.415 9.35804 15.6268 9.64652 15.9157L9.97392 16.2423L9.31849 16.9087L8.97936 16.5801L8.88181 16.6806L8.98117 16.5815C8.78597 16.3863 8.56305 16.2375 8.31647 16.1393C8.07244 16.0413 7.8202 15.9923 7.56476 15.9923C7.30901 15.9923 7.0572 16.0413 6.81285 16.1395C6.56637 16.2376 6.34366 16.3863 6.14857 16.5815L6.24761 16.6806L6.15102 16.5791C5.95422 16.7659 5.80475 16.9849 5.70657 17.2317C5.60817 17.4754 5.55827 17.7272 5.55849 17.983C5.55827 18.2384 5.60817 18.4906 5.70657 18.7345C5.80465 18.9811 5.95315 19.2036 6.14878 19.3987C6.53684 19.7879 7.01893 19.9894 7.56476 19.9882C7.82905 19.9882 8.08555 19.9392 8.33022 19.8412C8.57723 19.7422 8.79663 19.5932 8.98352 19.396L8.88192 19.2998L8.97968 19.4002L9.31859 19.0714L9.97424 19.7374L9.64684 20.0651C9.35804 20.3536 9.03171 20.5706 8.66455 20.7191L8.71689 20.8489L8.66604 20.7181C8.30623 20.8585 7.94014 20.9288 7.56466 20.9288C7.18918 20.9288 6.81775 20.8586 6.44825 20.7178L6.39846 20.8489L6.45187 20.7195C6.0942 20.5713 5.77245 20.3544 5.48247 20.0649C5.19292 19.7753 4.98056 19.4542 4.84122 19.0976C4.70124 18.7379 4.63173 18.3725 4.63173 17.997C4.63173 17.6118 4.70124 17.2417 4.84143 16.8816C4.98066 16.5257 5.19292 16.2046 5.48247 15.9158L5.38343 15.8177L5.28439 15.7187C4.96979 16.0321 4.73376 16.3876 4.58035 16.781C4.42779 17.1724 4.35124 17.5789 4.35156 17.998C4.35135 18.4084 4.42811 18.8098 4.58024 19.2C4.73386 19.594 4.9699 19.9498 5.2845 20.2638C5.59804 20.5772 5.95219 20.8168 6.34484 20.979L6.34675 20.9796L6.34857 20.9806C6.74782 21.1323 7.15411 21.2098 7.56487 21.2098C7.97553 21.2098 8.37766 21.1322 8.76806 20.9801L8.76966 20.9796C9.17179 20.8173 9.53128 20.5777 9.84514 20.264L10.3689 19.7397L9.32328 18.6776L8.78214 19.2024L8.78043 19.204C8.61956 19.3731 8.43608 19.4976 8.22595 19.582C8.0138 19.6666 7.79461 19.7086 7.56487 19.7086C7.0862 19.7072 6.69089 19.5424 6.34675 19.2014C6.17629 19.031 6.05091 18.8421 5.9668 18.6313C5.88109 18.4182 5.83887 18.2029 5.83887 17.9837C5.83887 17.7643 5.88109 17.5496 5.96659 17.3368C6.05059 17.1267 6.17533 16.9437 6.3443 16.783L6.34516 16.782L6.34686 16.7804C6.51744 16.61 6.70656 16.4845 6.91733 16.4002C7.13033 16.3147 7.34472 16.2736 7.56498 16.2736C7.78502 16.2736 7.99994 16.3148 8.2121 16.4002C8.42329 16.4845 8.61273 16.6102 8.78309 16.7804L8.78373 16.7813L9.3235 17.3038L10.3691 16.2414L9.84514 15.7186C9.53075 15.4034 9.17019 15.1678 8.76689 15.0147L8.7171 15.1456L8.77073 15.0164C8.37968 14.8539 7.97617 14.7722 7.56487 14.7725C7.15347 14.7725 6.74547 14.8539 6.3459 15.0159L6.39867 15.1456L6.34761 15.0152C5.95379 15.1685 5.59878 15.404 5.28439 15.7187L5.38343 15.8169Z" fill="#E8C349"/>
<path d="M12.6694 16.6681C12.3036 17.034 12.1206 17.4726 12.1206 17.984C12.1206 18.2682 12.1844 18.5375 12.3128 18.7935C12.4226 18.6836 12.5869 18.5195 12.8061 18.2997C13.0351 18.0715 13.2727 17.8337 13.5196 17.5869C13.7757 17.331 14.0179 17.0886 14.2465 16.8604C14.4848 16.6322 14.6677 16.4535 14.7958 16.3256C14.4478 16.1515 14.0776 16.0924 13.6843 16.1475C13.3005 16.2018 12.9626 16.3755 12.6704 16.6674M15.7301 18.8752L16.5941 19.7389L16.1689 20.1645C15.8763 20.4572 15.5424 20.6809 15.167 20.8363C14.7922 20.9917 14.3989 21.0693 13.9871 21.0693C13.576 21.0693 13.1822 20.9917 12.8073 20.8363C12.4323 20.6809 12.0985 20.4572 11.8056 20.1645C11.5044 19.8625 11.2803 19.5242 11.1341 19.1496C10.9878 18.7656 10.9141 18.3767 10.9141 17.9833C10.9141 17.5913 10.9878 17.207 11.1341 16.8314C11.2804 16.457 11.5045 16.1189 11.8056 15.8172C12.108 15.5157 12.4462 15.2919 12.8213 15.145C13.2055 14.9901 13.5942 14.9121 13.9871 14.9121C14.3811 14.9121 14.765 14.99 15.1397 15.145C15.5241 15.2919 15.8673 15.5157 16.1689 15.8172L16.5941 16.2419L13.1779 19.6569C13.5259 19.8301 13.8914 19.8896 14.2757 19.8351C14.6691 19.771 15.0116 19.5927 15.3047 19.3001L15.7322 18.8739L15.7301 18.8752Z" fill="#E8C349"/>
<path d="M12.671 16.6677L12.5717 16.5687C12.182 16.9567 11.9807 17.4386 11.982 17.9835C11.9817 18.2885 12.0513 18.5812 12.189 18.8555L12.276 19.0293L12.4134 18.8919C12.5232 18.7823 12.6874 18.6177 12.9067 18.3983C13.1357 18.1699 13.3733 17.9323 13.6202 17.6853C13.8763 17.4294 14.1185 17.1871 14.3471 16.9589L14.248 16.8599L14.3451 16.961C14.5838 16.7322 14.7672 16.553 14.8962 16.4242L15.0342 16.2869L14.8602 16.2001C14.5779 16.0584 14.2778 15.9869 13.9662 15.9869C13.8673 15.9869 13.7672 15.9941 13.6663 16.0083C13.252 16.0669 12.8825 16.2573 12.5716 16.5688L12.6708 16.6679L12.7696 16.7672C13.0445 16.4935 13.3514 16.3372 13.7053 16.2857C13.7938 16.2735 13.8807 16.2675 13.9661 16.2675C14.2349 16.2675 14.4889 16.3276 14.7345 16.4506L14.7972 16.3253L14.6981 16.2262C14.5709 16.3529 14.3889 16.5312 14.1509 16.759L14.1496 16.7599L14.149 16.7611C13.9202 16.9895 13.6778 17.2315 13.4219 17.4876C13.175 17.7344 12.9375 17.972 12.7084 18.2002C12.4888 18.4201 12.3247 18.5843 12.2149 18.6942L12.3142 18.7933L12.4394 18.7305C12.3206 18.493 12.262 18.247 12.262 17.9838C12.2634 17.5062 12.4281 17.1107 12.7698 16.767L12.6685 16.6679L12.671 16.6677ZM15.7307 18.8754L15.6316 18.9746L16.3966 19.7392L16.0702 20.0658C15.7903 20.346 15.4722 20.5588 15.1139 20.707C14.7557 20.8556 14.3818 20.9295 13.9877 20.9295C13.5941 20.9295 13.2198 20.8556 12.8617 20.707C12.5033 20.5588 12.186 20.346 11.9055 20.0656C11.6167 19.776 11.4045 19.455 11.2651 19.0987L11.2655 19.0999C11.1249 18.7307 11.055 18.3597 11.055 17.9836C11.055 17.6092 11.1249 17.2427 11.2651 16.8827C11.4045 16.5268 11.6167 16.2057 11.9055 15.9163C12.1953 15.6276 12.5166 15.4155 12.8732 15.2758L12.8745 15.2754C13.2433 15.1265 13.6133 15.0527 13.9877 15.0527C14.3632 15.0527 14.7279 15.1264 15.087 15.2746L15.0888 15.2756L15.0904 15.276C15.4561 15.4161 15.7818 15.6284 16.0705 15.9165L16.3963 16.2423L12.9419 19.6957L13.1161 19.7824C13.3986 19.9233 13.6963 19.9952 14.0037 19.9952C14.1003 19.9952 14.1978 19.9879 14.296 19.9741L14.2976 19.9739L14.2989 19.9733C14.7205 19.9052 15.0932 19.7108 15.4042 19.3993L15.8298 18.9746L15.7296 18.8745L15.6306 18.9737L15.7297 18.8746L15.6307 18.7756L15.2052 19.2003C14.9301 19.4739 14.6178 19.6363 14.2527 19.6962L14.2751 19.8345L14.2555 19.6958C14.1698 19.7078 14.0854 19.7139 14.0025 19.7139C13.7385 19.7139 13.4865 19.6536 13.2398 19.5308L13.1774 19.6563L13.2764 19.7552L16.7917 16.2413L16.2675 15.7173C15.9529 15.4029 15.5923 15.1674 15.1894 15.0134L15.1393 15.1444L15.193 15.015C14.8022 14.8532 14.3992 14.7715 13.9866 14.7715C13.5751 14.7715 13.1678 14.8533 12.7685 15.0145L12.8209 15.1444L12.7698 15.0138C12.3763 15.1679 12.0209 15.4034 11.7063 15.7173C11.3922 16.0317 11.1566 16.3867 11.0029 16.78C10.8508 17.1706 10.7734 17.573 10.7734 17.9826C10.7734 18.3934 10.8505 18.8001 11.0023 19.1986L11.004 19.2021L11.0029 19.1998C11.1565 19.5928 11.3921 19.9484 11.7061 20.2627C12.0112 20.568 12.3612 20.8027 12.7532 20.9651C13.1449 21.1274 13.5579 21.2087 13.9865 21.2087C14.416 21.2087 14.8284 21.1274 15.2202 20.9651C15.6121 20.8028 15.9623 20.568 16.2674 20.2627L16.7915 19.7381L15.7296 18.6765L15.6306 18.7756L15.7297 18.8736L15.7307 18.8754Z" fill="#E8C349"/>
<path d="M17.3321 17.9832C17.3321 17.5537 17.4095 17.1564 17.565 16.7908C17.7299 16.4159 17.9491 16.0915 18.2239 15.8172C18.5071 15.5336 18.8367 15.3144 19.2109 15.1582C19.5864 14.9946 19.9845 14.9121 20.4054 14.9121C20.8353 14.9121 21.2331 14.9945 21.5993 15.1582C21.9737 15.3144 22.3031 15.5335 22.5868 15.8172C22.87 16.0915 23.09 16.4159 23.2454 16.7908C23.4095 17.1565 23.4921 17.5537 23.4921 17.9832V21.0692H22.2708V17.9832C22.2708 17.7278 22.2209 17.4904 22.1201 17.2706C22.0288 17.0423 21.896 16.8453 21.722 16.6809C21.5579 16.5071 21.361 16.3745 21.1319 16.2831C20.9034 16.1829 20.6612 16.133 20.4053 16.133C20.149 16.133 19.907 16.1829 19.6778 16.2831C19.4586 16.3745 19.2619 16.5072 19.0879 16.6809C18.9238 16.8453 18.7907 17.0424 18.69 17.2706C18.5989 17.4904 18.5532 17.7277 18.5532 17.9832V21.0692H17.332V17.9836L17.3321 17.9832Z" fill="#E8C349"/>
<path d="M17.3329 17.9828H17.4729C17.4729 17.5703 17.5469 17.1924 17.6949 16.8451L17.5658 16.7903L17.6939 16.8467C17.8526 16.4864 18.0618 16.1774 18.3238 15.9156C18.5943 15.645 18.9074 15.4364 19.2657 15.2872L19.2675 15.2864L19.2679 15.2862C19.6257 15.1305 20.0036 15.0519 20.4061 15.0519C20.8181 15.0519 21.1952 15.1305 21.5427 15.2858L21.5445 15.2868L21.546 15.2872C21.9046 15.4364 22.2176 15.645 22.4886 15.9156L22.4892 15.9164L22.4902 15.9173C22.7596 16.1785 22.968 16.4861 23.1168 16.8439L23.1172 16.8451L23.1184 16.8475C23.2741 17.1947 23.3528 17.5713 23.3528 17.9827V20.9286H22.4118L22.412 17.9827C22.412 17.7093 22.3578 17.4502 22.2482 17.2117L22.1209 17.2702L22.2509 17.2184C22.1527 16.9723 22.0079 16.7572 21.8191 16.5787L21.7229 16.6805L21.8247 16.5843C21.6467 16.3959 21.4315 16.2511 21.1849 16.1525L21.1328 16.2827L21.1892 16.1543C20.9429 16.0462 20.6804 15.9922 20.4062 15.9923C20.1315 15.9921 19.8691 16.0462 19.6225 16.1543L19.6787 16.2827L19.6247 16.1533C19.3885 16.252 19.176 16.3959 18.9898 16.5815C18.8126 16.7588 18.6698 16.971 18.5628 17.214L18.5621 17.2156L18.5617 17.2167C18.4629 17.454 18.4139 17.711 18.4141 17.9829V20.9288H17.4731V17.9829H17.1953V21.2091H18.6968V17.9829C18.6968 17.7443 18.739 17.5259 18.823 17.3242L18.6935 17.2703L18.8217 17.3269C18.9163 17.1127 19.0393 16.9313 19.1904 16.7794C19.3524 16.618 19.5331 16.4962 19.7354 16.4118L19.7375 16.411C19.949 16.3185 20.1708 16.2726 20.4087 16.2726C20.6464 16.2726 20.8684 16.3185 21.0792 16.411L21.0822 16.4121L21.0835 16.4125C21.2947 16.4974 21.4734 16.6181 21.6234 16.7769L21.6263 16.7797L21.6291 16.7824C21.7885 16.9328 21.9088 17.1115 21.9933 17.322L21.9946 17.3262L21.996 17.3287C22.0884 17.5292 22.1341 17.7455 22.1341 17.9827V21.2089H23.6357V17.9827C23.6359 17.5353 23.5491 17.1172 23.3768 16.733L23.2488 16.7902L23.3781 16.7365C23.2156 16.3449 22.9845 16.0034 22.6876 15.716L22.5901 15.8165L22.6891 15.7173C22.3926 15.4208 22.047 15.1909 21.6563 15.0285L21.6025 15.1576L21.6596 15.03C21.2751 14.8578 20.8564 14.7713 20.4086 14.7715C19.9695 14.7713 19.5512 14.8581 19.1582 15.0293L19.2142 15.1576L19.1603 15.0285C18.7697 15.1908 18.4242 15.4208 18.1279 15.7173C17.8407 16.0043 17.6114 16.3442 17.4402 16.7337L17.4396 16.7352C17.2759 17.1193 17.1952 17.5365 17.1953 17.9826H17.337L17.3329 17.9828Z" fill="#E8C349"/>
<path d="M25.1265 15.8174C25.4286 15.5151 25.7667 15.2913 26.1419 15.1452C26.526 14.9896 26.9143 14.9121 27.3081 14.9121C27.7014 14.9121 28.0855 14.9896 28.4606 15.1452C28.8447 15.2913 29.1877 15.5151 29.4894 15.8174L29.9149 16.242L29.0643 17.1064L28.6253 16.6811C28.442 16.4981 28.2368 16.3613 28.0079 16.27C27.7786 16.1779 27.5454 16.1332 27.3081 16.1332C27.0703 16.1332 26.837 16.1779 26.6081 16.27C26.3792 16.3613 26.174 16.4982 25.9908 16.6811C25.8079 16.8549 25.6708 17.0559 25.5789 17.2842C25.4882 17.5127 25.4419 17.7457 25.4419 17.9835C25.4419 18.2208 25.4882 18.4546 25.5789 18.6827C25.6708 18.9115 25.8079 19.1175 25.9908 19.3003C26.3565 19.6653 26.7954 19.8485 27.3081 19.8485C27.5549 19.8485 27.7923 19.8029 28.0212 19.7116C28.2498 19.6202 28.4513 19.4832 28.6253 19.3004L29.0643 18.8746L29.9149 19.7387L29.4894 20.1647C29.1877 20.4659 28.8447 20.6941 28.4606 20.8495C28.0855 20.9957 27.7015 21.0694 27.3081 21.0694C26.9143 21.0694 26.526 20.9957 26.1419 20.8495C25.7667 20.6941 25.4286 20.4659 25.1265 20.1647C24.8246 19.8627 24.6002 19.5242 24.4544 19.1489C24.3078 18.774 24.2344 18.3906 24.2344 17.9976C24.2344 17.5955 24.3077 17.2071 24.4544 16.8316C24.5994 16.4566 24.8233 16.1188 25.125 15.8173" fill="#E8C349"/>
<path d="M25.1243 15.8171L25.2233 15.9158C25.5131 15.6264 25.834 15.4145 26.1905 15.2752L26.1923 15.2746C26.561 15.1254 26.9303 15.052 27.3059 15.052C27.6808 15.052 28.0456 15.1253 28.4044 15.2744L28.4062 15.275L28.4083 15.2759C28.774 15.4151 29.0992 15.627 29.3881 15.9158L29.7153 16.2425L29.0596 16.9089L28.7207 16.5803L28.6232 16.6808L28.7222 16.5817C28.5268 16.3865 28.3045 16.2379 28.0577 16.1395C27.8132 16.0415 27.5613 15.9924 27.306 15.9924C27.0504 15.9924 26.7982 16.0415 26.5537 16.1395C26.3073 16.238 26.085 16.3865 25.8896 16.5817L25.9887 16.6808L25.8918 16.5793C25.6954 16.7661 25.5459 16.9851 25.4468 17.2318C25.3498 17.4761 25.2996 17.7274 25.2996 17.9831C25.2996 18.2389 25.3498 18.4907 25.4466 18.734C25.5455 18.9813 25.6943 19.2038 25.8894 19.3987C26.2775 19.7881 26.7598 19.9896 27.306 19.9883C27.57 19.9883 27.8262 19.9394 28.0711 19.8414C28.3183 19.7424 28.5379 19.5933 28.7248 19.3962L28.6232 19.3L28.7207 19.4002L29.0596 19.0716L29.7153 19.7376L29.3881 20.0653C29.099 20.3538 28.7725 20.5707 28.4058 20.7193L28.4584 20.8491L28.4073 20.7183C28.0476 20.8586 27.6814 20.929 27.3059 20.929C26.9295 20.929 26.559 20.8587 26.1893 20.718L26.1397 20.8491L26.1931 20.7197C25.8355 20.5715 25.5135 20.3545 25.2233 20.065C24.9338 19.7754 24.7214 19.4544 24.5827 19.098C24.4421 18.7381 24.3726 18.3725 24.3726 17.9972C24.3726 17.6122 24.4423 17.2419 24.5827 16.882C24.7214 16.5258 24.9338 16.2048 25.2233 15.9159L25.122 15.8158L25.023 15.7168C24.7086 16.0302 24.4724 16.3856 24.3194 16.7792C24.1666 17.1703 24.0898 17.5768 24.0898 17.996C24.0898 18.4065 24.1668 18.8081 24.3194 19.1984C24.4725 19.5921 24.7084 19.9478 25.023 20.2618C25.3369 20.5752 25.6911 20.8148 26.0838 20.977L26.0849 20.9777L26.0876 20.9786C26.4863 21.1303 26.8926 21.2078 27.3037 21.2078C27.7143 21.2078 28.1167 21.1302 28.5069 20.9782L28.5084 20.9774C28.9102 20.8154 29.2698 20.5756 29.5838 20.2621L30.1076 19.7377L29.0617 18.6756L28.5215 19.1998L28.5192 19.2021C28.3583 19.371 28.1746 19.4956 27.9646 19.58C27.7519 19.6646 27.5333 19.7066 27.3036 19.7066C26.8243 19.7052 26.429 19.5405 26.085 19.1996C25.9149 19.029 25.7892 18.8399 25.7045 18.6292C25.6199 18.4163 25.5775 18.2008 25.5775 17.9818C25.5775 17.7624 25.6199 17.5475 25.7048 17.3341C25.7888 17.125 25.9136 16.9416 26.0825 16.781L26.0835 16.7801L26.085 16.7787C26.2562 16.6078 26.4448 16.4826 26.6555 16.3983C26.8687 16.3127 27.0833 16.2716 27.3036 16.2716C27.5234 16.2716 27.7377 16.3128 27.951 16.3983C28.162 16.4826 28.3507 16.6079 28.5217 16.7787L29.0619 17.3018L30.1075 16.2394L29.5837 15.7167C29.2691 15.4014 28.9084 15.1658 28.5058 15.0127L28.4559 15.1437L28.5096 15.0144C28.1183 14.8519 27.7151 14.7703 27.3035 14.7705C26.8911 14.7705 26.4841 14.8519 26.0847 15.014L26.1373 15.1437L26.0862 15.0132C25.6924 15.1666 25.3371 15.4018 25.0227 15.7168L25.124 15.8169L25.1243 15.8171Z" fill="#E8C349"/>
<path d="M31.8605 17.9829C31.8605 18.2399 31.9061 18.4821 31.9978 18.7105C32.0987 18.9386 32.2308 19.14 32.3955 19.3137C32.5694 19.4779 32.7706 19.6104 32.9991 19.7111C33.2272 19.8031 33.4703 19.8483 33.7266 19.8483C33.9823 19.8483 34.2249 19.8031 34.4532 19.7111C34.6822 19.6105 34.8785 19.4779 35.0436 19.3137C35.2172 19.14 35.3497 18.9386 35.4414 18.7105C35.542 18.482 35.5922 18.2399 35.5922 17.9829C35.5922 17.7275 35.542 17.4901 35.4414 17.2703C35.3497 17.042 35.2171 16.845 35.0436 16.6813C34.8785 16.5068 34.6822 16.3746 34.4532 16.2832C34.2248 16.1826 33.9823 16.1327 33.7266 16.1327C33.4703 16.1327 33.2271 16.1826 32.9991 16.2832C32.7705 16.3746 32.5694 16.5069 32.3955 16.6813C32.2307 16.845 32.0987 17.0421 31.9978 17.2703C31.905 17.4909 31.8602 17.7274 31.8602 17.9831M30.6523 17.9831C30.6523 17.5543 30.73 17.1563 30.8854 16.7907C31.0501 16.4158 31.2697 16.0914 31.5438 15.817C31.8275 15.5335 32.157 15.3143 32.5316 15.1589C32.9067 14.9945 33.3045 14.9121 33.7258 14.9121C34.1551 14.9121 34.5535 14.9945 34.9192 15.1589C35.2941 15.3143 35.6232 15.5335 35.9072 15.817C36.1902 16.0914 36.4102 16.4158 36.5655 16.7907C36.7302 17.1564 36.8124 17.5543 36.8124 17.9831C36.8124 18.4043 36.7302 18.8019 36.5655 19.1766C36.4102 19.5511 36.1902 19.8806 35.9072 20.1643C35.6233 20.4476 35.2941 20.6709 34.9192 20.8362C34.5534 20.9914 34.1551 21.0692 33.7258 21.0692C33.3045 21.0692 32.9066 20.9915 32.5316 20.8362C32.157 20.6709 31.8276 20.4477 31.5438 20.1643C31.2697 19.8807 31.0501 19.5511 30.8854 19.1766C30.7308 18.8016 30.653 18.4041 30.653 17.9832" fill="#E8C349"/>
<path d="M31.8632 17.9827H31.7231C31.7229 18.2564 31.7716 18.5172 31.8706 18.7625L31.8711 18.764L31.8721 18.7668C31.979 19.0083 32.1201 19.2241 32.2965 19.4097L32.2994 19.4128L32.3017 19.415C32.4876 19.5907 32.7029 19.7325 32.9452 19.839L32.9477 19.84L32.9491 19.8408C33.1948 19.9399 33.4564 19.9883 33.7291 19.9883C34.0012 19.9883 34.2626 19.9399 34.5084 19.8408L34.5092 19.8402L34.5121 19.8392C34.7557 19.7321 34.9673 19.5896 35.1451 19.4123C35.3321 19.2258 35.4757 19.0072 35.574 18.7624L35.444 18.7102L35.5724 18.7663C35.6805 18.5207 35.735 18.2578 35.7348 17.9826C35.735 17.7088 35.6804 17.4501 35.5714 17.2119L35.444 17.2701L35.574 17.2179C35.4754 16.9722 35.3307 16.7571 35.1423 16.5793L35.0461 16.6811L35.1477 16.585C34.9692 16.3961 34.7545 16.2512 34.5076 16.153L34.4557 16.283L34.5123 16.1549C34.266 16.0462 34.0033 15.9921 33.729 15.9924C33.4544 15.9921 33.191 16.0462 32.9449 16.1549L33.0015 16.283L32.9495 16.153C32.7038 16.2512 32.4857 16.3949 32.2987 16.5821L32.2991 16.5817C32.1211 16.7586 31.9792 16.9712 31.8719 17.2137L31.8713 17.2151L31.8708 17.2163C31.7713 17.4538 31.7227 17.711 31.7229 17.9827H32.0022C32.0022 17.7438 32.0444 17.5257 32.1285 17.3242L31.9993 17.2701L32.1275 17.3267C32.2222 17.1123 32.3444 16.9311 32.4958 16.7804L32.4964 16.78C32.6573 16.6187 32.8412 16.4976 33.0528 16.413L33.0553 16.4118L33.0574 16.411C33.2677 16.3183 33.49 16.2724 33.7283 16.2724C33.9657 16.2724 34.1879 16.3183 34.3982 16.411L34.4007 16.4121L34.4029 16.413C34.6144 16.4976 34.7923 16.6177 34.9434 16.7773L34.9457 16.7798L34.949 16.7829C35.1076 16.9326 35.2281 17.1112 35.3131 17.3223L35.3143 17.3251L35.3157 17.3282C35.4075 17.5291 35.4538 17.7454 35.4538 17.9826C35.4538 18.2213 35.4075 18.4429 35.3147 18.6538L35.3141 18.6558L35.3131 18.6578C35.2281 18.8695 35.1065 19.0539 34.9461 19.2143C34.7939 19.3663 34.6131 19.4886 34.3985 19.5827L34.4547 19.7109L34.4024 19.5809C34.1913 19.6659 33.9675 19.7081 33.7282 19.7081C33.488 19.7081 33.264 19.6659 33.0529 19.5809L33.0007 19.7109L33.0571 19.5829C32.8422 19.488 32.6553 19.3648 32.4934 19.2119L32.3971 19.3137L32.4986 19.2171C32.3453 19.0557 32.2225 18.8686 32.1275 18.6538L31.9993 18.7104L32.1292 18.6579C32.0446 18.4468 32.0022 18.2234 32.0022 17.9828H31.861L31.8632 17.9827ZM30.6553 17.9827H30.7954C30.7954 17.5708 30.8696 17.1923 31.0174 16.845L30.8883 16.7902L31.0168 16.8466C31.1749 16.4863 31.3846 16.1773 31.6458 15.9155C31.9168 15.6449 32.2299 15.4365 32.5882 15.2878L32.5897 15.2872L32.591 15.2868C32.9482 15.1302 33.3257 15.0517 33.7287 15.0517C34.14 15.0517 34.5175 15.1302 34.8645 15.286L34.8668 15.2872L34.8685 15.2878C35.227 15.4365 35.5398 15.6449 35.8109 15.9155L35.8141 15.9186L35.8123 15.9168C36.0817 16.1783 36.2901 16.4859 36.4389 16.8437L36.4397 16.8459L36.4405 16.8476C36.5965 17.1946 36.675 17.5719 36.6752 17.9826C36.675 18.3855 36.5969 18.7626 36.4401 19.1201L36.4387 19.123L36.4389 19.1228C36.29 19.4807 36.0812 19.794 35.8106 20.0649C35.5393 20.3356 35.2253 20.5488 34.8656 20.7074L34.922 20.8355L34.8672 20.7066C34.5197 20.8543 34.141 20.9284 33.7285 20.9284C33.3243 20.9284 32.9456 20.8545 32.5881 20.7062L32.5344 20.8355L32.5908 20.7074C32.2312 20.5488 31.9169 20.3356 31.6456 20.0646L31.5465 20.1638L31.6475 20.0664C31.385 19.7948 31.1747 19.4802 31.0164 19.1198L30.8881 19.1761L31.0174 19.1228C30.8691 18.765 30.7952 18.3863 30.7952 17.9826H30.5156C30.5156 18.4207 30.5965 18.8379 30.7593 19.2299L30.7604 19.2325C30.9312 19.6215 31.1607 19.9653 31.4466 20.261L31.448 20.2624L31.4482 20.2628C31.7443 20.5582 32.0889 20.7922 32.4784 20.9637L32.4801 20.9646L32.4815 20.965C32.8737 21.1273 33.2909 21.2088 33.7294 21.2088C34.1754 21.2088 34.5934 21.1277 34.9776 20.9646L34.9792 20.9637C35.3691 20.7922 35.7136 20.558 36.0096 20.263C36.3057 19.9664 36.5363 19.6209 36.6985 19.2299L36.5691 19.1761L36.6974 19.2325C36.8699 18.8399 36.9564 18.4218 36.9562 17.9826C36.9564 17.5361 36.8701 17.1171 36.6969 16.7328L36.5691 16.7902L36.6985 16.7365C36.5362 16.3449 36.3049 16.0034 36.0081 15.716L35.9108 15.8165L36.0096 15.7173C35.7131 15.4208 35.3677 15.1909 34.9767 15.0291L34.9228 15.1584L34.9802 15.0307C34.5958 14.8578 34.1767 14.7713 33.7295 14.7715C33.2899 14.7713 32.8715 14.8581 32.479 15.0302L32.5352 15.1584L32.4815 15.0291C32.0907 15.1909 31.7446 15.4208 31.4483 15.7173C31.1616 16.0043 30.9318 16.3442 30.7606 16.7339L30.7595 16.7364L30.76 16.7351C30.5965 17.1192 30.5158 17.5369 30.5158 17.9825H30.6568L30.6553 17.9827Z" fill="#E8C349"/>
<path d="M43.1103 14.9121V16.1331H39.3927C39.2189 16.1331 39.0728 16.1916 38.9537 16.3112C38.8345 16.4296 38.7751 16.5759 38.7751 16.7496C38.7751 16.9235 38.8345 17.0739 38.9537 17.2021C39.0728 17.3213 39.2189 17.3802 39.3927 17.3802H41.8623C42.1185 17.3802 42.3567 17.4305 42.5753 17.5312C42.8042 17.6222 43.001 17.7503 43.1655 17.9152C43.3393 18.0798 43.4717 18.276 43.5637 18.5043C43.6637 18.7237 43.7145 18.9617 43.7145 19.2178C43.7145 19.4738 43.6637 19.7166 43.5637 19.945C43.4717 20.1646 43.3393 20.3607 43.1655 20.5335C43.001 20.6982 42.8042 20.8314 42.5753 20.9317C42.3566 21.0234 42.1185 21.0692 41.8623 21.0692H38.158V19.8483H41.8623C42.0454 19.8483 42.1958 19.7891 42.3149 19.6699C42.4338 19.5508 42.4936 19.4006 42.4936 19.2177C42.4936 19.0442 42.4338 18.8978 42.3149 18.7789C42.1958 18.6602 42.0454 18.6003 41.8623 18.6003H39.3927C39.1368 18.6003 38.894 18.5548 38.6652 18.4635C38.4462 18.3631 38.2538 18.2303 38.0895 18.0657C37.9248 17.892 37.7924 17.6953 37.6915 17.4765C37.5999 17.2478 37.5547 17.0054 37.5547 16.7496C37.5547 16.4933 37.5999 16.2563 37.6915 16.0367C37.7924 15.808 37.9248 15.6114 38.0895 15.4466C38.2538 15.2826 38.4463 15.1542 38.6652 15.0628C38.894 14.9623 39.1368 14.9121 39.3927 14.9121H43.1086H43.1103Z" fill="#E8C349"/>
<path d="M43.1118 14.9122H42.9717V15.9931H39.3942C39.1889 15.9915 38.9985 16.0672 38.8557 16.2123C38.7116 16.354 38.6353 16.5443 38.6364 16.7498C38.6354 16.9558 38.7112 17.1471 38.8524 17.2977L38.854 17.2997L38.8557 17.3015C38.9987 17.4459 39.1889 17.5219 39.3942 17.5206H41.8638C42.1017 17.5206 42.3183 17.5671 42.5184 17.6589L42.5212 17.6603L42.525 17.6619C42.7376 17.7462 42.9169 17.8636 43.0677 18.0147L43.0689 18.0155L43.0707 18.0172C43.2299 18.1683 43.3504 18.3462 43.4355 18.557L43.4365 18.5601L43.438 18.5629C43.5292 18.7636 43.5759 18.9807 43.5761 19.2183C43.5761 19.4556 43.5293 19.6784 43.4371 19.8892L43.4352 19.8932L43.4361 19.8911C43.3511 20.0939 43.2296 20.2742 43.0684 20.4345C42.916 20.5869 42.7348 20.7098 42.5206 20.8039L42.5769 20.9323L42.5229 20.803C42.322 20.8871 42.1033 20.9296 41.8638 20.9296H38.2998V19.989H41.8638C42.0763 19.9902 42.2716 19.9158 42.4156 19.7689C42.5609 19.6257 42.6365 19.431 42.6352 19.2183C42.6366 19.0126 42.5597 18.8227 42.4153 18.6803C42.2719 18.5351 42.077 18.4593 41.8639 18.4606H39.3943C39.1548 18.4606 38.9306 18.4185 38.7185 18.334L38.6668 18.464L38.7254 18.3368C38.5207 18.2427 38.3426 18.1197 38.1901 17.9671L38.091 18.0662L38.1926 17.97C38.0385 17.8074 37.9149 17.624 37.8201 17.4183L37.693 17.477L37.8232 17.4251C37.7384 17.2135 37.6964 16.9896 37.6964 16.7501C37.6964 16.5104 37.7385 16.2928 37.8224 16.0911L37.6931 16.0371L37.8211 16.0934C37.9161 15.8789 38.0386 15.6979 38.1902 15.5459C38.3416 15.395 38.518 15.2772 38.721 15.1924L38.7233 15.1913C38.9343 15.0987 39.1566 15.0529 39.3944 15.0526H43.112V14.9095H42.9719H43.11V14.7695H39.3924C39.1184 14.7693 38.855 14.8236 38.6083 14.932L38.6649 15.0602L38.6109 14.9311C38.3759 15.0291 38.1672 15.1678 37.9901 15.3449C37.8125 15.5226 37.6701 15.7345 37.5627 15.9775L37.5619 15.9794L37.5615 15.9806C37.4624 16.2181 37.4138 16.4745 37.4141 16.7471C37.4138 17.0196 37.4624 17.2806 37.5608 17.5262L37.5625 17.53L37.5638 17.5326C37.6708 17.765 37.8123 17.9748 37.9874 18.1597L37.9887 18.1613L37.99 18.1624C38.1663 18.3389 38.3733 18.4817 38.6065 18.5884L38.6098 18.59L38.6129 18.5912C38.8587 18.6897 39.1199 18.7381 39.3925 18.7381H41.8621C42.015 18.7396 42.1215 18.7837 42.2153 18.8759C42.3091 18.9714 42.3515 19.0742 42.3532 19.2156C42.3515 19.3683 42.3077 19.4745 42.2153 19.5686C42.1214 19.6611 42.0156 19.7045 41.8621 19.7061H38.0177V21.2073H41.8621C42.1348 21.2073 42.3922 21.1577 42.6295 21.0588L42.6312 21.0579L42.6314 21.0577C42.8752 20.9511 43.087 20.8077 43.2646 20.6302C43.4503 20.4456 43.5939 20.233 43.6929 19.9967L43.5636 19.9426L43.6919 19.9986C43.7996 19.7528 43.8544 19.49 43.8544 19.2154C43.8544 18.9408 43.7995 18.6818 43.691 18.444L43.5636 18.5018L43.6936 18.4497C43.5948 18.2036 43.4504 17.9896 43.2617 17.8111L43.1654 17.9127L43.2647 17.8137C43.0864 17.635 42.8722 17.4961 42.627 17.3987L42.5753 17.5288L42.6341 17.4018C42.3961 17.2921 42.1369 17.2374 41.8623 17.2376H39.3927C39.2505 17.2363 39.1484 17.1944 39.0525 17.1008L38.9537 17.1998L39.0565 17.1046C38.9599 16.9984 38.9165 16.8891 38.9154 16.7472C38.9168 16.6054 38.9592 16.503 39.0525 16.408C39.1487 16.3138 39.2505 16.272 39.3927 16.2707H43.2505V14.7696H43.1104V14.9089L43.1118 14.9122Z" fill="#E8C349"/>
<path d="M50.6132 14.9121V17.9833C50.6132 18.4041 50.5309 18.8019 50.366 19.1768C50.211 19.5509 49.9912 19.8804 49.7078 20.1646C49.4242 20.4478 49.0948 20.6711 48.7197 20.8356C48.354 20.9912 47.9564 21.0693 47.5263 21.0693C47.1057 21.0693 46.7075 20.9912 46.3329 20.8356C45.9575 20.6711 45.6286 20.4478 45.3451 20.1646C45.0707 19.8804 44.851 19.5509 44.6864 19.1768C44.5306 18.8018 44.4531 18.4041 44.4531 17.9833V14.9121H45.6739V17.9833C45.6739 18.2403 45.72 18.482 45.8113 18.7109C45.9121 18.9386 46.0444 19.1399 46.2092 19.3136C46.3833 19.4779 46.5792 19.6103 46.7994 19.7114C47.0278 19.8027 47.2701 19.8483 47.5262 19.8483C47.782 19.8483 48.0244 19.8027 48.2534 19.7114C48.4819 19.6103 48.6786 19.4779 48.8437 19.3136C49.0171 19.1399 49.1495 18.9385 49.2408 18.7109C49.3418 18.482 49.392 18.2403 49.392 17.9833V14.9121H50.6127H50.6132Z" fill="#E8C349"/>
<path d="M50.6165 14.9132H50.4764V17.9845C50.4761 18.3869 50.3983 18.7642 50.241 19.1219L50.2404 19.1235L50.24 19.1246C50.0911 19.4823 49.8824 19.7955 49.6116 20.0668C49.3406 20.3376 49.0269 20.5508 48.6668 20.7086L48.723 20.8367L48.6682 20.7079C48.3205 20.856 47.9425 20.9304 47.5295 20.9304C47.1263 20.9304 46.7473 20.856 46.3897 20.7075L46.3361 20.8367L46.3921 20.7086C46.0322 20.5508 45.7186 20.3376 45.4475 20.0666L45.3483 20.1658L45.4491 20.0684C45.1862 19.7966 44.976 19.4816 44.8177 19.1218L44.6896 19.1781L44.8191 19.1246C44.6705 18.7668 44.5964 18.3879 44.5964 17.9846V15.0535H45.5369V17.9846C45.5367 18.2582 45.5863 18.5188 45.6842 18.7638L45.6854 18.7661L45.6864 18.7686C45.7931 19.0098 45.9342 19.2254 46.111 19.411L46.1139 19.4141L46.1161 19.4163C46.3008 19.5909 46.5102 19.7326 46.744 19.8399L46.7475 19.8414L46.7503 19.8428C46.9956 19.9409 47.2567 19.9898 47.5294 19.9898C47.8018 19.9898 48.0628 19.9409 48.3085 19.8428L48.3105 19.8421L48.3133 19.8408C48.5561 19.7333 48.7679 19.5909 48.9459 19.414C49.1327 19.2271 49.2762 19.0086 49.3743 18.7637L49.2441 18.712L49.3724 18.7686C49.4812 18.5221 49.5355 18.2597 49.5355 17.9845V15.0533H50.6164V14.9134H50.4763H50.6128V14.7734H49.2517V17.9848C49.2515 18.2237 49.2053 18.4445 49.1124 18.6557L49.111 18.6583L49.1102 18.6601C49.0259 18.8711 48.9045 19.0553 48.744 19.216C48.5918 19.3674 48.4104 19.49 48.1963 19.585L48.2529 19.7129L48.2008 19.583C47.9889 19.6673 47.765 19.7098 47.5257 19.7098C47.286 19.7098 47.0623 19.6673 46.8508 19.583L46.7988 19.7129L46.8573 19.5859C46.6505 19.4909 46.4681 19.3674 46.3052 19.2134L46.2087 19.3152L46.3105 19.2188C46.1571 19.057 46.0336 18.8699 45.9388 18.6556L45.8108 18.7124L45.941 18.6604C45.8563 18.4482 45.8135 18.2253 45.8135 17.9849V14.7735H44.3125V17.9849C44.3125 18.4227 44.3935 18.8398 44.5566 19.2322L44.5573 19.2338L44.5578 19.2351C44.7287 19.6232 44.9576 19.9672 45.2439 20.2634L45.2454 20.2648L45.2457 20.2652C45.5412 20.5605 45.8857 20.7943 46.276 20.9654L46.2776 20.9663L46.2787 20.9667C46.6708 21.1294 47.0882 21.2112 47.526 21.2112C47.9729 21.2112 48.3904 21.1294 48.7742 20.9661L48.7759 20.9654C49.166 20.7943 49.5108 20.5606 49.8065 20.2652C50.103 19.9684 50.3334 19.6226 50.4952 19.2323L50.3657 19.1785L50.494 19.2349C50.6669 18.8419 50.7534 18.424 50.7532 17.985V14.7737H50.613V14.915L50.6165 14.9132Z" fill="#E8C349"/>
<path d="M54.4394 19.8478C54.6951 19.8478 54.9337 19.8025 55.1534 19.7114C55.3818 19.6102 55.5777 19.4777 55.7428 19.3132C55.9167 19.1396 56.0495 18.9382 56.1405 18.7104C56.2414 18.4817 56.2916 18.2401 56.2916 17.9829V16.1326H54.4393C54.183 16.1326 53.941 16.1822 53.7124 16.2828C53.4836 16.3744 53.2826 16.5071 53.109 16.6807C52.9437 16.8451 52.8117 17.0417 52.7109 17.2698C52.6195 17.4898 52.5735 17.7275 52.5735 17.9828C52.5735 18.24 52.6195 18.4816 52.7109 18.7103C52.8117 18.9382 52.9438 19.1395 53.109 19.3131C53.2826 19.4776 53.4836 19.6101 53.7124 19.7112C53.9406 19.8029 54.1826 19.8476 54.4384 19.8476M57.512 12.4444V17.9833C57.512 18.4043 57.4295 18.802 57.2646 19.1773C57.1097 19.5513 56.8902 19.8808 56.6067 20.1647C56.3321 20.4477 56.0078 20.6715 55.6323 20.8358C55.2574 20.9916 54.8593 21.0695 54.4386 21.0695C54.0182 21.0695 53.6203 20.9916 53.2454 20.8358C52.87 20.6715 52.541 20.4477 52.2573 20.1647C51.9739 19.8808 51.7499 19.5513 51.5851 19.1773C51.4296 18.802 51.3516 18.4043 51.3516 17.9833C51.3516 17.5541 51.4296 17.1563 51.5851 16.7912C51.7499 16.4159 51.9738 16.0914 52.2573 15.8175C52.5409 15.5338 52.87 15.3145 53.2454 15.1586C53.6204 14.9951 54.0182 14.9124 54.4386 14.9124H56.291V12.4443H57.5127L57.512 12.4444Z" fill="#E8C349"/>
<path d="M54.4406 19.8474V19.9875C54.7132 19.9875 54.9708 19.939 55.2081 19.8398L55.2108 19.8388C55.4541 19.7315 55.6653 19.5889 55.8429 19.4119C56.0298 19.2248 56.1741 19.0068 56.2719 18.7616L56.1416 18.7097L56.27 18.7663C56.3789 18.5199 56.4329 18.2575 56.4329 17.9822V15.9918H54.4404C54.1663 15.9916 53.9034 16.0455 53.6569 16.1539L53.7135 16.2821L53.6613 16.1521C53.4153 16.2502 53.1975 16.3944 53.0109 16.5807C52.8327 16.758 52.6904 16.9702 52.5838 17.2128L52.5827 17.2151C52.4834 17.4529 52.4343 17.7101 52.4343 17.982C52.4343 18.256 52.4834 18.5167 52.5819 18.7617L52.5831 18.7645L52.5838 18.7659C52.6904 19.0076 52.8316 19.2231 53.0084 19.4089L53.0106 19.4112L53.0135 19.4139C53.199 19.5896 53.4141 19.7314 53.6567 19.8383L53.6586 19.839L53.6611 19.8404C53.9064 19.9384 54.1675 19.9871 54.4402 19.9871V19.7089C54.2006 19.7089 53.977 19.6668 53.7652 19.5823L53.7134 19.7125L53.7698 19.5843C53.5546 19.4894 53.3681 19.3658 53.2062 19.2126L53.11 19.3143L53.2116 19.2179C53.0579 19.0564 52.9346 18.8695 52.8401 18.6552L52.7119 18.7116L52.8423 18.6596C52.7571 18.4475 52.7148 18.2247 52.7148 17.984C52.7148 17.7452 52.7571 17.527 52.8414 17.3251L52.712 17.271L52.8402 17.3276C52.9346 17.1136 53.0567 16.9326 53.209 16.7812C53.3698 16.6201 53.5539 16.4987 53.7654 16.414L53.7675 16.413L53.77 16.4119C53.9805 16.3195 54.2023 16.2737 54.4404 16.2737H56.1527V17.9839C56.1525 18.2229 56.1066 18.444 56.0135 18.6551L56.0123 18.6574L56.0115 18.6597C55.9271 18.8703 55.8055 19.0549 55.6449 19.2153C55.4926 19.367 55.3119 19.4896 55.0978 19.5843L55.1544 19.7125L55.1004 19.5829C54.8988 19.6669 54.6798 19.709 54.4404 19.709V19.851L54.4406 19.8474ZM57.5141 12.4442H57.374V17.9831C57.3738 18.3857 57.2955 18.7632 57.1387 19.1207L57.1376 19.1233C56.9887 19.481 56.7803 19.794 56.5094 20.0655L56.5079 20.0673L56.5081 20.0671C56.2461 20.3369 55.938 20.5497 55.5782 20.7074L55.6344 20.8355L55.5805 20.7063C55.2228 20.8548 54.8441 20.9292 54.4407 20.9292C54.0376 20.9292 53.659 20.8548 53.3009 20.7063L53.2474 20.8355L53.3033 20.7074C52.9437 20.5496 52.63 20.3361 52.3585 20.0654C52.0874 19.7939 51.8735 19.4794 51.7153 19.1208L51.5873 19.1772L51.7167 19.1236C51.5685 18.7653 51.494 18.3867 51.494 17.9832C51.494 17.5709 51.5685 17.1926 51.7163 16.8457L51.5873 16.791L51.7155 16.847C51.8735 16.4873 52.0867 16.1789 52.3568 15.9178L52.3586 15.9161C52.6295 15.6453 52.9422 15.437 53.301 15.2876L53.3034 15.2868C53.6611 15.1307 54.0385 15.0523 54.4408 15.0523H56.4332V12.5841H57.5141V12.4409H57.374H57.5115V12.3008H56.1504V14.7688H54.4381C53.9994 14.7686 53.5813 14.8551 53.1885 15.0268L53.2447 15.1551L53.1908 15.0256C52.7992 15.1881 52.454 15.4184 52.1577 15.7147L52.2568 15.814L52.1593 15.7131C51.8629 15.9998 51.6278 16.3405 51.4565 16.7313L51.455 16.7339L51.4557 16.7328C51.2924 17.1163 51.2109 17.5337 51.2109 17.9798C51.2109 18.4178 51.2926 18.835 51.455 19.2273L51.4557 19.2289L51.4565 19.2301C51.6277 19.6192 51.862 19.9639 52.1575 20.2601C52.4536 20.5556 52.7979 20.7896 53.1883 20.9606L53.1898 20.9612L53.1911 20.9616C53.5833 21.1243 54.0003 21.206 54.4381 21.206C54.8762 21.206 55.2934 21.1243 55.6854 20.9616L55.6879 20.9606C56.0792 20.7894 56.4194 20.5549 56.7066 20.2585L56.6061 20.1612L56.7053 20.2601C57.0017 19.9634 57.2318 19.6177 57.3937 19.2277L57.2641 19.1739L57.3926 19.2299C57.5649 18.8372 57.6519 18.4191 57.6517 17.9799V12.3009L57.5115 12.3008V12.4422L57.5141 12.4442Z" fill="#E8C349"/>
</svg>
