<svg width="83" height="38" viewBox="0 0 83 38" fill="none" xmlns="http://www.w3.org/2000/svg">
<g id="Frame" clip-path="url(#clip0_1895_4479)">
<path id="Vector" fill-rule="evenodd" clip-rule="evenodd" d="M0 2.56617C0 1.15407 1.15407 0 2.56617 0H79.8797C81.2918 0 82.4459 1.15407 82.4459 2.56617V35.4338C82.4459 36.8459 81.2918 38 79.8797 38H2.56617C1.15407 38 0 36.8459 0 35.4338V2.56617Z" fill="#E8C349"/>
<path id="Vector_2" fill-rule="evenodd" clip-rule="evenodd" d="M0 3.72949H82.4506V34.2702H0V3.72949Z" fill="#735C00"/>
<path id="Vector_3" fill-rule="evenodd" clip-rule="evenodd" d="M69.8728 11.6621C66.101 11.6621 63.0234 14.7396 63.0234 18.5115C63.0234 22.2833 66.0963 25.3562 69.8728 25.3562C73.6447 25.3562 76.7175 22.2787 76.7175 18.5115C76.7222 14.7349 73.6447 11.6621 69.8728 11.6621Z" fill="#E8C349"/>
<path id="Vector_4" fill-rule="evenodd" clip-rule="evenodd" d="M13.4353 11.6621C9.66347 11.6621 6.58594 14.7396 6.58594 18.5115C6.58594 22.2833 9.66347 25.3562 13.4353 25.3562C17.2072 25.3562 20.28 22.2787 20.28 18.5115C20.28 14.7349 17.2072 11.6621 13.4353 11.6621Z" fill="#E8C349"/>
<path id="Vector_5" fill-rule="evenodd" clip-rule="evenodd" d="M69.3383 5.63465C63.0002 5.48921 60.0212 9.55193 55.6958 14.567L51.6143 19.2959L58.0743 27.0319C59.6131 29.4104 56.6763 31.7655 54.8513 29.5934L48.8793 22.4672L43.0573 29.2134C41.2042 31.3621 38.3002 28.9601 39.8718 26.6097L46.1911 19.263L42.0533 14.323L44.718 11.025L48.9262 16.0823L52.5573 11.8601C54.3353 9.79119 56.1555 7.04674 58.5059 5.63465H0V32.366H13.68C20.018 32.366 22.8985 28.5754 27.1067 23.4665L31.0756 18.6438L24.4373 11.0579C22.8469 8.71687 25.7274 6.29144 27.5993 8.426L33.7309 15.4114L39.398 8.52921C41.1995 6.33835 44.1597 8.66995 42.6397 11.0625L36.4941 18.5546L40.7491 23.3961L38.0704 26.5675L33.8388 21.7917L30.3062 26.0937C28.5751 28.2048 26.8205 30.8976 24.4983 32.3613H82.4506V5.63465H69.3383ZM24.2543 18.5124C24.2543 24.4704 19.3941 29.3307 13.436 29.3307C7.47802 29.3307 2.61778 24.4704 2.61778 18.5124C2.61778 12.5544 7.47802 7.69415 13.436 7.69415C19.3941 7.69415 24.2543 12.5497 24.2543 18.5124ZM69.8731 29.326C63.9151 29.326 59.0548 24.4658 59.0548 18.5077C59.0548 12.5497 63.9151 7.68946 69.8731 7.68946C75.8311 7.68946 80.6913 12.5497 80.6913 18.5077C80.6913 24.4704 75.8311 29.326 69.8731 29.326Z" fill="#E8C349"/>
</g>
<defs>
<clipPath id="clip0_1895_4479">
<rect width="82.4506" height="38" fill="white"/>
</clipPath>
</defs>
</svg>
