<svg width="104" height="36" viewBox="0 0 104 36" fill="none" xmlns="http://www.w3.org/2000/svg">
<path d="M34.3964 7.00098C34.1562 7.00098 33.9161 7.04925 33.6898 7.14781C33.2254 7.34896 32.8662 7.73919 32.6975 8.22195L30.4765 14.6346C30.2423 15.3125 30.421 16.0648 30.933 16.5596C31.2744 16.8895 31.721 17.0645 32.1755 17.0645C32.4037 17.0645 32.6339 17.0202 32.8542 16.9297L41.3787 13.4156C42.0455 13.1401 42.4862 12.4903 42.5 11.7602C42.5139 11.03 42.0991 10.3642 41.4442 10.0625L35.1407 7.16391C34.9045 7.05529 34.6504 7.00098 34.3964 7.00098Z" fill="#735C00"/>
<path d="M35.8924 13.9062C35.692 13.9062 35.4895 13.9404 35.295 14.0088L30.8592 15.5899C30.3431 15.7729 29.9382 16.1853 29.7576 16.7083L27.1675 24.2111C26.975 24.7703 27.0604 25.3879 27.3978 25.8706C27.7352 26.3534 28.283 26.639 28.8665 26.639H30.6269C30.7242 26.639 30.8691 26.6491 31.0219 26.6591C31.2323 26.6732 31.4685 26.6913 31.7166 26.6913C32.1869 26.6913 32.57 26.631 32.9213 26.5022C34.2927 25.9973 34.7909 24.4545 35.1204 23.4347C35.1581 23.32 35.1918 23.2134 35.2236 23.1209C35.5689 22.1353 35.8627 21.2804 36.1405 20.4657C36.595 19.1361 37.0257 17.879 37.5795 16.3683C37.8236 15.7045 38.0875 14.7471 37.5973 14.2422C37.252 13.8861 36.3648 13.9083 35.8905 13.9083L35.8924 13.9062Z" fill="#735C00"/>
<path fill-rule="evenodd" clip-rule="evenodd" d="M12.9434 28.9825C12.594 28.9825 12.2467 28.9644 11.9113 28.9442C11.6096 28.9261 11.3258 28.91 11.0777 28.91C10.915 28.91 10.782 28.9161 10.6847 28.9322C10.6093 28.9422 10.5319 28.9483 10.4585 28.9483C9.96824 28.9483 9.49786 28.727 9.18427 28.3348C8.82107 27.8842 8.71587 27.2747 8.90442 26.7256C9.90275 23.8511 10.9308 20.9405 11.9232 18.1304C12.475 16.5695 13.0366 14.9744 13.5983 13.3793H9.37481C8.83496 13.3793 8.33084 13.1118 8.0232 12.6652C7.71557 12.2187 7.64213 11.6454 7.82671 11.1345C8.17206 10.179 8.6345 9.45085 9.24381 8.91177C9.98213 8.24999 10.9249 7.88188 12.0403 7.81752C12.4372 7.79137 12.8759 7.7793 13.38 7.7793C13.8147 7.7793 14.2513 7.78935 14.674 7.79941C15.0889 7.80544 15.5176 7.8155 15.9304 7.8155H27.283C27.8685 7.8155 28.4104 8.1293 28.7061 8.64223C29.0018 9.15516 29.0058 9.78878 28.718 10.3057C28.6605 10.4083 28.6029 10.519 28.5394 10.6336C28.2774 11.1284 27.9797 11.6896 27.5113 12.1885C26.8801 12.8583 26.0962 13.2465 25.1772 13.3411C24.7644 13.3833 24.298 13.4034 23.7105 13.4034C23.2401 13.4034 22.7519 13.3914 22.2795 13.3793C21.8965 13.3713 21.8012 13.5885 21.4499 13.5865C20.1559 17.171 18.4391 21.019 16.7798 25.7761C16.756 25.8506 16.7282 25.925 16.7024 26.0014C16.4325 26.794 16.1269 27.6931 15.4302 28.2724C15.4282 28.2724 15.4282 28.2724 15.4243 28.2744C14.6601 28.902 13.6995 28.9845 12.9453 28.9845L12.9434 28.9825Z" fill="#735C00"/>
<path fill-rule="evenodd" clip-rule="evenodd" d="M40.7246 27.007C39.9605 27.007 39.2083 26.9145 38.4879 26.7294C37.684 26.5202 37.0152 26.2145 36.4475 25.7961C35.8085 25.3274 35.3123 24.7179 34.9709 23.9857C34.6335 23.2697 34.4668 22.4449 34.4688 21.5357C34.4727 20.7392 34.6097 19.9024 34.8697 19.1139C35.2766 17.8809 35.9315 16.7705 36.8147 15.8151C37.6046 14.9582 38.5791 14.224 39.7124 13.6306C41.0164 12.9487 42.8166 12.5242 44.4143 12.5242C45.1208 12.5242 45.7857 12.6027 46.3871 12.7616C46.7384 12.8561 47.0659 12.9748 47.3755 13.1176C47.4668 12.8541 47.5561 12.5906 47.6454 12.3291C47.7149 12.1219 47.7843 11.9148 47.8558 11.7116C48.0364 11.1745 48.3143 10.3659 48.9752 9.82683C48.9752 9.82683 48.9765 9.82683 48.9792 9.82683C49.7393 9.21132 50.6701 9.13086 51.3926 9.13086C51.6982 9.13086 52.0059 9.14695 52.3036 9.16304C52.5834 9.17914 52.8494 9.1912 53.0995 9.1912C53.2721 9.1912 53.417 9.18517 53.5401 9.1731C53.5996 9.16505 53.6611 9.16103 53.7187 9.16103C54.2268 9.16103 54.7071 9.39839 55.0227 9.80873C55.374 10.2674 55.4633 10.8788 55.2588 11.422C54.5324 13.3711 53.8497 15.3806 53.1253 17.5128C52.4127 19.6067 51.6764 21.7731 50.8964 23.863C50.5788 24.7199 50.0231 25.9047 48.8978 26.301C48.479 26.4498 47.9967 26.5202 47.3854 26.5202C47.044 26.5202 46.7046 26.4981 46.3752 26.48C46.0854 26.4619 45.8115 26.4458 45.5773 26.4458C45.4384 26.4458 45.3272 26.4518 45.2479 26.4619C45.1724 26.474 45.097 26.478 45.0236 26.478C44.7656 26.478 44.5175 26.4176 44.2892 26.303C43.1956 26.7576 41.9671 27.007 40.7266 27.007H40.7246Z" fill="#735C00"/>
<path fill-rule="evenodd" clip-rule="evenodd" d="M87.4198 27.5591C86.7311 27.5591 86.1019 27.4746 85.5541 27.3077C84.8357 27.0925 84.2422 26.7344 83.7877 26.2436C83.3054 25.7246 82.7497 24.7994 82.837 23.333C82.8906 22.4338 83.1685 21.6534 83.3928 21.0258C83.5555 20.5652 83.7302 20.0784 83.9009 19.6057C84.0676 19.143 84.2343 18.6744 84.401 18.2097H83.9941C83.5019 18.2097 83.0375 17.9864 82.7259 17.6042C82.4123 17.22 82.2853 16.7152 82.3766 16.2264C82.5731 15.1884 83.1486 14.3899 84.0418 13.9212C84.5995 13.6275 85.2505 13.4726 86.0722 13.4425C86.2012 13.0402 86.356 12.6017 86.618 12.1833C87.0248 11.5336 87.6262 11.087 88.4062 10.8517C89.0116 10.6686 89.6447 10.6465 90.129 10.6465C90.381 10.6465 90.637 10.6545 90.8812 10.6626C91.1213 10.6686 91.3694 10.6746 91.6056 10.6746C91.7247 10.6746 91.8319 10.6746 91.9331 10.6706C91.9509 10.6706 91.9708 10.6706 91.9886 10.6706C92.5047 10.6706 92.9909 10.916 93.3025 11.3344C93.6261 11.7689 93.7213 12.3361 93.5566 12.8511C93.4911 13.0603 93.4256 13.2675 93.3541 13.4726H94.6184C95.1682 13.4726 95.6842 13.7522 95.9899 14.2169C96.2955 14.6815 96.3511 15.2709 96.1367 15.7879C96.1109 15.8502 96.0851 15.9206 96.0554 15.993C95.9164 16.3591 95.7259 16.862 95.2694 17.3065C94.8685 17.6968 94.3525 17.9623 93.7372 18.1011C93.3581 18.1836 92.9473 18.2218 92.4054 18.2218C92.1732 18.2218 91.941 18.2137 91.7167 18.2077H91.6989C91.288 19.2879 90.8335 20.5692 90.4346 21.77C90.3274 22.0858 90.2242 22.4258 90.1587 22.7537C90.1448 22.82 90.1349 22.8804 90.127 22.9347C90.2679 22.9166 90.4485 22.8844 90.6807 22.8281C90.7998 22.7999 90.9228 22.7838 91.0459 22.7818H91.0697C91.7584 22.7818 92.3717 23.1962 92.6277 23.8399C92.8679 24.4413 92.7508 25.1071 92.3161 25.62C92.2387 25.7106 92.1653 25.781 92.1177 25.8292C92.1137 25.8313 92.1097 25.8353 92.1057 25.8413C91.2444 26.7304 90.0238 27.3117 88.6682 27.4746C88.2355 27.531 87.8167 27.5571 87.4218 27.5571L87.4198 27.5591Z" fill="#735C00"/>
<path fill-rule="evenodd" clip-rule="evenodd" d="M69.8117 26.5265C69.4426 26.5265 69.0714 26.5003 68.7122 26.4742C68.3966 26.4541 68.0989 26.432 67.8429 26.432C67.6563 26.432 67.5471 26.444 67.4896 26.4541C67.4022 26.4682 67.311 26.4762 67.2236 26.4762C66.7374 26.4762 66.2729 26.257 65.9554 25.8708C65.5822 25.4141 65.4771 24.7926 65.6795 24.2334C66.1281 22.9903 66.5806 21.6889 67.0609 20.311C67.4677 19.1463 67.8865 17.9394 68.3053 16.7708C68.347 16.6561 68.3906 16.5253 68.4383 16.3866C68.7241 15.5317 69.0813 14.4696 69.8713 13.7877C70.689 13.0817 71.723 12.9891 72.5308 12.9891C72.8484 12.9891 73.1659 13.0052 73.4755 13.0213C73.7633 13.0374 74.0372 13.0495 74.2913 13.0495C74.4242 13.0495 74.5393 13.0455 74.6426 13.0374C74.6822 13.0374 74.7219 13.0334 74.7597 13.0334C75.0931 13.0334 75.4146 13.134 75.6865 13.321C76.0855 13.138 76.5181 12.9751 76.9806 12.8463C77.8142 12.615 78.741 12.4883 79.5964 12.4883C80.8032 12.4883 81.8293 12.7256 82.647 13.1983C83.2861 13.5644 83.8398 14.0753 84.2407 14.6708C84.7528 15.4271 85.0128 16.3141 84.9969 17.2354C84.981 18.0863 84.7012 18.8627 84.4789 19.4863C84.4372 19.6009 84.3995 19.7095 84.3638 19.8061V19.8101C84.1296 20.498 83.8835 21.1699 83.6473 21.8196C83.4369 22.3949 83.2226 22.9903 83.0062 23.6058C82.9844 23.6702 82.9626 23.7345 82.9407 23.8009C82.7839 24.2636 82.6053 24.7845 82.256 25.2733C81.7539 25.9653 81.0294 26.3797 80.1601 26.4702C79.912 26.4963 79.6361 26.5104 79.3166 26.5104C78.9971 26.5104 78.6636 26.4983 78.3441 26.4843C78.0364 26.4722 77.7447 26.4601 77.4728 26.4601C77.2981 26.4601 77.1493 26.4662 77.0203 26.4742C76.9806 26.4762 76.9409 26.4782 76.9012 26.4782C76.3911 26.4782 75.9068 26.2389 75.5952 25.8225C75.2578 25.3759 75.1645 24.7906 75.3471 24.2575C75.8334 22.8535 76.4963 20.9305 77.1215 19.2469L77.1314 19.2187C77.2247 18.9713 77.3378 18.6636 77.4152 18.3699C77.4232 18.3377 77.4291 18.3055 77.4371 18.2753H77.4291C77.3239 18.2753 77.2029 18.2814 77.06 18.2914C76.2323 18.3437 75.6806 18.6294 75.2142 19.2429C74.6981 19.9268 74.3369 20.9285 73.9558 21.9886C73.9161 22.0932 73.8784 22.2018 73.8387 22.3104C73.7633 22.5176 73.678 22.765 73.5847 23.0245C73.5013 23.2618 73.414 23.5052 73.3247 23.7567C73.3068 23.811 73.287 23.8653 73.2691 23.9196C73.023 24.6176 72.6896 25.5731 71.7746 26.0981C71.1018 26.4843 70.3317 26.5285 69.8137 26.5285L69.8117 26.5265Z" fill="#735C00"/>
<path fill-rule="evenodd" clip-rule="evenodd" d="M58.677 27.2825C57.1051 27.2825 55.6959 27.0451 54.4832 26.5765C53.8084 26.315 53.2011 25.9811 52.6811 25.5848C52.1035 25.1483 51.6272 24.6273 51.266 24.044C50.7777 23.2555 50.5396 22.3362 50.5554 21.3144C50.5693 20.5299 50.7321 19.7132 51.0377 18.8885C51.4009 17.919 51.9249 17.0339 52.6037 16.2495C53.2487 15.5032 54.0287 14.8515 54.9258 14.3164C55.7793 13.8055 56.7359 13.3992 57.7719 13.1075C58.7762 12.8239 59.8519 12.6529 60.9733 12.5905C61.2631 12.5745 61.5548 12.5664 61.8347 12.5664C63.2597 12.5664 64.522 12.7615 65.5898 13.1457C66.209 13.371 66.7647 13.6607 67.2371 14.0086C67.7809 14.4069 68.2176 14.8836 68.5411 15.4308C69.0313 16.2555 69.2457 17.3115 69.1464 18.4118C69.0412 19.5704 68.5986 20.5882 67.9 21.2782C67.5924 21.5799 67.1835 21.7489 66.7568 21.7509C67.0883 22.2417 67.1399 22.8813 66.8719 23.4285C66.2983 24.6112 65.2365 25.5426 63.6289 26.2707C62.3388 26.8601 60.8562 27.202 59.3418 27.2664C59.1196 27.2765 58.8933 27.2785 58.675 27.2785L58.677 27.2825Z" fill="#735C00"/>
<path fill-rule="evenodd" clip-rule="evenodd" d="M20.9943 26.5161C20.768 26.5161 20.5537 26.506 20.3453 26.494C20.1786 26.4839 20.0218 26.4759 19.8947 26.4759H18.0529C17.519 26.4759 17.0169 26.2123 16.7073 25.7678C16.3996 25.3273 16.3222 24.7601 16.5008 24.2471C16.7886 23.4264 17.0963 22.5353 17.4198 21.594C17.9239 20.1356 18.4439 18.629 18.9421 17.2351C19.0076 17.052 19.0711 16.8569 19.1386 16.6437C19.3608 15.9638 19.5891 15.2598 19.9662 14.6563C20.4108 13.9442 21.0955 13.4595 21.9946 13.2201C22.6654 13.0391 23.3839 13.0149 23.9972 13.0149C24.2413 13.0149 24.4934 13.019 24.7355 13.023C24.9776 13.029 25.2277 13.033 25.4679 13.033H25.6366C25.9938 13.033 26.3352 13.1497 26.617 13.3589C27.4288 13.0351 28.3437 12.8198 29.3381 12.7112C29.7132 12.671 30.1201 12.6348 30.5528 12.6348C31.0986 12.6348 31.5789 12.6951 32.0175 12.8198C32.476 12.9526 32.857 13.2784 33.0615 13.7149C33.2659 14.1534 33.2718 14.6583 33.0793 15.0988C32.8828 15.5494 32.6645 15.8612 32.4879 16.1086C32.4244 16.2011 32.3608 16.2897 32.3013 16.3822C32.2834 16.4103 32.2557 16.4586 32.2259 16.5089C31.9599 16.9514 31.5134 17.6917 30.6639 17.9672C30.2372 18.106 29.8283 18.1221 29.5604 18.1221C29.4016 18.1221 29.2508 18.1161 29.1158 18.1101C29.0066 18.106 28.9015 18.1 28.8161 18.1C28.8002 18.1 28.7824 18.1 28.7685 18.1H28.7665C28.6831 18.102 28.5978 18.104 28.5164 18.104C28.177 18.1101 27.8257 18.1161 27.6134 18.1543C27.2045 18.2307 26.7302 18.5184 26.2776 18.969C25.8251 19.4195 25.581 19.8138 25.3488 20.4776C25.2118 20.8718 25.0749 21.2701 24.928 21.6925C24.7772 22.135 24.6204 22.5917 24.4557 23.0583V23.0624C24.4179 23.169 24.3782 23.2897 24.3346 23.4184C24.0031 24.4282 23.5447 25.8121 22.2784 26.3069C21.804 26.496 21.3158 26.5141 20.9923 26.5141L20.9943 26.5161Z" fill="#735C00"/>
<path d="M34.4006 8.82812L40.7041 11.7247L32.1797 15.2388L34.4006 8.82812Z" fill="#E8C349"/>
<path d="M35.8931 15.7334C34.998 18.1733 34.4502 19.8811 33.5273 22.5101C33.2892 23.19 32.9538 24.5498 32.3087 24.7891C32.144 24.8495 31.9376 24.8696 31.7173 24.8696C31.356 24.8696 30.9551 24.8193 30.6276 24.8193H28.8672L31.4573 17.3164L35.8931 15.7354" fill="#E8C349"/>
<path fill-rule="evenodd" clip-rule="evenodd" d="M27.131 9.3857C26.5991 10.3412 26.1922 11.4435 24.8545 11.5843C23.4413 11.7351 21.3951 11.5199 19.8688 11.6124C18.3049 15.9251 16.6417 20.6279 15.0737 25.1236C14.8574 25.7432 14.6152 26.5659 14.2322 26.8797C13.4482 27.5254 11.5151 27.0144 10.3044 27.1814C12.1125 21.9756 13.9603 16.8081 15.7763 11.6104H9.21875C9.66928 10.3693 10.4017 9.48024 11.9835 9.3857C13.2081 9.31329 14.4962 9.3857 15.7763 9.3857H27.129H27.131Z" fill="#E8C349"/>
<path fill-rule="evenodd" clip-rule="evenodd" d="M53.567 10.7307C52.0863 14.6933 50.7367 19.0623 49.2045 23.1738C48.9902 23.7491 48.6488 24.4672 48.2022 24.6261C47.3587 24.9238 45.8424 24.5718 44.8699 24.7085C44.9889 24.3082 45.1497 23.9482 45.2767 23.5539C43.8457 24.8876 41.214 25.6459 38.747 25.0103C37.5899 24.7126 36.7662 24.1473 36.3077 23.1738C35.8354 22.16 35.875 20.774 36.2799 19.545C36.9746 17.445 38.4731 15.9807 40.3169 15.0151C41.9841 14.1422 45.3422 13.5246 47.1444 14.9045C47.4679 15.1539 47.7616 15.4818 47.9025 15.9746C48.3709 14.808 48.8115 13.4643 49.2581 12.1588C49.3891 11.7746 49.5638 11.2677 49.8535 11.0324C50.6097 10.4209 52.259 10.8775 53.565 10.7307H53.567ZM41.0215 17.9539C40.3943 18.674 39.7135 19.8608 39.6401 21.11C39.4734 24.0246 43.6294 23.4695 45.0584 22.345C45.8086 21.7557 46.5886 20.3034 46.6859 18.9396C46.8208 17.0307 45.6935 16.1818 43.9767 16.3588C42.647 16.4956 41.6586 17.2218 41.0215 17.9539Z" fill="#E8C349"/>
<path fill-rule="evenodd" clip-rule="evenodd" d="M91.8343 12.2422C91.5346 13.1897 91.2012 14.1089 90.8876 15.0422H94.4641C94.3053 15.4305 94.2239 15.7644 93.9778 16.0037C93.2613 16.7017 91.745 16.3598 90.4271 16.4463C89.8873 17.7759 89.2363 19.5882 88.7202 21.1431C88.3987 22.1167 87.8767 23.8526 88.9346 24.3816C89.4685 24.6471 90.3338 24.4963 90.9154 24.3535C91.0245 24.3535 90.8518 24.5003 90.7804 24.5747C90.2128 25.1601 89.3573 25.5966 88.3134 25.7273C86.2056 25.9888 84.199 25.5624 84.332 23.3397C84.3717 22.6859 84.586 22.0845 84.7925 21.4991C85.374 19.8698 86.0389 18.0474 86.5807 16.4463H83.8438C84.0958 15.1106 85.3581 14.9155 87.067 15.0443C87.4123 14.3121 87.5056 13.5417 87.8529 12.9865C88.5178 11.9204 90.187 12.3006 91.8343 12.2443V12.2422Z" fill="#E8C349"/>
<path fill-rule="evenodd" clip-rule="evenodd" d="M76.7537 24.7091C77.2856 23.1603 77.9088 21.358 78.5142 19.7387C78.8138 18.9301 79.4232 17.333 78.5142 16.7738C78.0597 16.4922 77.4007 16.4862 76.8053 16.5264C73.7885 16.7215 73.0184 19.2278 72.1471 21.6336C72.0022 22.0379 71.8197 22.5629 71.6311 23.0899C71.4207 23.6813 71.2361 24.3048 70.8193 24.5462C69.9818 25.025 68.1896 24.5261 67.0781 24.7091C67.9236 22.3718 68.8108 19.7428 69.7079 17.2385C69.9798 16.4821 70.2537 15.4241 70.7935 14.9594C71.5855 14.2755 73.2645 14.7 74.6122 14.6034C74.4157 15.1364 74.2212 15.6755 74.0445 16.2247C74.0485 16.2468 74.0326 16.2508 74.0168 16.2508C74.8206 15.4885 75.9241 14.7301 77.2658 14.356C78.6174 13.9798 80.5068 13.8712 81.6838 14.5491C82.434 14.9836 83.2219 15.8405 83.2001 17.1017C83.1882 17.8017 82.8746 18.5298 82.6583 19.1635C82.2236 20.4287 81.7691 21.6195 81.3047 22.9511C81.0149 23.7919 80.8224 24.6066 79.8419 24.7091C78.9429 24.8037 77.7342 24.6367 76.7557 24.7091H76.7537Z" fill="#E8C349"/>
<path fill-rule="evenodd" clip-rule="evenodd" d="M66.6041 19.9861H56.4463C56.1366 20.5694 56.1605 21.4847 56.4165 22.0459C57.6391 24.7151 63.0792 23.5404 65.2505 22.597C64.7861 23.5545 63.8454 24.1841 62.8113 24.6568C61.7634 25.1315 60.4931 25.4453 59.1257 25.5036C56.2518 25.6283 53.6339 24.866 52.5145 23.0617C51.8318 21.9634 52.0005 20.5433 52.4312 19.3826C53.62 16.1964 56.9028 14.3801 60.9139 14.1628C63.5635 14.02 66.0305 14.5872 66.9832 16.1964C67.6124 17.2585 67.4814 19.1191 66.6021 19.9841L66.6041 19.9861ZM61.162 15.595C59.1118 15.7559 57.7105 17.0372 56.9881 18.5056H63.5953C64.0696 16.47 63.1308 15.4381 61.16 15.595H61.162Z" fill="#E8C349"/>
<path fill-rule="evenodd" clip-rule="evenodd" d="M31.4243 14.3297C31.2397 14.7581 31.0253 14.9834 30.7733 15.3736C30.5887 15.6613 30.3346 16.1742 30.0151 16.2768C29.5924 16.4156 29.0525 16.3231 28.5801 16.3331C28.078 16.3452 27.5779 16.3412 27.171 16.4156C26.2798 16.5785 25.5098 17.1498 24.9759 17.6788C24.3368 18.3164 23.9597 18.936 23.6501 19.821C23.3623 20.6417 23.0725 21.5006 22.7569 22.4038C22.4731 23.2064 22.1774 24.4052 21.5363 24.6567C21.0937 24.8297 20.3415 24.709 19.7501 24.709H17.9062C18.6426 22.611 19.5317 19.986 20.3455 17.705C20.6174 16.9486 20.8476 16.0394 21.2128 15.4521C21.8995 14.3538 23.6739 14.6153 25.4939 14.6012C25.2954 15.2067 25.0731 15.786 24.8707 16.3854C24.8667 16.4075 24.8449 16.4136 24.8449 16.4417C25.7539 15.2067 27.3814 14.4866 29.3701 14.2713C30.0211 14.1989 30.7812 14.1386 31.4302 14.3256L31.4243 14.3297Z" fill="#E8C349"/>
</svg>
