<svg width="141" height="44" viewBox="0 0 141 44" fill="none" xmlns="http://www.w3.org/2000/svg">
<g clip-path="url(#clip0_1895_4499)">
<path fill-rule="evenodd" clip-rule="evenodd" d="M89.068 26.4612C88.0255 27.0103 87.6435 27.5037 87.6435 28.1562C87.6435 28.2676 87.6992 28.4825 87.6992 28.6496C87.755 28.761 87.4844 28.8645 87.4844 28.9759C87.5401 29.143 87.8664 29.3022 87.9221 29.3579C88.1369 29.907 88.686 30.2333 89.5057 30.2333C90.3254 30.2333 92.4024 29.3579 94.758 28.1562C97.1614 26.9546 96.7794 27.7185 97.1614 28.3711C97.5433 29.0793 97.981 29.2465 99.127 28.9202C100.273 28.5939 99.8353 29.2465 99.509 29.7399C99.1827 30.289 99.3419 30.6152 100.273 31.2678C101.204 31.9761 101.315 30.8858 101.475 30.1218C101.642 29.3579 103.774 27.2251 104.156 26.6203C104.538 26.0155 105.852 25.8006 106.289 25.3072C106.727 24.8695 106.997 24.0499 106.504 23.2859C106.066 22.5219 104.865 23.7236 104.101 24.4319C103.337 25.0844 103.17 24.4876 103.114 23.827C103.003 23.1188 102.788 21.4237 102.239 20.0549C101.689 18.6861 103.003 18.909 103.496 19.0681C103.934 19.2353 105.135 19.283 105.844 19.4501C106.496 19.6172 109.122 19.7764 110.38 19.8878C111.693 20.0549 112.894 20.5404 114.534 20.5404C116.117 20.5404 117.104 21.0338 118.194 21.1452C119.237 21.2009 121.147 20.9781 121.967 21.1452C122.842 21.2566 123.113 21.75 124.266 21.75C125.412 21.75 130.609 21.9171 131.047 21.9649C131.54 22.0206 131.699 21.6386 132.137 21.75C132.575 21.8057 132.901 22.3548 133.283 22.4026C133.665 22.514 133.665 22.2911 134.214 22.1877C134.707 22.132 136.617 22.514 137.381 22.7368C138.145 22.9517 138.312 23.5565 138.909 23.5565C139.514 23.5565 139.999 23.0631 140.278 22.1877C140.604 21.368 139.84 21.2009 138.854 21.1452C137.867 21.0338 134.317 20.9781 132.511 20.9303C130.649 20.8189 128.301 20.5483 126.773 20.5483C125.245 20.5483 122.237 20.222 120.542 19.9992C118.847 19.7844 116.062 19.6729 115.186 19.6729C114.367 19.6729 112.672 19.8878 112.019 19.4581C111.311 19.0204 108.358 18.6384 107.483 18.6384C106.663 18.6384 104.912 18.145 103.711 18.0893C102.453 18.0336 101.96 17.1582 99.883 17.1582C98.1322 17.1582 99.4453 18.8533 100.591 19.1238C101.682 19.4501 101.682 21.5272 102.071 23.5565C102.453 25.6335 101.578 26.4532 101.085 26.9466C100.647 27.3843 99.8273 28.3154 99.119 27.822C98.4108 27.3843 98.9042 26.8352 100.05 25.2515C101.196 23.6679 99.2861 23.3416 98.6813 24.0499C98.0288 24.7024 97.3683 25.6335 96.3815 26.2383C95.3947 26.8431 94.6864 27.7185 92.7208 28.3154C90.7551 28.8645 91.0814 27.822 92.9356 26.7317C93.9781 26.0792 93.5404 25.2038 92.1717 25.2515C90.7631 25.3152 90.6596 25.6415 89.068 26.4612Z" fill="#E8C349"/>
<path fill-rule="evenodd" clip-rule="evenodd" d="M124.607 36.7983C124.663 36.6869 124.822 36.09 124.877 35.8672C125.044 36.0821 125.259 36.5755 125.426 36.7426C125.594 36.7426 126.031 36.6312 126.246 36.6312C126.302 36.6312 126.302 36.6869 126.246 36.7426C126.079 36.9097 125.753 37.0689 125.641 37.1803C125.697 37.3474 125.912 37.8328 126.023 37.9999C126.023 37.9999 126.023 38.0556 125.912 37.9999C125.641 37.8885 125.259 37.7294 125.037 37.618C124.869 37.7294 124.384 38.0556 124.273 38.1114C124.217 38.2228 124.217 38.2228 124.217 38.0556C124.328 37.7851 124.384 37.5623 124.432 37.3474C124.217 37.236 123.883 37.0211 123.779 37.0211C123.723 36.9654 123.668 36.9097 123.779 36.9097C123.843 36.9097 124.607 36.7983 124.607 36.7983Z" fill="#E8C349"/>
<path fill-rule="evenodd" clip-rule="evenodd" d="M104.871 7.48867C104.927 7.32155 105.086 6.7804 105.198 6.61328C105.309 6.7804 105.468 7.37725 105.58 7.48867C105.747 7.48867 106.232 7.54437 106.455 7.54437C106.511 7.54437 106.566 7.60008 106.511 7.60008C106.344 7.71149 105.962 7.98206 105.802 8.09348C105.858 8.2606 106.073 8.85745 106.129 9.02457C106.184 9.08027 106.24 9.13598 106.129 9.13598C105.858 8.96886 105.365 8.64258 105.198 8.48342C105.03 8.65054 104.545 8.92111 104.489 8.97682C104.378 9.03253 104.378 9.03253 104.378 8.92111C104.489 8.70625 104.545 8.37201 104.648 8.15714C104.481 8.04573 103.884 7.60804 103.829 7.55233C103.773 7.49662 103.717 7.44092 103.773 7.44092C103.884 7.43296 104.871 7.48867 104.871 7.48867Z" fill="#E8C349"/>
<path fill-rule="evenodd" clip-rule="evenodd" d="M120.128 31.3314C120.239 31.5463 120.398 32.0954 120.398 32.2625C120.613 32.2625 121.274 32.3739 121.488 32.4296C121.544 32.4296 121.544 32.4296 121.488 32.4853C121.274 32.5967 120.78 32.8673 120.613 32.9787C120.669 33.0901 120.884 33.9098 120.884 34.069C120.939 34.069 120.884 34.1247 120.828 34.069C120.613 33.8541 120.175 33.4642 119.953 33.305C119.785 33.4721 119.021 33.8541 118.91 33.9576C118.799 33.9576 118.799 33.9576 118.854 33.9018C118.966 33.6313 119.236 32.9708 119.348 32.8116C119.236 32.7002 118.695 32.2068 118.639 32.159C118.584 32.1033 118.584 32.0476 118.639 32.1033C118.807 32.1033 119.682 32.159 119.682 32.159C119.746 32.0954 120.016 31.4985 120.128 31.3314Z" fill="#E8C349"/>
<path fill-rule="evenodd" clip-rule="evenodd" d="M93.2767 42.2651C93.3324 42.1537 93.603 41.4454 93.6587 41.2783C93.7144 41.4454 93.9292 42.098 93.985 42.2651C94.1521 42.2651 94.5898 42.2651 94.7489 42.2651C94.8046 42.2651 94.8046 42.2651 94.7489 42.3208C94.6375 42.4322 94.2555 42.7028 94.1441 42.8142C94.1998 42.9813 94.4147 43.5225 94.4147 43.6896C94.4704 43.7453 94.4704 43.7453 94.4147 43.7453C94.1998 43.6339 93.8099 43.3633 93.6507 43.2519C93.5393 43.3076 92.9424 43.8567 92.7753 43.9602C92.7196 44.0159 92.7196 44.0159 92.7196 43.9602C92.7753 43.7453 92.9902 43.0291 93.1016 42.8699C92.9902 42.8142 92.449 42.4322 92.3933 42.3765C92.3376 42.3765 92.3376 42.3208 92.3933 42.3208C92.457 42.3208 93.2767 42.2651 93.2767 42.2651Z" fill="#E8C349"/>
<path fill-rule="evenodd" clip-rule="evenodd" d="M135.819 1.14596C135.875 1.03455 135.986 0.32628 136.034 0C136.09 0.0557063 136.472 0.875384 136.583 1.0425C136.798 1.0425 137.459 0.931091 137.674 0.931091C137.729 0.931091 137.729 0.931091 137.674 0.986797C137.506 1.15392 137.069 1.5359 136.91 1.69506C136.91 1.75077 137.347 2.68186 137.403 2.78531C137.459 2.84102 137.403 2.84102 137.347 2.78531C137.077 2.6182 136.528 2.29192 136.305 2.1805C136.138 2.34762 135.652 2.78531 135.597 2.83306C135.541 2.88877 135.485 2.88877 135.541 2.83306C135.541 2.6182 135.652 2.06909 135.708 1.84627C135.541 1.73485 134.944 1.40857 134.888 1.35287C134.777 1.29716 134.777 1.29716 134.888 1.29716C135.055 1.25737 135.819 1.14596 135.819 1.14596Z" fill="#E8C349"/>
<path fill-rule="evenodd" clip-rule="evenodd" d="M139.211 3.88311C139.211 4.15368 139.267 4.59137 139.267 4.75849C139.434 4.8142 140.198 5.02907 140.413 5.08477C140.469 5.08477 140.413 5.14048 140.413 5.14048C140.198 5.19619 139.482 5.46676 139.323 5.52247C139.323 5.63388 139.323 6.28644 139.323 6.50926C139.323 6.62068 139.323 6.62067 139.267 6.56497C139.156 6.39785 138.829 5.91241 138.662 5.68958C138.495 5.74529 137.954 5.90445 137.898 5.96016C137.843 5.96016 137.787 5.96016 137.843 5.90445C137.954 5.68958 138.169 5.35535 138.28 5.19619C138.169 5.02907 137.843 4.54363 137.843 4.43221C137.787 4.37651 137.787 4.37651 137.843 4.37651C137.954 4.37651 138.662 4.59137 138.662 4.59137C138.718 4.47996 139.044 3.98656 139.156 3.8274C139.156 3.8274 139.211 3.7717 139.211 3.88311Z" fill="#E8C349"/>
<path fill-rule="evenodd" clip-rule="evenodd" d="M28.7045 27.5586C28.7045 26.7389 27.4471 25.4258 26.3569 24.7732C25.4258 24.2241 25.4815 24.2799 25.2109 24.5584C25.4258 24.9961 25.6486 25.4895 25.8157 25.9829C25.9272 25.9272 26.0306 25.8715 26.142 25.8715C27.1288 25.8715 27.4551 26.8025 27.4551 27.4551C27.4551 27.8928 27.1288 28.4419 26.5797 28.8796C26.6354 29.2059 26.6911 29.5879 26.6911 29.9698C27.7177 29.2536 28.7045 28.1554 28.7045 27.5586Z" fill="#E8C349"/>
<path fill-rule="evenodd" clip-rule="evenodd" d="M24.8795 29.5242C23.3515 29.6913 23.7892 30.2882 23.3515 30.2882C22.8581 30.2882 21.3859 30.1211 22.2613 29.1979C23.0253 28.3782 24.6646 26.3569 25.8185 25.9749C25.6514 25.4815 25.4365 24.9881 25.2137 24.5504C25.158 24.6061 25.1023 24.6618 25.0466 24.7175C24.6089 25.2109 24.2269 25.7601 23.6778 25.9749C23.1844 26.1898 20.9403 26.8503 19.6351 26.7946C18.3221 26.7389 17.6138 26.524 18.5449 25.8078C19.476 25.1552 19.6908 23.9456 18.2186 24.0013C16.6907 24.057 14.3908 25.4258 14.0088 25.967C13.6825 26.5718 14.1202 27.3357 12.8628 27.5506C11.6055 27.7177 10.3481 28.0997 9.69555 27.9326C8.97137 27.7734 8.31085 27.8291 8.53367 26.7389C8.74854 25.6486 9.46476 25.5372 9.46476 24.1684C10.1173 23.6193 11.9795 21.6537 12.5843 20.9454C13.8417 20.6192 18.2743 19.7995 20.3514 18.4864C20.5662 18.375 20.7891 18.2715 20.9562 18.1044C20.7891 17.8896 20.6299 17.6667 20.4071 17.3962C20.0808 17.6667 19.7545 17.8896 19.476 18.0487C17.9958 18.757 16.7941 19.1947 16.0859 19.2504C15.3776 19.3061 14.2794 19.7995 14.9399 18.5421C15.6482 17.2847 15.9267 17.3404 16.4121 16.7356C16.7384 16.3537 17.3989 15.534 18.2743 14.6586C18.0594 14.388 17.8366 14.0538 17.6218 13.7832C16.253 15.2077 12.5923 18.8684 12.0989 19.3618C11.2235 18.9798 9.63984 18.8127 8.87587 17.5553C8.1676 16.4094 7.78562 15.916 7.18081 16.2979C6.78291 16.5685 6.94207 17.1654 7.2206 17.8816C7.43546 18.4864 8.15169 19.7915 9.84675 20.3406C11.5418 20.834 10.6664 21.0489 10.2844 21.4309C9.95816 21.7572 6.28951 25.1473 4.65015 26.4604C2.95509 27.7734 -0.108757 29.1979 0.710921 30.5588C1.0372 31.1636 2.18316 30.1211 2.5174 30.0096C2.84368 29.8425 3.28137 29.8982 3.5599 29.6277C3.83047 29.3571 4.65015 28.2032 5.42208 28.1475C6.24176 28.0918 6.56804 29.0786 7.38772 29.2377C8.47797 29.4048 13.1255 28.8 13.9451 28.0918C14.4942 28.2032 15.5845 28.418 16.1893 28.3623C16.8419 28.3066 19.6351 28.0361 20.2877 27.8132C20.996 27.5984 21.3302 27.9246 21.1074 28.2509C20.8925 28.5772 19.7943 30.1131 20.7811 30.9885C21.7679 31.9196 24.8795 30.9885 26.0334 30.3837C26.2483 30.2723 26.4711 30.1131 26.686 29.946C26.686 29.564 26.6303 29.182 26.5745 28.8557C26.1369 29.1979 25.54 29.4685 24.8795 29.5242Z" fill="#E8C349"/>
<path fill-rule="evenodd" clip-rule="evenodd" d="M22.631 12.1356C24.0555 12.0799 23.8884 13.5044 23.5064 14.2127C23.1801 14.7618 21.7557 16.4011 20.3869 17.38C20.6017 17.6506 20.7689 17.8734 20.936 18.0882C23.5064 16.3375 26.4032 13.1702 24.3261 11.1966C22.6868 9.71639 18.8032 12.454 18.0393 13.3293C17.9278 13.4407 17.7687 13.5999 17.6016 13.767C17.8164 14.0376 18.0393 14.3718 18.2541 14.6424C19.5194 13.4487 21.1588 12.1913 22.631 12.1356Z" fill="#E8C349"/>
<path fill-rule="evenodd" clip-rule="evenodd" d="M44.1777 29.8502C43.6286 30.0173 43.1352 30.1208 42.8089 30.1208C41.5515 30.0094 40.4613 28.2586 41.3367 26.5635C42.594 26.5635 43.4137 26.5078 44.122 26.5078C44.3368 26.5078 44.6154 26.5078 44.9416 26.5078C45.0531 26.1258 45.1565 25.7439 45.3236 25.4176C44.2811 25.3619 43.1909 25.3619 42.6418 25.4176C42.0927 25.4733 41.9892 24.9242 42.2598 24.4865C42.5304 24.0488 43.8434 22.298 44.3925 21.916C45.1565 21.916 45.7056 22.0275 46.199 22.0832C46.4139 22.1389 46.581 22.1389 46.8038 22.1389C47.1301 21.5341 47.5121 20.9372 47.8941 20.3324C44.2891 20.0618 47.727 18.8522 49.2072 17.8734C49.6449 17.5471 50.1383 17.1651 50.5759 16.8866C51.125 16.2817 51.7219 15.6849 52.3267 15.0801C50.6316 15.0244 49.1037 16.1703 48.1169 16.8309C47.1301 17.4357 44.7825 18.9079 44.0742 19.6719C43.3103 19.6162 41.7744 19.6719 41.3924 19.8867C41.0661 20.1573 40.9547 21.0884 41.3367 21.0884C41.7744 21.0884 41.6072 21.741 41.2252 21.9638C40.899 22.1787 40.0236 23.3883 39.3631 24.0408C38.6548 24.6456 37.2303 26.667 37.0632 27.2081C36.8961 27.8129 36.9518 29.2295 37.8272 29.3409C38.6468 29.4523 38.8697 28.2984 39.8485 28.4655C40.6125 28.6326 40.1191 31.0917 42.9123 31.4179C43.2386 31.4179 43.6206 31.4179 44.0026 31.3622C44.0026 31.2508 44.0026 31.1474 44.0026 31.0917C44.0742 30.6699 44.1299 30.2401 44.1777 29.8502Z" fill="#E8C349"/>
<path fill-rule="evenodd" clip-rule="evenodd" d="M86.3363 29.1418C85.9543 29.1975 85.8429 28.537 85.8986 28.0515C85.9543 27.5581 86.6069 26.7385 85.1347 26.4679C83.6624 26.1416 82.1265 28.3778 81.474 28.1629C80.7657 27.9481 81.856 26.1416 80.9806 26.0859C80.1609 26.0302 78.5772 26.9613 77.7576 27.5661C76.8822 28.1152 74.2003 29.2612 73.4921 29.094C72.8395 28.9269 72.943 28.0515 72.943 27.781C72.943 27.4547 73.1101 27.9958 73.1578 27.0727C73.2135 26.1416 72.2267 25.9824 71.7333 25.871C71.3513 25.8153 70.9137 25.3776 70.7465 26.0859C70.6351 26.5236 70.5794 26.635 70.3645 26.8499C70.1497 27.0647 68.9401 27.9958 68.1204 28.5449C67.3007 29.1497 65.1679 30.1843 64.2369 29.9137C63.3058 29.6989 62.9795 28.9826 63.5843 27.6696C64.2369 26.3565 62.9317 26.1973 61.6187 27.6696C61.0696 28.2187 59.5416 28.6006 58.2842 29.1975C57.4089 29.5795 56.5892 29.1975 57.6794 28.3221C58.0057 28.0515 58.7697 27.1762 59.1039 26.7942C59.3745 26.4122 59.4302 25.7039 58.7776 25.4811C58.1728 25.2662 58.0694 25.4811 57.6874 25.8074C57.2497 26.1337 56.7563 26.0779 56.3186 26.0779C55.9366 26.0779 52.9285 26.1337 52.1645 26.1337C51.4562 26.1337 51.512 25.4811 51.512 25.2583C51.512 24.9877 52.0054 24.3272 51.512 22.9106C50.9629 21.4862 51.9496 21.5976 52.4988 21.2156C53.1036 20.8893 54.4087 20.3959 54.5201 18.5894C54.6315 16.8387 53.6447 15.1993 52.3316 15.1436C52.3316 15.0879 52.3316 15.1436 52.3316 15.0879C51.7268 15.6927 51.13 16.2896 50.5809 16.8944C50.9071 16.6795 51.1857 16.5681 51.4562 16.5681C51.9496 16.5681 52.443 16.7352 52.3873 18.5337C52.3316 20.3959 49.8169 20.3959 48.7266 20.3959C48.4561 20.3959 48.1218 20.3402 47.907 20.3402C47.525 20.945 47.143 21.5419 46.8167 22.1467C47.6364 22.2024 48.4561 22.1467 49.0052 22.2024C49.61 22.6401 50.4297 23.2449 50.3182 24.0089C50.1511 24.7171 49.7134 25.5368 49.3872 25.9188C48.5675 25.9745 46.6018 25.4811 45.5036 25.4254C45.4479 25.4254 45.3922 25.4254 45.3365 25.4254C45.1694 25.7517 45.0659 26.1336 44.9545 26.5156C45.9413 26.5713 47.143 26.6828 47.6364 26.7862C48.7266 27.0011 48.4561 26.9533 47.7478 27.773C47.143 28.3778 45.5036 29.3567 44.1906 29.8501C44.1349 30.232 44.0791 30.6697 44.0234 31.1074C44.0234 31.1631 44.0234 31.2745 44.0234 31.378C45.2251 31.1631 46.5382 30.5026 47.3022 30.0649C48.3447 29.4124 50.5252 27.8765 51.13 26.8976C52.3873 26.7862 53.8118 26.9533 54.5758 27.009C55.3398 27.0647 56.82 26.7385 56.82 27.2239C56.82 27.773 54.5201 29.6272 54.5201 29.8501C54.5201 30.1206 54.5201 30.7811 55.6661 30.8369C57.4168 30.9483 59.5496 28.8155 60.8069 28.8712C62.6134 28.9269 59.7644 30.8926 64.1971 30.8926C68.574 30.8926 70.3725 27.2319 71.3036 27.2876C72.9987 27.399 70.2133 29.858 72.7838 30.0251C75.6805 30.1365 78.8001 27.3433 79.3969 27.4547C80.0495 27.6218 79.5083 28.5449 79.2855 29.0383C79.0706 29.476 79.1741 30.1843 79.9938 30.24C80.7578 30.2957 83.4396 27.7253 83.9887 27.781C84.4821 27.8367 84.315 28.4892 84.315 29.2612C84.315 30.0251 84.9198 30.0251 85.3575 30.1922C85.7952 30.3594 85.9066 30.0251 86.3443 29.7546C86.7183 29.5238 86.6626 29.0861 86.3363 29.1418Z" fill="#E8C349"/>
</g>
<defs>
<clipPath id="clip0_1895_4499">
<rect width="139.863" height="44" fill="white" transform="translate(0.574219)"/>
</clipPath>
</defs>
</svg>
