<svg width="111" height="32" viewBox="0 0 111 32" fill="none" xmlns="http://www.w3.org/2000/svg">
<g clip-path="url(#clip0_1895_4566)">
<mask id="mask0_1895_4566" style="mask-type:luminance" maskUnits="userSpaceOnUse" x="0" y="0" width="111" height="32">
<path d="M110.591 0H0.369141V32H110.591V0Z" fill="white"/>
</mask>
<g mask="url(#mask0_1895_4566)">
<path d="M0.369141 15.8057C0.376729 19.4655 1.6192 23.0155 3.89502 25.8797C6.17084 28.7439 9.34651 30.7544 12.9069 31.585" fill="#E8C349"/>
<path d="M16.1065 32L12.9856 0C9.65918 0.776478 6.65785 2.57315 4.40039 5.13931L14.861 31.9266C15.2705 31.9674 15.6882 31.9818 16.1065 32Z" fill="#E8C349"/>
<path d="M32.7848 13.7539L20.3848 31.5856C23.9455 30.7554 27.1215 28.7451 29.3976 25.8808C31.6736 23.0165 32.9162 19.4664 32.9236 15.8063C32.9194 15.1203 32.8726 14.4352 32.7837 13.755" fill="#E8C349"/>
<path d="M20.311 0L17.1973 32C17.6123 31.9807 18.0239 31.9674 18.4439 31.9266L28.9012 5.13931C26.6426 2.57207 23.6394 0.775282 20.311 0Z" fill="#E8C349"/>
<path d="M47.2334 21.7129C44.3864 21.7206 42.6939 19.6881 42.6939 16.9802C42.6796 14.2542 44.3969 12.1576 47.1541 12.1488C48.1643 12.121 49.1634 12.3655 50.0469 12.8566L50.2298 10.5979C49.2602 10.2484 48.2386 10.0654 47.2081 10.0566C42.679 10.0655 39.8921 12.6326 39.8965 17.1822C39.9213 21.6688 42.9171 23.8183 47.245 23.8133C48.2662 23.7891 49.281 23.6446 50.2684 23.383L50.1521 21.154C49.2286 21.5402 48.2352 21.7309 47.2345 21.714" fill="#E8C349"/>
<path d="M104.011 10.0801H103.88L97.2988 23.6729H99.8339L101.235 20.5215H106.345L107.748 23.6729H110.595L104.011 10.0801ZM101.951 18.9209L103.779 14.8089L105.62 18.9209H101.951Z" fill="#E8C349"/>
<path d="M83.9221 15.6982C82.1943 14.9567 81.2216 14.614 81.2084 13.4913C81.2084 12.5285 82.0439 11.8802 83.3241 11.8802C84.5683 11.8618 85.7816 12.2684 86.7641 13.0328V10.71C85.6822 10.3349 84.5473 10.1354 83.4024 10.1191C80.4925 10.1191 78.5807 11.5492 78.6121 13.8207C78.6016 14.2988 78.6978 14.7733 78.8936 15.2096C79.0894 15.6459 79.38 16.0329 79.7441 16.3426C80.2522 16.8033 80.8557 17.126 82.3068 17.7506C84.3348 18.6273 85.1444 19.1542 85.1472 20.2201C85.1472 21.4223 84.0946 22.2218 82.6578 22.2218C81.2943 22.1513 79.9643 21.7741 78.7664 21.1183V23.5156C79.9552 23.8456 81.1817 24.0201 82.4153 24.0347C85.6878 24.0347 87.7187 22.4811 87.6884 19.8642C87.6702 17.8471 86.5547 16.843 83.9248 15.6976" fill="#E8C349"/>
<path d="M70.1711 10.0566H67.5098V23.6748H75.3636V21.5982H70.1711V10.0566Z" fill="#E8C349"/>
<path d="M94.2063 10.0801H91.5488V23.6635H94.2063V10.0801Z" fill="#E8C349"/>
<path d="M54.7637 23.6755H62.7978V21.5569H57.4917V17.7031H62.3591V15.574H57.4917V12.2085H62.7978V10.0811H54.7637V23.6755Z" fill="#E8C349"/>
</g>
</g>
<defs>
<clipPath id="clip0_1895_4566">
<rect width="110.222" height="32" fill="white" transform="translate(0.369141)"/>
</clipPath>
</defs>
</svg>
