<svg width="164" height="40" viewBox="0 0 164 40" fill="none" xmlns="http://www.w3.org/2000/svg">
<path d="M18.5522 9.99121L7.0957 13.7775L18.5522 11.0279V9.99121Z" fill="#E8C349"/>
<path d="M21.4626 10.8633L7.56836 14.0448L21.4626 11.9526V10.8633Z" fill="#E8C349"/>
<path d="M24.082 12.3164L7.99414 14.2396L24.082 13.4921V12.3164Z" fill="#E8C349"/>
<path d="M15.7824 9.47656V10.4119L6.86133 13.4469L15.7824 9.47656Z" fill="#E8C349"/>
<path d="M14.9108 14.7502V23.0514H7.86788C7.08659 23.0514 6.17383 22.8749 6.17383 21.7518V13.9727C6.60955 14.9042 7.48851 14.7502 7.86788 14.7502H14.9108ZM8.50268 16.4968V21.7405H12.1425V21.0118H9.52062V19.5544H11.996V18.6792H9.52062V17.3683H11.996V16.4931H8.50268V16.4968Z" fill="#E8C349"/>
<path d="M24.5258 23.0512H16.5176V14.75H24.5258V23.0512ZM22.3397 20.8539C21.904 21.0529 21.4533 21.1544 20.9349 21.1544C19.6916 21.1544 19.0906 20.5045 19.0906 19.2086C19.0906 18.0104 19.6803 17.4132 20.9199 17.4132C21.4382 17.4132 21.9002 17.5108 22.336 17.7137V16.8084C21.9002 16.6281 21.4307 16.5455 20.8598 16.5455C18.9967 16.5455 18.0877 17.4319 18.0877 19.2086C18.0877 21.0867 18.9854 22.0258 20.8447 22.0258C21.4119 22.0258 21.8965 21.9357 22.3322 21.7629V20.8576L22.3397 20.8539Z" fill="#E8C349"/>
<path d="M14.9108 24.9451V33.0999H7.86788C7.08659 33.0999 6.17383 32.9384 6.17383 31.8115V24.0361C6.60955 24.9677 7.48851 24.9451 7.86788 24.9451H14.9108ZM12.4354 30.6922C11.9997 30.8912 11.534 30.9927 11.0156 30.9927C9.77229 30.9927 9.16378 30.3428 9.16378 29.0432C9.16378 27.8487 9.76478 27.2477 11.0081 27.2477C11.5264 27.2477 11.9997 27.3491 12.4354 27.552V26.6467C11.9997 26.4702 11.5114 26.38 10.9405 26.38C9.08114 26.38 8.16463 27.2665 8.16463 29.0432C8.16463 30.9213 9.07363 31.8603 10.933 31.8603C11.5039 31.8603 11.9997 31.7739 12.4354 31.5974V30.6884V30.6922Z" fill="#E8C349"/>
<path d="M24.5258 33.1001H16.5176V24.9453H24.5258V33.1001ZM20.7396 26.4027H19.7216V31.6464H20.7396V26.4027Z" fill="#E8C349"/>
<path d="M153.997 33.0625H28.209C28.0475 33.0625 27.916 32.9311 27.916 32.7695C27.916 32.608 28.0475 32.4766 28.209 32.4766H153.997C154.159 32.4766 154.29 32.608 154.29 32.7695C154.29 32.9311 154.159 33.0625 153.997 33.0625Z" fill="#E8C349"/>
<path d="M153.997 15.295H28.209C28.0475 15.295 27.916 15.1635 27.916 15.002C27.916 14.8405 28.0475 14.709 28.209 14.709H153.997C154.159 14.709 154.29 14.8405 154.29 15.002C154.29 15.1635 154.159 15.295 153.997 15.295Z" fill="#E8C349"/>
<path d="M38.0306 25.0467C38.0306 27.308 36.7385 28.4987 34.5035 28.4987C32.2686 28.4987 30.8262 27.4319 30.8262 25.0467V19.3223H32.0207V25.0467C32.0207 26.6281 32.9259 27.4958 34.5073 27.4958C36.0886 27.4958 36.8436 26.6281 36.8436 25.0467V19.3223H38.0381V25.0467H38.0306Z" fill="#E8C349"/>
<path d="M39.9277 19.3223H41.1973L45.9189 26.5906H45.9452V19.3223H47.0758V28.2884H45.7687L41.0847 21.0952H41.0584V28.2884H39.9277V19.3223Z" fill="#E8C349"/>
<path d="M49.0566 19.3223H50.2511V28.2884H49.0566V19.3223Z" fill="#E8C349"/>
<path d="M55.7824 28.2884H54.4264L51.2637 19.3223H52.5558L55.1176 27.0939H55.1438L57.7319 19.3223H58.9752L55.7862 28.2884H55.7824Z" fill="#E8C349"/>
<path d="M59.9238 19.3221H66.1141V20.325H61.1183V23.176H65.776V24.1789H61.1183V27.2815H66.1516V28.2845H59.9238V19.3184V19.3221Z" fill="#E8C349"/>
<path d="M67.5996 19.3221H71.8178C73.5006 19.3221 74.5411 20.2386 74.5411 21.6698C74.5411 22.7478 74.0641 23.6418 72.986 23.9423V23.9686C74.0265 24.1676 74.2406 24.9339 74.3308 25.8129C74.4059 26.6918 74.357 27.6722 74.8566 28.2845H73.5269C73.1889 27.9201 73.3767 26.9548 73.2001 26.0758C73.0762 25.1968 72.8621 24.4569 71.7052 24.4569H68.7941V28.2845H67.5996V19.3184V19.3221ZM71.2769 23.454C72.3925 23.454 73.3504 23.1647 73.3504 21.8576C73.3504 20.9786 72.8733 20.325 71.754 20.325H68.7903V23.4502H71.2769V23.454Z" fill="#E8C349"/>
<path d="M81.3795 21.9474C81.2405 20.6666 80.3879 20.1144 79.1558 20.1144C78.1529 20.1144 77.1463 20.4787 77.1463 21.6469C77.1463 22.7513 78.5774 22.9165 80.0198 23.2433C81.4509 23.5701 82.882 24.0734 82.882 25.8314C82.882 27.7395 81.0114 28.5058 79.3775 28.5058C77.3679 28.5058 75.6738 27.5254 75.6738 25.3431H76.8044C76.8044 26.8493 78.059 27.5029 79.415 27.5029C80.4931 27.5029 81.6875 27.1648 81.6875 25.8727C81.6875 24.5805 80.2564 24.4303 78.8253 24.1148C77.3942 23.7992 75.9518 23.3861 75.9518 21.7408C75.9518 19.9191 77.5707 19.1152 79.2047 19.1152C81.0377 19.1152 82.4313 19.9829 82.5064 21.9512H81.3758L81.3795 21.9474Z" fill="#E8C349"/>
<path d="M84.3848 19.3223H85.5792V28.2884H84.3848V19.3223Z" fill="#E8C349"/>
<path d="M87.5879 19.3221H90.6642C93.4251 19.3221 94.9689 20.7044 94.9689 23.5892C94.9689 26.474 93.6504 28.2845 90.6642 28.2845H87.5879V19.3184V19.3221ZM88.7824 27.2815H90.7657C91.5808 27.2815 93.7781 27.0562 93.7781 23.7545C93.7781 21.6209 92.9856 20.3288 90.7882 20.3288H88.7786V27.2853L88.7824 27.2815Z" fill="#E8C349"/>
<path d="M98.8582 19.3223H100.177L103.681 28.2884H102.363L101.382 25.5876H97.5924L96.5895 28.2884H95.3574L98.862 19.3223H98.8582ZM97.968 24.581H101.007L99.5118 20.4003H99.4855L97.968 24.581Z" fill="#E8C349"/>
<path d="M104.557 19.3221H107.633C110.394 19.3221 111.938 20.7044 111.938 23.5892C111.938 26.474 110.619 28.2845 107.633 28.2845H104.557V19.3184V19.3221ZM105.751 27.2815H107.734C108.55 27.2815 110.747 27.0562 110.747 23.7545C110.747 21.6209 109.954 20.3288 107.757 20.3288H105.747V27.2853L105.751 27.2815Z" fill="#E8C349"/>
<path d="M120.201 19.3223H127.346V21.1929H122.538V22.763H126.932V24.5697H122.538V26.2788H127.473V28.2884H120.205V19.3223H120.201Z" fill="#E8C349"/>
<path d="M134.753 22.526C134.629 21.6207 133.923 21.1437 132.946 21.1437C131.44 21.1437 130.862 22.4734 130.862 23.8068C130.862 25.1403 131.44 26.47 132.946 26.47C134.04 26.47 134.667 25.8427 134.753 24.8135H137.09C136.966 27.1236 135.268 28.4796 132.995 28.4796C130.283 28.4796 128.525 26.4099 128.525 23.8106C128.525 21.2113 130.283 19.1416 132.995 19.1416C134.93 19.1416 137.026 20.3736 137.09 22.5297H134.753V22.526Z" fill="#E8C349"/>
<path d="M144.284 22.526C144.16 21.6207 143.454 21.1437 142.478 21.1437C140.971 21.1437 140.393 22.4734 140.393 23.8068C140.393 25.1403 140.971 26.47 142.478 26.47C143.571 26.47 144.198 25.8427 144.284 24.8135H146.621C146.497 27.1236 144.799 28.4796 142.527 28.4796C139.815 28.4796 138.057 26.4099 138.057 23.8106C138.057 21.2113 139.815 19.1416 142.527 19.1416C144.461 19.1416 146.557 20.3736 146.621 22.5297H144.284V22.526Z" fill="#E8C349"/>
<path d="M147.861 19.3223H150.198V28.2884H147.861V19.3223Z" fill="#E8C349"/>
<path d="M116.745 23.0703H114.916V24.8996H116.745V23.0703Z" fill="#E8C349"/>
</svg>
