<svg width="121" height="40" viewBox="0 0 121 40" fill="none" xmlns="http://www.w3.org/2000/svg">
<g clip-path="url(#clip0_1895_4485)">
<path d="M120.851 9.52273C119.213 0.113786 90.9503 -2.82051 57.725 2.96407C43.7676 5.39431 31.1663 8.98267 21.3553 13.0151C22.8615 13.0511 23.9836 13.3931 24.6617 14.0712C25.1897 14.6052 25.4597 15.3313 25.4597 16.2434V17.1735H22.2014V16.3514C22.2014 15.6673 21.7874 15.2413 21.0613 15.2413C20.4492 15.2413 20.0712 15.5173 19.9512 16.0634C19.9152 16.2134 19.9092 16.4774 19.9632 16.7114C20.3112 18.1396 25.1477 19.0217 25.6758 21.6499C25.7418 21.986 25.8378 22.712 25.6938 23.7502C25.3937 25.8684 23.5275 26.6904 21.1573 26.6904C17.845 26.6904 16.5008 25.1243 16.5008 22.9581V21.932H19.9932V23.2041C19.9932 23.9182 20.5152 24.3142 21.2233 24.3142C21.8954 24.3142 22.2854 24.0442 22.4234 23.4921C22.4894 23.2401 22.5135 22.8621 22.3994 22.574C21.7514 20.9539 17.2329 20.1918 16.6809 17.5755C16.5549 16.9875 16.5489 16.4834 16.6509 15.8474C16.7049 15.5053 16.8129 15.2113 16.9389 14.9413C6.0478 20.0418 -0.318832 25.6403 0.521252 30.4768C2.15942 39.8858 30.4222 42.8201 63.6536 37.0295C78.259 34.4852 91.3883 30.6808 101.385 26.4144C101.241 26.4204 101.103 26.4384 100.953 26.4384C98.6791 26.4384 96.6509 25.5863 96.4348 23.2641C96.3988 22.8381 96.3928 22.664 96.3868 22.424V17.0835C96.3868 16.8555 96.4108 16.4474 96.4408 16.2374C96.7109 13.9932 98.487 13.0631 100.947 13.0631C102.849 13.0631 105.19 13.6091 105.448 16.2374C105.484 16.5674 105.478 16.9215 105.478 17.0355V17.5395H102.183V16.7895C102.183 16.7715 102.177 16.4894 102.141 16.3154C102.087 16.0454 101.859 15.4273 100.923 15.4273C99.9992 15.4273 99.7592 16.0514 99.6992 16.3154C99.6632 16.4654 99.6512 16.6754 99.6512 16.9095V22.718C99.6512 22.9221 99.6572 23.0781 99.6812 23.1921C99.6992 23.2821 99.8612 24.0862 100.941 24.0862C102.009 24.0862 102.177 23.2881 102.189 23.1921C102.219 23.0361 102.219 22.8501 102.219 22.718V20.9179H100.923V18.9797H105.502V22.424C105.502 22.658 105.496 22.8321 105.46 23.2641C105.406 23.8762 105.214 24.3922 104.914 24.8303C115.511 19.8018 121.685 14.2872 120.851 9.52273ZM34.6947 26.1924L33.0265 14.8633H32.9665L31.2563 26.1924H27.74L30.1042 13.3991H35.8348L38.181 26.1924H34.6947ZM51.5924 26.1924L51.5143 15.0853H51.4543L49.3841 26.1924H46.0898L44.0316 15.0853H43.9716L43.8996 26.1924H40.6293L40.9113 13.3991H46.1678L47.698 22.9041H47.77L49.3061 13.3991H54.5567L54.8387 26.1924H51.5924ZM66.9779 23.7141C66.6239 26.1924 64.1996 26.6244 62.4834 26.6244C59.6332 26.6244 57.875 25.4063 57.875 22.9281V21.92H61.3253V23.1801C61.3253 23.8642 61.8054 24.2842 62.5494 24.2842C63.2155 24.2842 63.5996 24.0202 63.7376 23.4681C63.7976 23.2101 63.8276 22.8381 63.7136 22.562C63.0775 20.9719 58.5951 20.1918 58.049 17.6115C57.923 17.0235 57.917 16.5314 58.019 15.9014C58.397 13.5611 60.6413 13.0751 62.4534 13.0751C64.0676 13.0751 65.2437 13.4291 65.9518 14.1312C66.4798 14.6592 66.7439 15.3793 66.7439 16.2794V17.2035H63.5155V16.3874C63.5155 15.6913 63.0835 15.2893 62.3874 15.2893C61.7694 15.2893 61.3973 15.5653 61.2773 16.1054C61.2533 16.2194 61.2293 16.4834 61.2953 16.7474C61.6434 18.1636 66.4378 19.0337 66.9599 21.6379C67.0319 21.968 67.1219 22.682 66.9779 23.7141ZM78.9311 22.556C78.9371 22.7961 78.9131 23.2761 78.9011 23.3961C78.7031 25.5023 77.1969 26.5764 74.4306 26.5764C71.6584 26.5764 70.1462 25.5023 69.9542 23.3961C69.9422 23.2761 69.9182 22.7961 69.9242 22.556V13.3991H73.2245V22.8441C73.2185 23.0541 73.2305 23.2101 73.2545 23.3181C73.2965 23.5281 73.5065 24.2122 74.4366 24.2122C75.3667 24.2122 75.5768 23.5281 75.6188 23.3241C75.6368 23.2161 75.6488 23.0481 75.6488 22.8441V13.3991H78.9371C78.9311 13.3991 78.9311 22.556 78.9311 22.556ZM93.1525 26.0664H88.5561L85.4717 15.9314H85.4177L85.5918 26.0664H82.3874V13.4051H87.1759L90.0262 23.1381H90.0922L89.9242 13.4051H93.1525V26.0664Z" fill="#E8C349"/>
</g>
<defs>
<clipPath id="clip0_1895_4485">
<rect width="120.48" height="40" fill="white" transform="translate(0.451172)"/>
</clipPath>
</defs>
</svg>
