<svg width="156" height="20" viewBox="0 0 156 20" fill="none" xmlns="http://www.w3.org/2000/svg">
<g clip-path="url(#clip0_1895_4512)">
<path d="M141.436 0C140.464 0 139.644 0.822873 139.644 1.81311C139.644 2.83124 140.464 3.62622 141.436 3.62622C142.436 3.62622 143.241 2.77545 143.241 1.81311C143.255 0.794979 142.436 0 141.436 0ZM14.6554 0.850767C10.9613 1.31102 7.39216 1.98047 3.82303 3.0265C3.35085 3.17992 3.0731 3.69596 3.1842 4.15621C3.44806 5.18828 3.57305 5.70432 3.83692 6.75035C3.94802 7.18271 4.39242 7.4198 4.83683 7.26639C8.48928 6.13668 12.1556 5.3696 15.9331 4.81172C16.3636 4.75593 16.5997 4.30962 16.4469 3.84937C16.1136 2.90098 15.9469 2.42678 15.5998 1.47838C15.447 1.07392 15.0581 0.808926 14.6554 0.850767ZM89.9959 0.962343C89.0654 0.962343 87.3017 1.47838 86.4823 2.09205V17.2106H89.9959V0.962343ZM129.548 0.962343C128.645 0.962343 126.854 1.47838 126.034 2.09205V16.5272C127.201 17.0711 129.131 17.4477 131.117 17.4477C135.2 17.4477 137.714 14.9791 137.714 10.6973C137.714 7.64296 136.297 5.21618 132.839 5.21618C131.742 5.21618 130.534 5.69038 129.534 6.55509V0.962343H129.548ZM29.6957 1.53417C28.0014 1.53417 26.5571 1.72943 24.6545 2.00837V17.2106H30.3762C33.487 17.2106 36.2368 15.3696 36.2368 12.622C36.2368 10.53 35.3341 9.23291 33.2232 8.61925C34.598 8.07531 35.3619 7.08508 35.3619 5.60669C35.348 3.01255 32.8343 1.53417 29.6957 1.53417ZM29.6957 4.49093C31.1539 4.49093 31.8344 5.17434 31.8344 6.13668C31.8344 7.15481 31.1817 7.74059 29.7929 7.74059H28.2097V4.61646C28.6958 4.54672 29.2096 4.49093 29.6957 4.49093ZM68.6506 5.17434C64.9842 5.17434 62.1372 7.33612 62.1372 11.4644C62.1372 15.272 64.4843 17.4477 68.0673 17.4477C69.1088 17.4477 70.4421 17.2106 71.7197 16.6946L71.0948 13.8633C70.2337 14.1702 69.5394 14.2817 68.9283 14.2817C66.7202 14.2817 65.8314 13.1241 65.8314 11.2413C65.8314 9.38633 66.7896 8.159 69.1366 8.159C69.5116 8.159 70.1643 8.25662 70.5532 8.3682C71.0809 7.78243 71.5808 6.75035 71.7197 5.56485C70.5948 5.31381 69.6644 5.17434 68.6506 5.17434ZM78.4552 5.17434C74.9 5.17434 72.3863 7.53138 72.3863 11.2971C72.3863 15.0209 74.7611 17.4477 78.4552 17.4477C82.1216 17.4477 84.5241 15.0907 84.5241 11.2971C84.5102 7.62901 82.1493 5.17434 78.4552 5.17434ZM98.0368 5.17434C94.4816 5.17434 91.9679 7.53138 91.9679 11.2971C91.9679 15.0209 94.3427 17.4477 98.0368 17.4477C101.703 17.4477 104.106 15.0907 104.106 11.2971C104.106 7.62901 101.731 5.17434 98.0368 5.17434ZM55.6934 5.20223C53.763 5.20223 51.4021 5.74616 49.93 6.7364L49.9022 17.2106H53.4158V8.38215C53.8602 8.27057 54.3741 8.18689 54.9018 8.18689C56.3183 8.18689 57.1377 8.82845 57.1377 10.0697V17.2106H60.6235V8.82845C60.6235 6.54114 58.3737 5.20223 55.6934 5.20223ZM111.286 5.20223C109.452 5.20223 107.272 5.74616 105.869 6.7364L105.842 17.2106H109.355V8.38215C109.8 8.27057 110.313 8.18689 110.841 8.18689C112.23 8.18689 113.022 8.82845 113.022 10.0697V17.2106H116.48V10.2371C116.48 9.62343 116.382 9.06555 116.202 8.54951C116.716 8.34031 117.341 8.20084 117.993 8.20084C119.382 8.20084 120.174 8.8424 120.174 10.0837V17.2245H123.632V8.82845C123.632 6.56904 121.66 5.20223 119.118 5.20223C117.729 5.20223 116.077 5.71827 114.883 6.4993C113.994 5.69038 112.744 5.20223 111.286 5.20223ZM141.463 5.20223C140.783 5.20223 140.186 5.32775 139.7 5.53696V17.2106H143.213V5.53696C142.713 5.31381 142.144 5.20223 141.463 5.20223ZM42.5279 5.23013C41.0003 5.23013 39.5837 5.60669 38.1394 6.15063L38.4172 7.00139C38.7921 8.03347 39.2365 8.39609 39.792 8.39609C40.0281 8.39609 41.8196 8.08926 42.4862 8.08926C43.7639 8.08926 44.3472 8.46583 44.4166 9.93026C40.5836 10.0418 37.3478 10.8787 37.3478 14.2399C37.3478 16.4714 39.3754 17.4895 41.8057 17.4895C44.5416 17.4895 46.5692 16.9735 47.8191 16.0112V9.79079C47.833 6.4993 45.8748 5.23013 42.5279 5.23013ZM150.129 5.23013C148.602 5.23013 147.185 5.60669 145.741 6.15063L146.019 7.00139C146.394 8.03347 146.838 8.39609 147.393 8.39609C147.63 8.39609 149.421 8.08926 150.088 8.08926C151.365 8.08926 151.949 8.46583 152.018 9.93026C148.185 10.0418 144.949 10.8787 144.949 14.2399C144.949 16.4714 146.977 17.4895 149.407 17.4895C152.143 17.4895 154.171 16.9735 155.421 16.0112V9.79079C155.434 6.4993 153.476 5.23013 150.129 5.23013ZM17.7385 6.61088C11.9612 7.35007 6.33669 8.78661 0.989952 11.1715C0.601098 11.3529 0.365008 11.855 0.448334 12.2873C0.656648 13.4031 0.767749 13.947 0.976064 15.0628C1.07328 15.537 1.50379 15.7601 1.9482 15.537C7.37827 13.0404 13.1 11.4505 18.9745 10.5021C19.3494 10.4463 19.5438 10.0139 19.3911 9.56764C19.0994 8.64714 18.9467 8.18689 18.6411 7.28033C18.5023 6.84798 18.1273 6.56904 17.7385 6.61088ZM131.353 8.18689C133.145 8.18689 134.256 8.96792 134.256 11.1297C134.256 13.0126 133.367 14.6165 131.325 14.6165C130.77 14.6165 130.159 14.5746 129.534 14.477V8.56346C130.062 8.32636 130.631 8.18689 131.353 8.18689ZM78.4552 8.24268C80.0801 8.24268 81.0106 9.37239 81.0106 11.311C81.0106 13.3333 80.0801 14.3933 78.4552 14.3933C76.8581 14.3933 75.8999 13.3333 75.8999 11.311C75.8999 9.37239 76.872 8.24268 78.4552 8.24268ZM98.0368 8.24268C99.6617 8.24268 100.592 9.37239 100.592 11.311C100.592 13.3333 99.6617 14.3933 98.0368 14.3933C96.4397 14.3933 95.4815 13.3333 95.4815 11.311C95.4815 9.37239 96.4536 8.24268 98.0368 8.24268ZM28.2097 10.6834H30.0707C31.6261 10.6834 32.4177 11.1994 32.4177 12.4547C32.4177 13.6123 31.5567 14.2259 30.0429 14.2259H28.2097V10.6834ZM43.7361 12.1757H44.4166V14.198C44.0694 14.5049 43.3195 14.7838 42.4168 14.7838C41.278 14.7838 40.7225 14.477 40.7225 13.6262C40.7225 12.5244 42.1668 12.1757 43.7361 12.1757ZM151.338 12.1757H152.018V14.198C151.671 14.5049 150.921 14.7838 150.018 14.7838C148.879 14.7838 148.324 14.477 148.324 13.6262C148.324 12.5244 149.754 12.1757 151.338 12.1757ZM17.669 12.8033C14.0582 13.5844 10.5308 14.5328 7.03108 15.7462C6.58667 15.9135 6.33669 16.3738 6.46168 16.8061C6.73944 17.8382 6.87831 18.3543 7.15607 19.3863C7.29494 19.8745 7.83656 20.1255 8.33652 19.9303C11.8362 18.675 15.3637 17.5732 18.9606 16.6946C19.3078 16.6109 19.4744 16.2064 19.3494 15.788C19.0717 14.8536 18.9189 14.3933 18.6273 13.4728C18.4884 13.0126 18.0718 12.7197 17.669 12.8033Z" fill="#E8C349"/>
</g>
<defs>
<clipPath id="clip0_1895_4512">
<rect width="155" height="20" fill="white" transform="translate(0.435547)"/>
</clipPath>
</defs>
</svg>
