<svg width="94" height="32" viewBox="0 0 94 32" fill="none" xmlns="http://www.w3.org/2000/svg">
<g clip-path="url(#clip0_1895_4582)">
<path d="M55.6905 7.82227L54.9061 7.82494C50.7567 7.83566 46.8569 10.8083 46.6896 16.6223C46.536 21.9142 49.3553 25.6099 54.1218 25.6099C58.0435 25.6099 59.4175 22.9425 59.4175 22.9425C59.6479 24.7208 60.6297 25.2751 62.6043 25.2751V7.82227H55.6905ZM59.2393 18.1033C59.2393 20.5189 57.8159 22.814 54.7416 22.814C51.9826 22.814 50.0025 21.0117 50.1369 16.6545C50.2576 12.4794 52.3117 10.6449 55.0378 10.6449C55.2489 10.6449 55.4491 10.6396 55.6384 10.6262H59.2393V18.1033Z" fill="#E8C349"/>
<path d="M27.9153 7.6909L27.929 19.8064C27.929 21.5659 26.4344 22.4603 24.4598 22.4603C22.3837 22.4603 21.0069 21.5659 21.0069 19.8064L20.996 10.7385C20.9877 8.1542 19.3285 7.68555 17.875 7.68555V20.5482C17.875 23.7913 20.8671 25.3874 24.3638 25.3874C27.8605 25.3874 31.0665 23.7913 31.0665 20.5482L31.0555 11.1268C31.0555 8.58805 30.0874 7.68822 27.9153 7.68822V7.6909Z" fill="#E8C349"/>
<path d="M35.5613 14.3653V25.1579H38.6851V14.2609C38.6851 11.947 39.9521 10.5518 42.3655 10.5518H43.2925C46.0267 10.5518 46.4683 9.17527 46.4683 7.68359H42.0995C38.2216 7.68359 35.5586 9.87424 35.5586 14.3626L35.5613 14.3653Z" fill="#E8C349"/>
<path d="M9.81406 15.5113L5.98552 14.4856C4.93788 14.2071 3.98075 13.7572 3.98075 12.5012C3.98075 11.2452 4.7843 10.5569 6.48466 10.5569H9.88262C11.3883 10.5569 13.1764 10.0829 13.1764 7.69141L6.78085 7.69676C2.84535 7.70212 0.59375 9.64103 0.59375 12.4208C0.59375 15.0105 2.27216 16.4781 5.27521 17.252L8.60736 18.109C9.98135 18.4706 10.4723 19.3088 10.4723 20.1765C10.4723 21.4807 9.63031 22.268 7.56246 22.2921L1.18339 22.335V25.1576H7.67216C11.6104 25.1576 13.8647 23.0955 13.8647 20.372C13.8647 17.6484 12.7595 16.2933 9.81955 15.5086L9.81406 15.5113Z" fill="#E8C349"/>
<path fill-rule="evenodd" clip-rule="evenodd" d="M80.0636 29.0968C80.102 29.0968 80.1294 29.1289 80.1185 29.1905C79.6714 30.2296 79.1641 31.0143 78.1713 31.5017C76.4353 32.3506 75.522 31.8659 75.4014 31.807C75.3684 31.7909 75.341 31.7507 75.3438 31.7133C75.3492 31.6758 75.3794 31.6409 75.4206 31.6383C76.1775 31.4106 78.4565 30.5858 80.0115 29.1075C80.0225 29.0968 80.0472 29.0941 80.0636 29.0968ZM80.272 26.017C79.0736 26.7133 76.6163 27.7337 74.4689 28.3255C71.9156 29.0352 69.8642 29.378 68.4875 29.1825C67.2863 29.0084 66.6829 28.4621 66.5019 28.2586C66.4772 28.2291 66.4443 28.2023 66.4553 28.1675C66.4608 28.1273 66.4992 28.0899 66.5485 28.0845L67.0175 28.0524C68.0322 27.9827 69.8642 27.9399 71.9979 27.6399C74.4662 27.2864 78.4236 26.6009 80.2391 25.9072C80.2775 25.9153 80.305 25.9447 80.2693 26.017H80.272ZM80.4531 27.0615C80.486 27.0668 80.5161 27.0936 80.5024 27.1579C80.1569 27.6078 79.5809 28.1166 78.835 28.6335C78.0972 29.145 77.2306 29.6378 76.3283 30.0636C75.3712 30.5081 74.532 30.8804 73.6516 31.1053C72.6671 31.3571 71.8059 31.4455 71.0929 31.3624C70.5197 31.2982 70.0452 31.1294 69.6832 30.8482C69.664 30.8295 69.6558 30.8 69.6585 30.7759C69.664 30.7331 69.6997 30.7036 69.749 30.6902C71.9595 30.3421 73.9972 29.8092 75.8868 29.1745C77.7489 28.5478 79.3094 27.8221 80.4558 27.0588L80.4531 27.0615ZM90.2027 18.3739C90.2411 18.3819 90.263 18.4114 90.2411 18.4837C89.3607 19.2068 85.321 22.4901 83.1462 24.2308L83.0694 24.2951C82.4386 24.7584 82.0135 24.8682 81.945 23.8478C81.9258 23.6014 81.8929 23.4006 81.8929 23.4006C81.8545 23.1863 81.9203 23.1917 82.0053 23.1408C82.7129 22.715 84.0704 21.9759 85.151 21.3465C87.0762 20.2244 89.3306 18.8881 90.1999 18.3766L90.2027 18.3739ZM87.2298 22.7525C87.2709 22.7579 87.2929 22.79 87.2737 22.8543C86.4016 23.8371 83.1791 27.2945 81.7228 28.8129C81.572 28.9683 81.4925 28.8959 81.5528 28.7433C81.5528 28.7433 81.8298 28.0684 81.9477 27.5462C82.0218 27.2275 82.0986 26.9731 82.2741 26.8285C84.1664 25.2752 85.9792 23.7327 87.1777 22.7713L87.2298 22.7525ZM91.2119 16.668C91.2393 16.6626 91.2887 16.6573 91.2942 16.684C91.2997 16.7001 91.3381 16.7349 91.275 16.7751C90.8636 17.0349 81.8408 20.6717 81.753 20.7038C81.2566 20.8698 80.7054 20.9555 80.3022 20.2887C80.1349 20.0102 79.9868 19.7852 79.921 19.6808C79.8936 19.6379 79.7949 19.5335 80.0581 19.4692C80.0581 19.4692 82.6032 18.8024 84.863 18.2453C87.4766 17.6053 90.4303 16.8742 91.2092 16.668H91.2119ZM92.1608 15.4066C92.1965 15.4093 92.2239 15.4441 92.2212 15.4762C92.2212 15.5003 92.1965 15.5245 92.1663 15.5271C91.4807 15.6316 78.9337 17.3054 78.8432 17.3187C78.7746 17.3295 78.6979 17.3348 78.6211 17.3375C78.5552 17.3375 78.4812 17.3375 78.4126 17.3268C77.8148 17.2652 77.2361 16.9813 76.715 16.443C76.4462 16.1672 76.2104 15.728 76.1446 15.5512C76.1281 15.5271 76.1281 15.495 76.1473 15.4709C76.1665 15.4388 76.2022 15.4254 76.2296 15.42C76.2296 15.42 80.4448 15.412 83.0968 15.4173C85.0742 15.42 87.1859 15.4227 88.9027 15.4227C90.3946 15.4227 91.5794 15.4227 92.1636 15.4093L92.1608 15.4066ZM92.9753 14.322C93.0083 14.3274 93.0329 14.3541 93.0302 14.389C93.0302 14.4184 92.9973 14.4372 92.9561 14.4372C91.1187 14.3059 74.6143 13.1785 74.6143 13.1785C74.4607 13.1651 74.3373 13.1517 74.1892 13.1062C72.881 12.6991 72.1186 11.7163 71.8142 10.7254C71.8032 10.6852 71.795 10.6504 71.8142 10.6156C71.8334 10.5861 71.8772 10.5647 71.9156 10.5754C71.9184 10.5754 91.371 14.0301 92.9726 14.322H92.9753ZM89.5582 11.194C89.5746 11.2717 89.539 11.2958 89.4759 11.2851C88.7656 10.9289 87.1667 10.1844 85.5623 9.40243C84.2021 8.74096 74.9022 4.46143 74.2714 4.14275L73.1607 3.58571C72.9962 3.50537 72.8481 3.41432 72.7 3.32594C72.2584 3.06617 72.0336 2.87603 71.7922 2.57876C71.5948 2.33774 71.4439 2.02976 71.3205 1.74054C71.0572 1.08709 71.0682 0.230116 71.0846 0.0747891C71.0846 0.0533647 71.0984 0.0212282 71.1313 0.00783792C71.156 -0.00823037 71.1861 -0.0109084 71.2492 0.010516L72.4065 0.701452L73.0291 1.0737L76.4325 3.10366C81.1826 5.99595 87.8304 10.1255 89.5609 11.1887L89.5582 11.194ZM91.5767 13.0633C91.6068 13.074 91.6233 13.1008 91.6205 13.1249C91.6123 13.1571 91.5849 13.1838 91.53 13.1758C91.009 13.0285 89.9065 12.7286 88.5133 12.3563C85.3237 11.502 73.2732 8.34996 73.073 8.29372L73.0181 8.27497C72.2941 8.05537 71.7017 7.70455 71.2465 7.2225C71.1093 7.08592 70.9914 6.93327 70.879 6.76455C70.4758 6.16199 70.3771 5.28359 70.3551 5.12291C70.3551 5.10416 70.3634 5.07203 70.3853 5.0506C70.4073 5.0265 70.4429 5.01847 70.506 5.03186L72.4751 5.78439C77.1511 7.55726 89.5582 12.2653 91.5767 13.0687V13.0633Z" fill="#E8C349"/>
</g>
<defs>
<clipPath id="clip0_1895_4582">
<rect width="92.4444" height="32" fill="white" transform="translate(0.589844)"/>
</clipPath>
</defs>
</svg>
