<svg width="121" height="24" viewBox="0 0 121 24" fill="none" xmlns="http://www.w3.org/2000/svg">
<path d="M34.7761 17.5472C34.1223 18.0234 33.5545 18.4995 32.9179 18.8736C29.8037 20.7102 26.4143 19.7919 24.5734 16.697C24.1948 16.0508 24.2465 15.7447 24.9691 15.4386C27.6703 14.2652 30.3371 13.0239 33.0383 11.8675C33.7437 11.5614 33.8126 11.2383 33.5717 10.5751C32.6254 7.99036 30.7844 6.44289 28.066 6.05178C25.3132 5.64365 22.87 6.35787 21.0463 8.53452C18.9989 10.9833 18.6376 13.8571 19.2053 16.867C19.8763 20.4721 22.7324 23.329 26.0186 23.7711C29.9242 24.2983 33.3308 22.5467 35.0685 19.1627C35.3954 18.5335 35.4299 18.0064 34.7761 17.5472ZM23.4378 9.55483C23.7475 8.63655 24.3153 7.95635 25.3476 7.82031C26.4143 7.68427 27.223 8.17741 27.6703 9.07868C28.066 9.87792 28.3241 10.7622 28.5822 11.6294C28.6338 11.7825 28.4617 12.1396 28.3069 12.2246C26.7928 12.9899 25.2444 13.7381 23.5927 14.5203C23.0937 12.7688 22.9045 11.1703 23.4378 9.55483ZM83.0023 22.1726C81.4882 22.0196 81.1958 21.6965 81.1613 20.234C81.1441 19.8599 81.1613 19.5028 81.1613 19.1287C81.1441 16.5439 81.1958 13.9762 81.0753 11.3914C80.9549 8.8066 79.2344 6.73198 76.688 6.15381C75.518 5.89873 74.2448 5.86472 73.0405 6.00076C70.9242 6.25584 69.0833 7.22513 67.4832 8.70457C67.7413 9.04467 67.9649 9.33376 68.2058 9.63985C69.5478 8.84061 70.9242 8.39848 72.4211 8.48351C74.3653 8.58554 75.7933 9.72488 76.103 11.4594C76.2062 12.0546 76.103 12.3437 75.3976 12.4967C73.5738 12.8708 71.7501 13.2619 69.9951 13.8571C66.967 14.8944 65.7282 17.5472 66.7262 20.5401C67.3455 22.3597 68.6703 23.482 70.5801 23.7711C72.6103 24.0942 74.4685 23.7371 75.7933 21.9686C75.8965 21.8325 76.0342 21.6965 76.2406 21.4754C76.774 22.9378 77.8407 23.6861 79.2516 23.7371C80.2667 23.7711 81.2818 23.567 82.2969 23.431C83.0539 23.329 83.2432 22.8868 83.0023 22.1726ZM76.0514 19.4688C75.9826 20.8292 74.1072 21.4244 72.7996 20.4891C72.3695 20.183 71.991 19.6559 71.8017 19.1627C70.907 16.765 71.7673 15.0305 74.2104 14.2652C74.7782 14.0782 75.3632 13.9591 76.0686 13.7891C76.0686 15.7957 76.1374 17.6322 76.0514 19.4688ZM120.905 22.1896C119.34 21.9686 119.082 21.6795 119.064 20.081C119.064 17.4112 119.099 14.7584 119.047 12.0886C118.996 9.33376 117.568 7.20812 115.262 6.32386C112.2 5.16751 107.657 6.27284 105.421 8.75559C105.627 9.02767 105.851 9.31676 106.057 9.60584C108.26 8.61955 109.068 8.41549 110.359 8.48351C112.354 8.60254 113.748 9.7929 114.023 11.5784C114.109 12.1736 113.937 12.3437 113.352 12.4797C111.546 12.8708 109.722 13.2789 107.95 13.8401C106.47 14.2993 105.197 15.1835 104.681 16.748C104.027 18.7546 104.216 20.7102 105.713 22.3087C107.227 23.9411 109.154 24.1792 111.253 23.6691C112.475 23.363 113.352 22.6147 114.127 21.4074C114.712 22.9719 115.778 23.7201 117.223 23.7711C118.187 23.8051 119.15 23.601 120.114 23.482C120.837 23.38 121.181 23.0059 120.905 22.1896ZM113.937 19.6389C113.851 20.9142 111.924 21.3224 110.634 20.4721C109.223 19.5538 108.741 15.5916 111.03 14.7074C111.959 14.3503 112.905 14.0612 113.972 13.6871C113.972 15.8127 114.058 17.7343 113.937 19.6389ZM101.498 19.8259C101.498 17.1561 101.515 14.5033 101.498 11.8335C101.464 8.51751 99.7258 6.40888 96.6632 6.06878C94.547 5.83071 92.8093 6.64695 91.4329 8.26244C91.2436 8.48351 91.0543 8.70457 90.8651 8.90863C90.693 8.21142 90.6586 7.58223 90.693 6.97005C90.7102 6.49391 90.521 6.25584 90.0392 6.35787C88.0606 6.74898 86.082 7.15711 84.1551 7.54822C83.897 8.39848 84.1034 8.89163 84.9293 8.97665C85.6519 9.04467 85.824 9.4528 85.8068 10.133C85.7723 13.415 85.7895 16.697 85.7895 19.996C85.7895 21.8325 85.7895 21.8325 84.0518 22.3597C84.0002 22.3767 83.9658 22.4277 83.9658 22.4447V23.431H92.8437V22.4107C91.1232 21.9175 91.0027 21.8155 90.9855 20.6762C90.9683 17.4792 90.9683 14.2652 90.9855 11.0683C90.9855 10.8132 91.0715 10.4391 91.2436 10.3371C92.3447 9.69087 93.4975 9.09569 94.8051 9.60584C96.0611 10.082 96.3536 11.2553 96.3708 12.3947C96.4396 15.2345 96.4052 18.0574 96.388 20.8972C96.388 21.5774 96.0439 22.0196 95.3557 22.1726C95.0804 22.2406 94.8051 22.3087 94.5298 22.3937V23.431H103.39V22.3937C101.636 21.8325 101.498 21.6455 101.498 19.8259ZM17.2439 15.0645C16.6762 12.9729 15.1621 11.6294 13.3556 10.6261C11.6866 9.69087 9.91451 8.92564 8.2284 8.04137C7.52298 7.66726 6.81757 7.25914 6.267 6.71497C4.75294 5.21853 5.38954 3.10989 7.45416 2.56573C10.0177 1.88552 13.1835 3.1439 14.3879 5.4736C14.8524 6.35787 15.3858 6.37487 16.1772 6.20482V0.116994C15.2137 -0.206103 14.818 0.151004 14.7148 1.05227C14.6632 1.51141 14.4739 1.95355 14.3535 2.42969C11.0329 0.151004 9.58761 -0.274123 6.50788 0.202019C4.25399 0.559127 2.37862 1.56243 1.27749 3.65406C-0.391419 6.83401 0.6581 10.3881 3.9443 12.4117C5.52718 13.381 7.2477 14.0952 8.8822 14.9624C9.74246 15.4216 10.6199 15.8637 11.3425 16.4929C12.9254 17.8873 12.5297 20.251 10.5511 20.9823C9.58761 21.3394 8.40045 21.4584 7.36814 21.3394C4.80456 21.0163 2.86037 19.6048 1.60439 17.3602C1.27749 16.765 0.795742 16.867 0.365611 16.9691C0.193559 17.0031 0.0215065 17.4792 0.0215065 17.7683C-0.0129039 19.3838 0.00430131 20.9993 0.00430131 22.6147C0.00430131 22.9378 0.055917 23.2609 0.0731222 23.499C1.07103 23.8731 1.36351 23.448 1.48395 22.6488C1.56998 22.0536 1.79364 21.4584 1.9829 20.7952C2.18936 20.9653 2.32701 21.0503 2.44744 21.1693C5.13146 23.7881 8.34883 24.5363 11.9447 23.6351C16.0912 22.5467 18.2935 18.9757 17.2439 15.0645ZM65.5906 22.8018C65.5906 22.6318 65.539 22.4787 65.5218 22.3427C63.6636 21.8665 63.6636 21.8665 63.6636 19.979C63.6636 17.2071 63.6808 14.4183 63.6636 11.6465C63.6292 8.50051 61.8227 6.39188 58.8118 6.06878C57.0568 5.88172 55.4567 6.40888 54.0975 7.51421C53.5642 7.93934 53.0996 8.43249 52.4802 9.01066C51.4479 6.86802 49.7446 5.94974 47.5079 6.03477C45.3057 6.10279 43.6539 7.24213 42.3636 8.97665C42.3119 8.92564 42.2431 8.87462 42.1915 8.84061V6.40888C41.985 6.37487 41.8646 6.32386 41.7614 6.34086C39.8344 6.71497 37.8902 7.08909 35.9632 7.51421C35.7912 7.54822 35.6019 7.92234 35.6019 8.1264C35.6019 8.34746 35.774 8.63655 35.946 8.77259C36.1697 8.92564 36.531 8.89163 36.7375 9.04467C36.9783 9.21472 37.2708 9.50381 37.2708 9.74188C37.3052 13.449 37.288 17.1731 37.288 20.8802C37.288 21.5774 36.9439 22.0196 36.2557 22.1216C35.4471 22.2406 35.2922 22.6658 35.5675 23.397H44.2389C44.2905 22.8698 44.5314 22.3767 43.74 22.1726C42.5356 21.8665 42.3808 21.6114 42.3808 20.3871C42.3808 17.5812 42.3808 14.7754 42.3808 11.9696C42.3808 10.269 42.3808 10.269 44.0153 9.69087C44.1013 9.65686 44.1701 9.63985 44.2561 9.62285C46.2691 9.01066 47.766 9.87792 47.8864 11.9696C48.0413 14.5203 47.9897 17.0711 48.0069 19.6218C48.0241 21.7135 48.0069 21.7135 46.1143 22.4107V23.414H54.7857V22.3937C53.0824 21.7815 52.9448 22.1896 52.962 19.8089C52.9792 16.833 52.9448 13.8571 52.9448 10.8812C52.9448 10.6772 53.0136 10.3881 53.1512 10.3031C54.304 9.65686 55.5084 9.02767 56.8848 9.58884C58.1408 10.099 58.5021 11.2553 58.5365 12.4457C58.6053 15.2515 58.5709 18.0574 58.5537 20.8632C58.5537 21.5434 58.1924 21.9686 57.5214 22.1386C57.2461 22.2066 56.988 22.2746 56.7127 22.3427V23.38H65.5734C65.5734 23.1419 65.5906 22.9719 65.5906 22.8018Z" fill="#E8C349"/>
</svg>
