<svg width="98" height="32" viewBox="0 0 98 32" fill="none" xmlns="http://www.w3.org/2000/svg">
<g clip-path="url(#clip0_1895_4515)">
<path d="M3.32692 13.1882C6.06784 7.96165 10.9019 2.28887 16.5817 0.398946C17.7272 0.0515103 19.3226 -0.248003 20.3182 0.548702C21.2659 1.24657 21.3648 2.39071 21.1639 3.48393C20.915 4.72691 20.0663 6.32033 18.6239 6.56892C18.3843 6.57083 18.1528 6.482 17.9761 6.32032C17.6283 5.97288 17.6283 5.42178 17.7272 4.97551C17.9252 3.98112 18.8728 2.87891 19.9194 2.73515C20.1173 2.58539 20.0184 2.43563 19.9704 2.23795C19.9151 2.11956 19.8315 2.01661 19.7269 1.93824C19.6222 1.85987 19.4999 1.8085 19.3706 1.78868C18.2251 1.63893 17.3764 2.38771 16.5307 2.98674C13.232 5.72429 10.851 9.15671 8.80876 12.6401C7.16541 15.776 5.71998 18.9598 5.32114 22.5929C5.12321 25.2316 5.96888 27.8194 8.25997 29.0624C10.752 30.4072 13.9907 29.5116 16.4827 28.8138L18.7738 28.068L23.1581 26.7232C27.3565 25.4802 32.5744 25.1807 36.7098 26.8729C39.2018 27.9182 41.7418 29.3619 43.3372 31.8508C43.3372 31.9017 43.3372 32.0006 43.2382 32.0006C39.6996 31.0062 35.1174 30.0598 31.6778 31.752L31.4798 31.7011C30.4332 29.9579 28.64 29.0055 26.7957 28.664C20.867 28.065 16.0329 30.9044 10.5031 31.6592C7.71419 31.9077 4.67339 31.8568 2.73015 29.6194C-0.310652 26.4356 0.0881914 20.8617 1.53062 17.0788C2.08541 15.7759 2.68518 14.4341 3.32692 13.1882Z" fill="#E8C349"/>
<path d="M11.2475 14.7295C12.7469 11.9441 14.984 8.50866 18.1238 7.46335C18.5309 7.34473 18.9603 7.32358 19.3771 7.40164C19.7939 7.47969 20.1864 7.65476 20.5228 7.91262C21.8693 9.30536 21.3205 11.6955 20.8707 13.3368C20.8801 13.3915 20.9031 13.443 20.9377 13.4865C20.9723 13.53 21.0173 13.564 21.0686 13.5854C22.2682 13.5345 23.2098 12.9864 24.1094 12.0878C25.9537 9.94932 27.9449 7.10993 30.9857 7.46036C31.2895 7.49619 31.5799 7.60549 31.8317 7.77877C32.0836 7.95205 32.2894 8.18408 32.4312 8.45474C33.1779 10.0482 32.4312 11.7494 31.3846 13.0343C30.9857 13.4327 30.4849 13.7322 29.8852 13.5315C29.6587 13.4144 29.482 13.2199 29.3874 12.9834C29.1385 11.8872 29.7862 10.8449 30.6319 10.2878C30.8808 10.0392 31.6275 10.1889 31.4296 9.64081C31.2796 9.39222 31.0307 9.39222 30.7818 9.3413C29.2824 9.98825 28.3408 11.5307 27.4831 12.8246C26.391 14.5547 25.5519 16.4316 24.9911 18.3986C24.8411 19.0965 24.6432 20.0399 25.0421 20.6869C25.1819 20.8899 25.383 21.0429 25.616 21.1237C25.8491 21.2045 26.1019 21.2089 26.3376 21.1361C27.783 20.5371 29.0785 19.339 30.173 18.0511C32.713 14.8673 34.0715 10.9856 37.4962 8.39783C38.5937 7.65205 40.0362 7.05302 41.3316 7.75088C41.5805 7.84972 41.6795 8.09832 41.9794 8.0504C42.2283 7.8018 42.3273 7.40345 42.7261 7.50229C43.6737 7.50229 44.7683 7.45137 45.7249 7.5532L45.7759 7.65205L45.527 8.34991L40.2461 19.4978C40.2075 19.6269 40.1902 19.7615 40.1951 19.8962C40.2365 19.9603 40.3008 20.0062 40.3749 20.0245C40.449 20.0429 40.5274 20.0323 40.5939 19.995C41.3406 19.5457 41.9404 18.7011 42.4862 18.0032C42.9631 17.3512 43.3654 16.648 43.6857 15.9066C43.8357 15.658 43.9856 15.4574 44.2855 15.5083C44.5854 15.5592 44.9842 15.4094 45.1851 15.658C44.8168 16.5763 44.3661 17.4595 43.8387 18.2967C42.3932 20.585 40.501 23.2747 37.859 23.9216C37.4092 23.9725 36.8634 24.0204 36.5635 23.673C36.0657 23.2747 36.0147 22.6277 35.8648 22.0317C35.8338 21.9984 35.7931 21.9756 35.7485 21.9665C35.7039 21.9574 35.6575 21.9623 35.6159 21.9808C34.4703 23.077 33.3248 24.0774 31.7804 23.8707C31.5234 23.8094 31.285 23.6869 31.0856 23.5138C30.8861 23.3407 30.7315 23.122 30.6349 22.8763C30.236 22.0317 30.386 21.0343 30.386 20.0908C30.335 19.992 30.188 20.0399 30.1371 20.0399C28.4427 21.837 26.5385 23.3735 24.2564 23.8228C23.7587 23.9092 23.2469 23.8628 22.773 23.6882C22.299 23.5135 21.8797 23.2169 21.5574 22.8284C19.8631 20.4892 21.2096 17.4551 22.1062 15.2148C22.123 15.1894 22.1338 15.1607 22.1379 15.1306C22.1419 15.1005 22.1391 15.0698 22.1295 15.041C22.12 15.0122 22.1041 14.9859 22.0829 14.9641C22.0617 14.9423 22.0358 14.9256 22.0073 14.9152C21.3595 14.9662 20.8077 15.065 20.208 15.1638L19.9591 15.4124C18.5646 18.0512 17.0682 20.8875 14.5792 22.9272C13.5326 23.7239 12.0392 24.2211 10.7917 23.5263C9.54716 22.6277 9.39722 21.0373 9.59215 19.5457C9.95604 17.8819 10.5115 16.2658 11.2475 14.7295ZM15.2329 14.6307C14.5342 16.1732 13.7335 17.7157 13.7335 19.4589C13.8325 19.8063 13.9824 20.2046 14.3813 20.3035C14.7801 20.4023 15.08 20.2047 15.3769 19.9561C16.8223 18.7131 17.8179 17.0208 18.6156 15.3765C18.6666 15.2267 18.8135 15.0291 18.7146 14.8793C17.8201 14.4687 17.0222 13.8748 16.3725 13.1361L16.2225 13.0852C16.1651 13.1055 16.1129 13.1383 16.0699 13.1813C16.0268 13.2243 15.9939 13.2764 15.9736 13.3338L15.2329 14.6307ZM17.4251 11.5457C17.476 12.3424 18.1718 13.0433 18.8705 13.3428C19.0684 13.3937 19.3203 13.5405 19.4703 13.2919C19.705 12.7635 19.8888 12.2139 20.019 11.6506C20.169 10.9048 20.2679 9.90739 19.5692 9.46111C19.4492 9.3918 19.3147 9.35115 19.1764 9.34231C19.038 9.33348 18.8994 9.35671 18.7715 9.41019C18.3679 9.60223 18.0272 9.90498 17.7893 10.2831C17.5514 10.6612 17.4261 11.0991 17.4281 11.5457H17.4251ZM34.8632 17.7666C34.6653 18.4136 34.3654 19.1593 34.6143 19.9051C34.6653 20.0549 34.8632 20.1537 34.9622 20.2046C35.5619 20.2046 35.9578 19.7074 36.3086 19.2103C38.003 16.7722 39.3074 14.1335 40.507 11.4978C40.7049 10.9497 41.0048 10.4016 41.0048 9.75463C41.0048 9.60487 40.8548 9.50603 40.7559 9.45512C40.507 9.30536 40.2581 9.50603 40.0571 9.6528C37.7661 11.4499 36.5695 14.0826 35.373 16.5715L34.8632 17.7666Z" fill="#E8C349"/>
<path d="M45.8666 11.2976C46.2977 10.2756 46.7801 9.27591 47.3121 8.30244C47.561 8.05385 47.9598 8.05385 48.2117 8.00293L50.6108 8.05385L50.7097 8.15269C50.3099 9.15106 49.861 10.1494 49.3632 11.1478C49.2256 11.4066 48.9937 11.6028 48.7155 11.6959C47.7525 11.7457 46.7876 11.7457 45.8246 11.6959C45.7767 11.5072 45.8666 11.3964 45.8666 11.2976Z" fill="#E8C349"/>
<path d="M48.6687 16.3743C50.414 12.7412 52.5042 9.20694 55.494 6.12195C58.3849 3.23465 61.5217 0.847525 65.2612 0.149659C66.2568 -9.7956e-05 67.4533 0.0987425 68.26 0.796608C68.3239 0.877481 68.4091 0.938874 68.5061 0.973814C68.6031 1.00875 68.708 1.01584 68.8088 0.994288C71.5077 -0.10193 75.2863 -0.503274 78.0272 0.895453C79.6225 1.64124 81.068 2.69253 82.6124 3.633C82.8103 3.73184 82.7113 3.93252 82.6124 4.03136C81.7127 5.02574 81.017 5.9722 80.2133 7.02649C80.1144 7.12533 80.0154 7.07741 79.9134 7.02649L75.928 4.24101C74.0837 2.94711 71.8916 2.05157 69.5015 2.44393C69.2526 2.59369 69.3516 2.94113 69.3036 3.1418C69.3546 5.63076 68.458 7.8202 67.2614 9.85988C66.2658 11.2526 65.1622 12.6963 63.5249 13.1545C63.1945 13.2337 62.8481 13.2146 62.5284 13.0996C62.2087 12.9847 61.9297 12.7789 61.7256 12.5076C60.5261 10.6656 61.5757 8.42821 62.4723 6.8348C63.5406 5.00782 64.9688 3.41627 66.6706 2.1564C66.7216 2.10548 66.8206 2.00664 66.7216 1.95872C66.5237 1.76104 66.2718 1.90781 66.0739 1.90781C63.3749 2.80635 61.1918 5.24139 59.1976 7.53267C55.599 11.9625 52.9181 16.7876 51.3737 22.113C50.8759 24.0538 50.2761 27.1388 52.2733 28.5315C54.0726 29.478 55.71 28.283 57.0714 27.0879C59.0589 25.13 60.4181 22.6256 60.9759 19.8936C61.0749 19.0969 61.2758 17.9527 60.5261 17.4555C59.8783 17.156 59.3265 17.7041 58.8827 18.1534C57.8871 19.3964 57.4373 20.9389 57.2394 22.5323C56.7591 22.8923 56.2585 23.2243 55.7399 23.5267C54.7825 24.2179 53.9126 25.0225 53.149 25.9228C53.05 25.9737 53.05 25.8239 52.999 25.773C52.9001 22.7779 53.9467 20.25 55.59 17.9587C56.8855 16.4162 58.5888 15.1223 60.574 15.6195C61.4737 15.8172 62.0195 16.7637 62.2174 17.6113C62.5173 20.4477 61.3717 22.8378 60.1182 25.1261C58.076 28.3608 54.8853 31.5446 50.8519 31.1463C50.0632 31.0763 49.3084 30.794 48.6678 30.3293C48.0272 29.8646 47.5249 29.235 47.2143 28.5076C45.7149 25.4226 46.7165 21.49 47.8141 18.5038L48.6687 16.3743ZM62.3613 11.0969C62.3708 11.2733 62.4265 11.4442 62.5228 11.5924C62.6191 11.7406 62.7526 11.861 62.9101 11.9415C63.5579 12.1392 64.1546 11.642 64.6554 11.2436C66.4547 9.30279 67.6543 7.0145 67.8942 4.42671C67.8942 4.02836 68.0441 3.52817 67.7952 3.22865C67.6453 3.17774 67.4953 3.27957 67.3454 3.37841C66.0731 4.26953 64.9754 5.38624 64.1067 6.67306C63.261 8.01188 62.4693 9.3567 62.3613 11.0969Z" fill="#E8C349"/>
<path d="M64.5089 19.7087C65.9543 17.7169 67.9455 15.5784 70.4375 15.4796C70.7414 15.4713 71.0424 15.54 71.3124 15.6793C71.5825 15.8186 71.8128 16.024 71.9819 16.2763C73.0285 17.8188 72.1798 19.8704 71.784 21.4519C71.733 21.6016 71.835 21.6495 71.9819 21.7005C72.505 21.7859 73.0417 21.7172 73.5263 21.5028L73.7242 21.3051C75.5235 16.1804 78.1595 11.4511 81.2992 6.92845C83.2425 4.34066 85.7975 1.60311 88.6734 0.360131C89.3721 0.162452 90.3677 -0.187978 91.0154 0.360131C91.7621 1.00708 91.5642 2.00147 91.3633 2.79817C91.2643 3.49604 90.4636 3.59487 89.9688 3.74463C89.9179 3.74463 89.9179 3.74463 89.8699 3.69371C89.8699 3.24444 90.1188 2.84909 90.2178 2.3489C90.2756 2.1338 90.2576 1.90537 90.1668 1.70195C90.0168 1.50427 89.7679 1.55219 89.567 1.60311C88.5714 2.1003 87.7677 2.99585 87.027 3.84347C84.2381 7.17705 82.1929 10.7622 80.2497 14.4942C79.6019 15.7881 79.0051 17.031 78.4504 18.3878C78.4504 18.4867 78.4504 18.5376 78.5493 18.5855C78.9992 18.5855 79.2481 18.1362 79.5959 17.9386C82.0879 15.6503 84.0942 13.0625 85.9744 10.4238C86.4017 10.2539 86.8628 10.1862 87.3209 10.2261L87.4198 10.277C87.3689 10.6245 87.072 10.924 86.922 11.2235C84.8229 14.2186 82.4868 17.1449 79.5989 19.7327L77.4997 21.4249C77.0499 21.8232 77.0499 22.4193 76.852 22.9225C76.4532 24.2673 76.0543 25.6181 76.0063 27.0528C76.008 27.1756 76.0356 27.2967 76.0873 27.4081C76.1389 27.5196 76.2136 27.6189 76.3062 27.6997C76.855 27.8974 77.3018 27.4511 77.7007 27.0528C80.4896 23.7581 81.7371 19.7866 85.1737 16.8513C86.2713 15.9528 87.8157 15.21 89.2101 15.8569C89.459 15.9558 89.66 16.3062 89.9569 16.1055C90.1548 15.9558 90.1548 15.6084 90.5056 15.6084C91.5522 15.6084 92.6048 15.5574 93.5944 15.6593C93.6934 15.7581 93.6454 15.8569 93.5944 15.9588L92.8957 17.4024L88.5594 26.1123C88.3154 26.4864 88.1615 26.9118 88.1096 27.3553C88.1606 27.5529 88.3585 27.5529 88.5594 27.5529C89.3329 27.062 89.9808 26.3974 90.4516 25.6121C91.0004 24.8663 91.3993 24.0696 91.8971 23.3238C92.1995 23.2065 92.5315 23.1887 92.8447 23.2729C93.0426 23.4706 92.7937 23.6713 92.7458 23.8719C91.5012 26.5106 89.7049 29.3949 86.967 30.7907C86.3193 31.0902 85.4676 31.4376 84.7239 30.9883C84.1241 30.59 84.2261 29.8921 83.9772 29.347C83.9262 29.2482 83.7793 29.2961 83.7793 29.2961C82.6337 30.3414 81.4372 31.4856 79.7939 31.0393C78.7982 30.59 78.6963 29.4459 78.5943 28.4515C78.5433 28.4006 78.5433 28.3017 78.4954 28.3017L78.3454 28.3526C77.2478 29.6975 75.8054 31.3897 73.9611 31.24C73.2624 31.189 72.6147 30.4942 72.4167 29.8472C71.769 27.7506 72.4677 25.4683 72.9146 23.4286C72.9117 23.3771 72.8899 23.3285 72.8534 23.292C72.8169 23.2556 72.7682 23.2338 72.7166 23.231H71.1722L70.9233 23.5305C69.7778 25.8188 68.4823 28.0232 66.4881 29.949C65.4415 30.8955 64.146 31.6413 62.7006 31.2429C61.5011 30.6948 61.2012 29.4009 61.2012 28.2059C61.4201 24.8334 62.8175 22.2456 64.5089 19.7087ZM64.9587 26.6754C65.0097 27.1246 65.1566 27.5739 65.6064 27.7207C65.9146 27.7738 66.2318 27.721 66.5061 27.5709C67.9515 26.4747 68.8482 24.7854 69.6458 23.2399C69.7448 23.0902 69.7958 22.8416 69.5949 22.7428C68.8067 22.2977 68.0867 21.7419 67.4567 21.0924C67.421 21.0496 67.3712 21.021 67.3162 21.0116C67.2612 21.0023 67.2047 21.0129 67.1568 21.0415C66.6282 21.7841 66.1931 22.5889 65.8613 23.4376C65.4565 24.435 64.9587 25.4803 64.9587 26.6754ZM68.6562 19.4601C68.691 19.8618 68.8411 20.2451 69.0884 20.5638C69.3357 20.8826 69.6698 21.1233 70.0507 21.2572C70.2006 21.3081 70.4495 21.4069 70.5485 21.2063C70.9983 20.2119 71.3941 19.0677 71.1962 17.8727C71.1469 17.7291 71.068 17.5973 70.9648 17.4859C70.8615 17.3745 70.736 17.2859 70.5965 17.2257C70.461 17.1865 70.3183 17.1796 70.1797 17.2056C70.0412 17.2317 69.9107 17.2898 69.7988 17.3755C69.4513 17.6022 69.1652 17.9111 68.9659 18.2747C68.7666 18.6384 68.6602 19.0455 68.6562 19.4601ZM82.7087 26.3789C82.6577 26.7263 82.5588 27.2235 82.9066 27.4751C82.9844 27.5509 83.0837 27.6011 83.1909 27.6187C83.2982 27.6364 83.4083 27.6208 83.5064 27.5739C84.2531 27.1756 84.7509 26.3759 85.2007 25.684C86.6837 23.2694 87.9347 20.7201 88.9372 18.0703C88.9882 17.8727 89.0362 17.5222 88.7873 17.3725C88.1396 17.073 87.6897 17.7708 87.2429 18.0703C85.2007 20.0621 84.1032 22.599 83.1075 25.037L82.7087 26.3789Z" fill="#E8C349"/>
<path d="M86.1878 7.16742L87.5342 5.37034L87.7321 5.17266C91.5676 5.07382 94.6084 2.77655 97.2984 -0.00292969C97.2627 0.377066 97.1613 0.74799 96.9985 1.09329C95.1992 5.37334 90.9199 9.10527 86.2357 9.20411H85.1532C84.9552 9.15319 85.1022 8.95551 85.1532 8.85667L86.1878 7.16742Z" fill="#E8C349"/>
</g>
<defs>
<clipPath id="clip0_1895_4515">
<rect width="96.8649" height="32" fill="white" transform="translate(0.435547)"/>
</clipPath>
</defs>
</svg>
