<svg width="155" height="36" viewBox="0 0 155 36" fill="none" xmlns="http://www.w3.org/2000/svg">
<g clip-path="url(#clip0_1895_4487)">
<path d="M126.306 0C126.306 0 129.444 13.6067 138.581 24.4812C138.581 24.4812 127.975 24.1449 124.263 16.9396C120.849 10.3197 123.25 3.54911 126.306 0Z" fill="#E8C349"/>
<path d="M142.037 28.1592C145.503 31.4375 149.646 34.22 154.572 35.9279C154.572 35.9279 147.969 36.4739 143.986 34.5629C140.002 32.6518 135.855 29.4303 133.29 29.2119C130.726 28.9935 129.226 28.8515 128.543 28.1592H142.037Z" fill="#E8C349"/>
<path d="M147.94 28.4608C146.329 24.6125 138.578 24.4814 138.578 24.4814C138.578 24.4814 140.678 26.8249 142.036 28.1594C142.036 28.1594 146.768 28.024 147.94 28.4608Z" fill="#E8C349"/>
<path d="M20.1875 11.3574H24.9175L29.2109 22.6425L33.3581 11.3574H38.2322L30.7847 28.9763C30.7847 28.9763 29.9574 28.9763 29.2109 28.9763C28.4644 28.9763 27.3927 28.9042 26.3013 25.9907C25.2078 23.0793 20.1875 11.3574 20.1875 11.3574Z" fill="#E8C349"/>
<path d="M44.3433 11.3574H39.6875V28.9763H44.3433V11.3574Z" fill="#E8C349"/>
<path d="M44.7068 6.40585C44.7068 7.8932 43.502 9.0988 42.0155 9.0988C40.5291 9.0988 39.3242 7.8932 39.3242 6.40585C39.3242 4.9185 40.5291 3.71289 42.0155 3.71289C43.502 3.71289 44.7068 4.9185 44.7068 6.40585Z" fill="#E8C349"/>
<path d="M81.3029 28.9762H76.5009V16.9638C76.5009 16.9638 76.5009 14.415 73.8095 14.9982C71.6181 15.4721 70.0247 16.8175 70.0247 16.8175V28.9762H65.2227V11.3573C65.2227 11.3573 69.4419 10.0469 69.8064 13.0325C69.8064 13.0325 72.4977 10.7764 75.846 10.7764C79.1944 10.7764 81.3029 13.1788 81.3029 15.6534V28.9762Z" fill="#E8C349"/>
<path d="M62.024 25.9353C62.024 25.9353 62.024 18.1993 62.024 16.8168C62.024 14.7791 61.188 10.6643 55.4758 10.7014C50.019 10.7364 47.9825 13.0318 47.9825 13.0318L49.8007 15.9432C49.8007 15.9432 50.6738 14.4864 54.1662 14.4864C57.6585 14.4864 57.222 17.5441 57.222 17.5441C47.6179 17.3978 47.1094 21.4034 47.1094 23.8058C47.1094 26.2083 48.9276 29.1197 52.4942 29.1197C56.0608 29.1197 57.879 27.3724 57.879 27.3724C58.0252 28.9013 59.7714 28.9733 59.7714 28.9733H62.537C62.096 28.9755 62.024 25.9353 62.024 25.9353ZM57.4403 24.4982C57.4403 24.4982 56.2027 25.4089 54.2382 25.4089C52.2737 25.4089 51.6909 24.1356 51.6909 23.1528C51.6909 22.0236 52.3458 20.6782 57.4381 20.9687V24.4982H57.4403Z" fill="#E8C349"/>
<path d="M114.735 25.9353C114.735 25.9353 114.735 18.1993 114.735 16.8168C114.735 14.7791 113.899 10.6643 108.187 10.7014C102.73 10.7364 100.693 13.0318 100.693 13.0318L102.512 15.9432C102.512 15.9432 103.385 14.4864 106.877 14.4864C110.369 14.4864 109.933 17.5441 109.933 17.5441C100.329 17.3978 99.8203 21.4034 99.8203 23.8058C99.8203 26.2083 101.639 29.1197 105.205 29.1197C108.77 29.1197 110.59 27.3724 110.59 27.3724C110.736 28.9013 112.482 28.9733 112.482 28.9733H115.248C114.809 28.9755 114.735 25.9353 114.735 25.9353ZM110.151 24.4982C110.151 24.4982 108.914 25.4089 106.949 25.4089C104.985 25.4089 104.402 24.1356 104.402 23.1528C104.402 22.0236 105.057 20.6782 110.149 20.9687V24.4982H110.151Z" fill="#E8C349"/>
<path d="M97.6744 16.0898C97.6744 16.0898 96.1093 14.4889 93.0186 14.4889C89.5982 14.4889 88.2886 17.8371 88.2886 20.6764C88.2886 23.5156 90.3993 25.4813 93.4551 25.4813C95.747 25.4813 97.5303 24.0988 97.5303 24.0988L98.7679 27.5212C98.7679 27.5212 96.1857 29.3406 92.0735 29.3406C89.2359 29.3406 83.707 27.447 83.707 20.6043C83.707 13.7616 88.2188 10.8087 92.5842 10.848C96.476 10.8852 98.004 12.2306 98.004 12.2306L97.6744 16.0898Z" fill="#E8C349"/>
<path d="M13.8078 4.51465H10.2434L0.929688 28.9762H5.80374L7.7682 22.7888H16.2089L18.6819 28.9762H23.5559L13.8078 4.51465ZM9.3878 18.8727L12.0245 11.508L14.6613 18.8727H9.3878Z" fill="#E8C349"/>
</g>
<defs>
<clipPath id="clip0_1895_4487">
<rect width="153.643" height="36" fill="white" transform="translate(0.929688)"/>
</clipPath>
</defs>
</svg>
