<svg width="98" height="32" fill="none" viewBox="0 0 98 32">
  <g clip-path="url(#a)">
    <path fill="#E8C349" d="M3.327 13.188c2.74-5.226 7.575-10.9 13.255-12.79 1.145-.346 2.74-.646 3.736.15.948.699 1.047 1.843.846 2.936-.249 1.243-1.098 2.836-2.54 3.085a.949.949 0 0 1-.648-.249c-.348-.347-.348-.898-.249-1.344.198-.995 1.146-2.097 2.192-2.24.198-.15.1-.3.051-.498a.795.795 0 0 0-.6-.45c-1.145-.15-1.994.6-2.84 1.199-3.298 2.737-5.679 6.17-7.721 9.653-1.644 3.136-3.089 6.32-3.488 9.953-.198 2.639.648 5.226 2.939 6.47 2.492 1.344 5.73.449 8.223-.25l2.29-.745 4.385-1.345c4.198-1.243 9.416-1.542 13.552.15 2.492 1.045 5.032 2.489 6.627 4.978 0 .05 0 .15-.099.15-3.538-.995-8.12-1.941-11.56-.249l-.198-.05c-1.047-1.744-2.84-2.697-4.684-3.038-5.929-.599-10.763 2.24-16.293 2.995-2.789.249-5.83.198-7.773-2.04-3.04-3.183-2.642-8.757-1.2-12.54.555-1.303 1.155-2.645 1.797-3.89Z"/>
    <path fill="#E8C349" d="M11.248 14.73c1.499-2.786 3.736-6.221 6.876-7.267a2.702 2.702 0 0 1 2.399.45c1.346 1.392.797 3.782.348 5.424a.33.33 0 0 0 .198.248c1.2-.05 2.14-.599 3.04-1.497 1.845-2.139 3.836-4.978 6.877-4.628a1.88 1.88 0 0 1 1.445.995c.747 1.593 0 3.294-1.046 4.58-.4.398-.9.697-1.5.496a1.06 1.06 0 0 1-.498-.548c-.248-1.096.4-2.138 1.245-2.695.249-.249.995-.1.798-.647-.15-.249-.4-.249-.648-.3-1.5.647-2.441 2.19-3.299 3.484a21.47 21.47 0 0 0-2.492 5.574c-.15.697-.348 1.64.051 2.288a1.157 1.157 0 0 0 1.296.45c1.445-.6 2.74-1.798 3.835-3.086 2.54-3.184 3.899-7.065 7.323-9.653 1.098-.746 2.54-1.345 3.836-.647.248.099.347.347.647.3.25-.25.348-.648.747-.549.948 0 2.042-.05 2.999.051l.05.1-.248.697-5.28 11.148c-.04.129-.057.264-.052.398a.3.3 0 0 0 .399.099c.747-.45 1.346-1.294 1.892-1.992a10.82 10.82 0 0 0 1.2-2.096c.15-.249.3-.45.6-.399.3.051.698-.099.9.15a16.414 16.414 0 0 1-1.347 2.639c-1.446 2.288-3.338 4.978-5.98 5.625-.45.05-.996.098-1.296-.249-.497-.398-.548-1.045-.698-1.641a.219.219 0 0 0-.25-.051c-1.145 1.096-2.29 2.096-3.835 1.89a1.64 1.64 0 0 1-1.145-.995c-.399-.844-.249-1.842-.249-2.785-.051-.099-.198-.051-.249-.051-1.694 1.797-3.599 3.334-5.88 3.783a2.87 2.87 0 0 1-2.7-.995c-1.694-2.339-.347-5.373.55-7.613a.202.202 0 0 0-.024-.25.202.202 0 0 0-.076-.05c-.648.051-1.2.15-1.799.249l-.249.248c-1.394 2.64-2.89 5.475-5.38 7.515-1.046.797-2.54 1.294-3.787.6-1.245-.9-1.395-2.49-1.2-3.981a22.1 22.1 0 0 1 1.655-4.816Zm3.985-.1c-.699 1.543-1.5 3.086-1.5 4.829.1.347.25.746.648.845.4.098.699-.1.996-.348 1.445-1.243 2.44-2.935 3.239-4.58.05-.15.198-.347.099-.497a7.018 7.018 0 0 1-2.343-1.743l-.15-.05a.408.408 0 0 0-.248.248l-.741 1.297Zm2.192-3.084c.051.796.747 1.497 1.445 1.797.198.05.45.197.6-.051a9.082 9.082 0 0 0 .549-1.641c.15-.746.249-1.744-.45-2.19a.9.9 0 0 0-.797-.05 2.357 2.357 0 0 0-1.344 2.135h-.003Zm17.438 6.22c-.198.648-.498 1.393-.249 2.14.051.149.25.248.348.299.6 0 .996-.498 1.347-.995 1.694-2.438 2.998-5.077 4.198-7.712.198-.548.498-1.096.498-1.743 0-.15-.15-.249-.25-.3-.248-.15-.497.051-.698.198-2.29 1.797-3.488 4.43-4.684 6.918l-.51 1.196Zm11.004-6.468a32.95 32.95 0 0 1 1.445-2.996c.249-.248.648-.248.9-.3l2.399.052.099.099a40.42 40.42 0 0 1-1.347 2.995c-.137.259-.37.455-.648.548-.963.05-1.927.05-2.89 0-.048-.189.042-.3.042-.398Zm2.802 5.076c1.745-3.633 3.835-7.167 6.825-10.252C58.384 3.235 61.522.848 65.261.15c.996-.15 2.192-.051 2.999.647a.552.552 0 0 0 .549.197c2.699-1.096 6.477-1.497 9.218-.099 1.596.746 3.041 1.798 4.585 2.738.198.099.1.3 0 .398-.9.995-1.595 1.941-2.399 2.995-.099.1-.198.051-.3 0l-3.985-2.785c-1.844-1.294-4.036-2.19-6.427-1.797-.248.15-.15.497-.197.698.05 2.489-.846 4.678-2.043 6.718-.995 1.393-2.099 2.836-3.736 3.295a1.744 1.744 0 0 1-1.8-.647c-1.199-1.842-.15-4.08.747-5.673a15.65 15.65 0 0 1 4.199-4.679c.05-.05.15-.15.05-.197-.197-.198-.45-.051-.647-.051-2.7.898-4.882 3.333-6.876 5.625-3.599 4.43-6.28 9.255-7.824 14.58-.498 1.94-1.098 5.026.9 6.419 1.799.946 3.436-.249 4.797-1.444a14.042 14.042 0 0 0 3.905-7.194c.099-.797.3-1.941-.45-2.438-.648-.3-1.2.248-1.643.697-.996 1.243-1.446 2.786-1.644 4.38-.48.36-.98.691-1.5.994a14.615 14.615 0 0 0-2.59 2.396c-.099.05-.099-.1-.15-.15-.099-2.995.948-5.523 2.591-7.814 1.295-1.543 2.999-2.837 4.984-2.34.9.198 1.446 1.145 1.643 1.992.3 2.837-.845 5.227-2.099 7.515-2.042 3.235-5.233 6.419-9.266 6.02a4.379 4.379 0 0 1-3.638-2.638c-1.5-3.085-.497-7.018.6-10.004l.855-2.13Zm13.692-5.277a1.01 1.01 0 0 0 .55.845c.647.197 1.244-.3 1.744-.698 1.8-1.941 3-4.23 3.24-6.817 0-.399.15-.899-.1-1.198-.15-.051-.3.05-.45.15a12.693 12.693 0 0 0-3.238 3.294c-.846 1.339-1.638 2.684-1.746 4.424Z"/>
    <path fill="#E8C349" d="M64.509 19.709c1.445-1.992 3.436-4.13 5.928-4.23a1.801 1.801 0 0 1 1.545.797c1.046 1.543.198 3.594-.198 5.176-.051.15.051.197.198.248a2.73 2.73 0 0 0 1.544-.197l.198-.198c1.8-5.125 4.435-9.854 7.575-14.377 1.944-2.587 4.498-5.325 7.374-6.568.7-.198 1.695-.548 2.342 0 .747.647.55 1.641.348 2.438-.099.698-.9.797-1.394.947-.051 0-.051 0-.1-.051 0-.45.25-.845.349-1.345a.97.97 0 0 0-.051-.647c-.15-.198-.4-.15-.6-.099-.996.497-1.8 1.393-2.54 2.24-2.789 3.334-4.834 6.92-6.777 10.651-.648 1.294-1.245 2.537-1.8 3.894 0 .099 0 .15.1.197.45 0 .698-.449 1.046-.646 2.492-2.289 4.498-4.877 6.378-7.515.428-.17.889-.238 1.347-.198l.099.051c-.051.348-.348.647-.498.947-2.1 2.995-4.435 5.92-7.323 8.509l-2.1 1.692c-.45.398-.45.994-.647 1.497-.399 1.345-.798 2.696-.846 4.13a.873.873 0 0 0 .3.648c.549.197.996-.249 1.395-.647 2.789-3.295 4.036-7.266 7.473-10.202 1.097-.898 2.642-1.641 4.036-.994.249.099.45.45.747.248.198-.15.198-.497.549-.497 1.046 0 2.099-.05 3.088.051.1.1.051.198 0 .3l-.698 1.443-4.337 8.71a2.89 2.89 0 0 0-.45 1.243c.052.198.25.198.45.198a5.88 5.88 0 0 0 1.893-1.94c.548-.747.947-1.543 1.445-2.29a1.53 1.53 0 0 1 .948-.05c.198.198-.051.398-.1.599-1.244 2.639-3.04 5.523-5.778 6.919-.648.3-1.5.647-2.243.197-.6-.398-.498-1.096-.747-1.641-.05-.099-.198-.05-.198-.05-1.145 1.044-2.342 2.189-3.985 1.742-.996-.449-1.098-1.593-1.2-2.588-.05-.05-.05-.15-.099-.15l-.15.052c-1.097 1.345-2.54 3.037-4.384 2.887-.699-.051-1.346-.746-1.544-1.393-.648-2.096.05-4.379.498-6.418a.21.21 0 0 0-.198-.198h-1.545l-.249.3c-1.145 2.288-2.44 4.492-4.435 6.418-1.046.946-2.342 1.692-3.787 1.294-1.2-.548-1.5-1.842-1.5-3.037.22-3.373 1.617-5.96 3.308-8.497Zm.45 6.966c.05.45.198.899.647 1.046.309.053.626 0 .9-.15 1.445-1.096 2.342-2.786 3.14-4.331.099-.15.15-.398-.051-.497a9.457 9.457 0 0 1-2.138-1.65.234.234 0 0 0-.3-.052 11.104 11.104 0 0 0-1.296 2.397c-.404.997-.902 2.042-.902 3.237Zm3.697-7.215a2.096 2.096 0 0 0 1.395 1.797c.15.051.398.15.498-.05.45-.995.845-2.14.647-3.334a1.09 1.09 0 0 0-.6-.647.901.901 0 0 0-.797.15 2.52 2.52 0 0 0-1.143 2.084Zm14.054 6.92c-.051.347-.15.845.198 1.096a.53.53 0 0 0 .6.099c.746-.398 1.244-1.198 1.694-1.89a44.918 44.918 0 0 0 3.736-7.614c.051-.197.1-.548-.15-.698-.647-.299-1.097.399-1.544.698-2.042 1.992-3.14 4.529-4.135 6.967l-.4 1.342Z"/>
    <path fill="#E8C349" d="m86.188 7.167 1.346-1.797.198-.197c3.836-.1 6.876-2.396 9.566-5.176-.035.38-.137.751-.3 1.096-1.799 4.28-6.078 8.012-10.762 8.111h-1.083c-.198-.05-.05-.248 0-.347l1.035-1.69Z"/>
  </g>
  <defs>
    <clipPath id="a">
      <path fill="#fff" d="M.436 0h96.865v32H.436z"/>
    </clipPath>
  </defs>
</svg>
