<svg width="68" height="39" fill="none" viewBox="0 0 68 39">
  <g clip-path="url(#a)">
    <path fill="#9AD9EF" d="m27.75 5.124-.584-.2a.74.74 0 0 0-.938.453l-1.023 2.94a.73.73 0 0 0 .456.93l.585.2a.74.74 0 0 0 .938-.453l1.023-2.939a.73.73 0 0 0-.457-.93Z"/>
    <path fill="url(#b)" d="m16.074 20.586 10.472-12.81 6.912 30.19-17.384-17.38Z"/>
    <path fill="url(#c)" d="m.715 26.61 25.83-18.834-10.471 12.81L.714 26.61Z"/>
    <path fill="url(#d)" d="m.398 26.182 25.83-18.834.635.855-25.83 18.834-.635-.855Z" opacity=".6"/>
    <path fill="url(#e)" d="M33.457 37.966.715 26.61l15.359-6.024 17.383 17.38Z"/>
    <path fill="url(#f)" d="m.54 27.11.352-1.002 32.743 11.356-.354 1.002L.54 27.11Z" opacity=".6"/>
    <path fill="url(#g)" d="m33.079 38.338-17.135-17.13-15.03 5.895-.394-.988 15.687-6.152L33.839 37.59l-.76.747Z" opacity=".6"/>
    <path fill="#fff" d="M29.907 22.68s-1.824 1.61-4.697-.046c-3.342-1.933-5.304-6.735-5.304-6.735s3.606.128 5.716 1.612c2.153 1.514 4.285 5.17 4.285 5.17Z"/>
    <path fill="#0EA8CC" d="M27.273 20.717c.112 1.607-.768 2.666-2.063 1.918-1.376-.796-2.135-2.968-1.73-4.398.317-1.119 1.265-1.342 2.142-.725.843.593 1.562 1.922 1.651 3.205Z"/>
    <path fill="#9AD9EF" d="M55.508 24.949c-2.187 0-4.26-.44-5.986-1.287-2.362-1.159-3.808-2.939-4.073-5.014-.264-2.075.69-4.156 2.686-5.862 1.92-1.64 4.595-2.745 7.535-3.114 6.168-.774 11.619 1.994 12.151 6.169.265 2.075-.689 4.157-2.685 5.862-1.92 1.64-4.595 2.745-7.535 3.114-.694.088-1.393.132-2.093.132Zm2.26-14.082c-.63 0-1.275.04-1.93.122-2.682.336-5.108 1.332-6.83 2.803-1.646 1.405-2.438 3.07-2.231 4.69.206 1.619 1.392 3.036 3.338 3.99 2.037 1 4.636 1.365 7.318 1.029 2.682-.337 5.107-1.332 6.83-2.803 1.645-1.406 2.437-3.071 2.23-4.69-.386-3.033-4.13-5.141-8.725-5.141ZM27.635 7.264a2.79 2.79 0 0 1-.907-.15c-.802-.275-1.428-.886-1.762-1.721-.324-.808-.335-1.732-.031-2.603A3.753 3.753 0 0 1 26.578.76c.783-.452 1.656-.55 2.457-.275 1.625.556 2.43 2.496 1.794 4.323-.52 1.492-1.842 2.456-3.194 2.456Zm.488-5.87a2.01 2.01 0 0 0-1.006.284c-.535.31-.95.827-1.17 1.458-.22.631-.215 1.293.014 1.865.217.543.614.937 1.117 1.109 1.067.365 2.296-.374 2.74-1.648.443-1.274-.064-2.608-1.132-2.974a1.737 1.737 0 0 0-.563-.093Z"/>
    <path fill="#9AD9EF" d="M33.507 8.222c-.309 0-.613-.07-.89-.204l-2.311-1.116a2.016 2.016 0 0 1 .226-3.727 2.04 2.04 0 0 1 1.557.093l2.31 1.115a2.013 2.013 0 0 1 .941 2.701c-.238.486-.652.85-1.167 1.026-.214.074-.44.112-.666.112ZM31.198 3.86a1.25 1.25 0 0 0-.82.308 1.216 1.216 0 0 0-.347 1.317c.107.307.332.559.626.701l2.31 1.116a1.234 1.234 0 0 0 .944.056 1.228 1.228 0 0 0 .83-1.084 1.215 1.215 0 0 0-.693-1.175l-2.31-1.114a1.238 1.238 0 0 0-.54-.125Z"/>
    <path fill="#9AD9EF" d="M36.351 12.39a2.05 2.05 0 0 1-1.882-1.247l-.985-2.354a2.017 2.017 0 0 1 1.1-2.641 2.039 2.039 0 0 1 1.56-.002c.502.207.894.595 1.103 1.093l.986 2.354a2.017 2.017 0 0 1-1.1 2.641 2.047 2.047 0 0 1-.782.156Zm-.986-5.601a1.244 1.244 0 0 0-1.026.545 1.22 1.22 0 0 0-.114 1.15l.986 2.354a1.215 1.215 0 0 0 .669.662 1.238 1.238 0 0 0 1.612-.665 1.21 1.21 0 0 0 0-.937l-.986-2.354a1.216 1.216 0 0 0-.669-.662 1.24 1.24 0 0 0-.472-.093Z"/>
    <path fill="#9AD9EF" d="M37.099 17.566c-.451 0-.89-.149-1.245-.424a2.011 2.011 0 0 1-.773-1.343l-.322-2.53a1.995 1.995 0 0 1 .41-1.491 2.02 2.02 0 0 1 1.355-.767 2.035 2.035 0 0 1 2.277 1.752l.323 2.528a2.026 2.026 0 0 1-2.025 2.275Zm-.316-5.774a1.234 1.234 0 0 0-1.194.901 1.205 1.205 0 0 0-.034.477l.323 2.529c.041.322.21.614.468.813a1.239 1.239 0 0 0 1.731-.217c.201-.256.291-.581.25-.904l-.322-2.528a1.209 1.209 0 0 0-.468-.814 1.23 1.23 0 0 0-.754-.257Z"/>
    <path fill="#9AD9EF" d="M40.572 21.096a2.03 2.03 0 0 1-1.133-.345l-2.132-1.423a2.006 2.006 0 0 1-.862-1.288 1.994 1.994 0 0 1 .309-1.516 2.05 2.05 0 0 1 2.827-.549l2.133 1.424a2.013 2.013 0 0 1-.01 3.36 2.032 2.032 0 0 1-1.132.337Zm-2.126-4.668a1.24 1.24 0 0 0-.735.239 1.223 1.223 0 0 0-.43 1.394c.088.247.254.46.474.606l2.132 1.423a1.233 1.233 0 0 0 .926.186 1.232 1.232 0 0 0 .788-.518 1.218 1.218 0 0 0-.335-1.7l-2.133-1.422a1.235 1.235 0 0 0-.687-.208Z"/>
    <path fill="#9AD9EF" d="M45.498 21.927h-2.57a2.031 2.031 0 0 1-2.037-2.02 2.03 2.03 0 0 1 2.037-2.021h2.57a2.03 2.03 0 0 1 2.037 2.02 2.031 2.031 0 0 1-2.037 2.021Zm-2.57-3.245c-.68 0-1.234.55-1.234 1.224a1.23 1.23 0 0 0 1.234 1.225h2.57c.68 0 1.234-.55 1.234-1.225a1.23 1.23 0 0 0-1.234-1.224h-2.57Z"/>
    <path fill="url(#h)" d="m15.656 20.252 10.472-12.81.832.67L16.488 20.92l-.832-.669Z" opacity=".6"/>
    <path fill="url(#i)" d="m26.023 7.894 1.044-.235 6.912 30.189-1.044.235-6.912-30.19Z" opacity=".6"/>
  </g>
  <defs>
    <linearGradient id="b" x1="36.043" x2="15.8" y1="35.744" y2="5.625" gradientUnits="userSpaceOnUse">
      <stop stop-color="#FA87FF" stop-opacity=".3"/>
      <stop offset=".649" stop-color="#05D8E8"/>
    </linearGradient>
    <linearGradient id="c" x1="33.713" x2="-4.045" y1="8.944" y2="25.15" gradientUnits="userSpaceOnUse">
      <stop offset=".245" stop-color="#FA87FF" stop-opacity=".3"/>
      <stop offset=".649" stop-color="#05D8E8"/>
    </linearGradient>
    <linearGradient id="d" x1="25.868" x2="1.191" y1="8.384" y2="26.441" gradientUnits="userSpaceOnUse">
      <stop stop-color="#FA87FF" stop-opacity="0"/>
      <stop offset=".143" stop-color="#FA87FF"/>
      <stop offset=".564" stop-color="#FA87FF" stop-opacity=".4"/>
      <stop offset=".859" stop-color="#FA87FF"/>
      <stop offset="1" stop-color="#FA87FF" stop-opacity="0"/>
    </linearGradient>
    <linearGradient id="e" x1="15.761" x2="22.23" y1="35.67" y2="18.878" gradientUnits="userSpaceOnUse">
      <stop stop-color="#FA87FF" stop-opacity=".3"/>
      <stop offset=".976" stop-color="#005679"/>
    </linearGradient>
    <linearGradient id="f" x1="1.418" x2="32.252" y1="26.703" y2="37.874" gradientUnits="userSpaceOnUse">
      <stop stop-color="#FA87FF" stop-opacity="0"/>
      <stop offset=".143" stop-color="#FA87FF"/>
      <stop offset=".564" stop-color="#FA87FF" stop-opacity=".4"/>
      <stop offset=".859" stop-color="#FA87FF"/>
      <stop offset="1" stop-color="#FA87FF" stop-opacity="0"/>
    </linearGradient>
    <linearGradient id="g" x1="2.457" x2="33.556" y1="21.532" y2="32.388" gradientUnits="userSpaceOnUse">
      <stop stop-color="#FA87FF" stop-opacity="0"/>
      <stop offset=".143" stop-color="#FA87FF"/>
      <stop offset=".51" stop-color="#05D8E8" stop-opacity=".4"/>
      <stop offset=".859" stop-color="#05D8E8"/>
      <stop offset="1" stop-color="#05D8E8" stop-opacity="0"/>
    </linearGradient>
    <linearGradient id="h" x1="15.656" x2="26.96" y1="14.182" y2="14.182" gradientUnits="userSpaceOnUse">
      <stop stop-color="#05D8E8" stop-opacity="0"/>
      <stop offset=".143" stop-color="#05D8E8"/>
      <stop offset=".51" stop-color="#05D8E8" stop-opacity=".4"/>
      <stop offset=".859" stop-color="#05D8E8"/>
      <stop offset="1" stop-color="#05D8E8" stop-opacity="0"/>
    </linearGradient>
    <linearGradient id="i" x1="33.202" x2="26.811" y1="37.056" y2="8.264" gradientUnits="userSpaceOnUse">
      <stop stop-color="#05D8E8" stop-opacity="0"/>
      <stop offset=".143" stop-color="#05D8E8"/>
      <stop offset=".51" stop-color="#05D8E8" stop-opacity=".4"/>
      <stop offset=".859" stop-color="#05D8E8"/>
      <stop offset="1" stop-color="#05D8E8" stop-opacity="0"/>
    </linearGradient>
    <clipPath id="a">
      <path fill="#fff" d="M.398.333h67.467v38.133H.398z"/>
    </clipPath>
  </defs>
</svg>
