<svg xmlns="http://www.w3.org/2000/svg" width="20" height="20" fill="none" viewBox="0 0 20 20">
  <g class="icons8-youtube 1">
    <path fill="#fff" d="M17.986 5.155a2.088 2.088 0 0 0-1.473-1.474c-1.3-.348-6.512-.348-6.512-.348s-5.211 0-6.511.348a2.088 2.088 0 0 0-1.474 1.474C1.668 6.455 1.668 10 1.668 10s0 3.545.348 4.845a2.088 2.088 0 0 0 1.474 1.473c1.3.348 6.511.348 6.511.348s5.212 0 6.512-.348a2.087 2.087 0 0 0 1.473-1.473c.349-1.3.349-4.845.349-4.845s0-3.545-.349-4.845Zm-9.651 7.731V7.113l5 2.887-5 2.886Z" class="Vector"/>
  </g>
</svg>
