<svg width="24" height="24" viewBox="0 0 24 24" fill="none" xmlns="http://www.w3.org/2000/svg">
<path opacity="0.2" d="M21 12C21 13.78 20.4722 15.5201 19.4832 17.0001C18.4943 18.4802 17.0887 19.6337 15.4442 20.3149C13.7996 20.9961 11.99 21.1743 10.2442 20.8271C8.49836 20.4798 6.89472 19.6226 5.63604 18.364C4.37737 17.1053 3.5202 15.5016 3.17294 13.7558C2.82567 12.01 3.0039 10.2004 3.68509 8.55585C4.36628 6.91131 5.51983 5.50571 6.99987 4.51677C8.47991 3.52784 10.22 3 12 3C14.387 3 16.6761 3.94821 18.364 5.63604C20.0518 7.32387 21 9.61305 21 12Z" fill="#84F3FF"/>
<path d="M12 2.25C9.41414 2.25 6.93419 3.27723 5.10571 5.10571C3.27723 6.93419 2.25 9.41414 2.25 12C2.25 14.5859 3.27723 17.0658 5.10571 18.8943C6.93419 20.7228 9.41414 21.75 12 21.75C14.0166 21.75 16.1344 21.1425 17.6653 20.1253C17.7474 20.0708 17.8179 20.0006 17.8728 19.9188C17.9278 19.837 17.966 19.7452 17.9855 19.6486C18.005 19.552 18.0052 19.4526 17.9862 19.3559C17.9672 19.2592 17.9294 19.1672 17.8748 19.0852C17.8203 19.0031 17.7501 18.9326 17.6683 18.8777C17.5866 18.8227 17.4947 18.7844 17.3982 18.765C17.3016 18.7455 17.2021 18.7453 17.1054 18.7643C17.0087 18.7832 16.9167 18.8211 16.8347 18.8756C15.5625 19.7231 13.7072 20.25 12 20.25C10.3683 20.25 8.77325 19.7661 7.41655 18.8596C6.05984 17.9531 5.00242 16.6646 4.37799 15.1571C3.75357 13.6496 3.59019 11.9908 3.90852 10.3905C4.22685 8.79016 5.01259 7.32015 6.16637 6.16637C7.32015 5.01259 8.79016 4.22685 10.3905 3.90852C11.9908 3.59019 13.6496 3.75357 15.1571 4.37799C16.6646 5.00242 17.9531 6.05984 18.8596 7.41655C19.7661 8.77325 20.25 10.3683 20.25 12C20.25 14.4797 19.23 15 18.375 15C17.52 15 16.5 14.4797 16.5 12V8.25C16.5 8.05109 16.421 7.86032 16.2803 7.71967C16.1397 7.57902 15.9489 7.5 15.75 7.5C15.5511 7.5 15.3603 7.57902 15.2197 7.71967C15.079 7.86032 15 8.05109 15 8.25V8.64937C14.327 8.04593 13.4878 7.65918 12.5918 7.53951C11.6958 7.41983 10.7845 7.57277 9.97666 7.97842C9.16883 8.38406 8.50189 9.0236 8.06273 9.81371C7.62357 10.6038 7.43255 11.5079 7.51455 12.4081C7.59656 13.3083 7.94778 14.163 8.52247 14.8608C9.09716 15.5585 9.86867 16.067 10.7365 16.32C11.6043 16.573 12.5282 16.5588 13.3879 16.2792C14.2475 15.9996 15.003 15.4676 15.5559 14.7525C16.1184 15.8775 17.0887 16.5 18.375 16.5C20.4881 16.5 21.75 14.8181 21.75 12C21.7473 9.41498 20.7192 6.93661 18.8913 5.10872C17.0634 3.28084 14.585 2.25273 12 2.25ZM12 15C11.4067 15 10.8266 14.8241 10.3333 14.4944C9.83994 14.1648 9.45542 13.6962 9.22836 13.1481C9.0013 12.5999 8.94189 11.9967 9.05764 11.4147C9.1734 10.8328 9.45912 10.2982 9.87868 9.87868C10.2982 9.45912 10.8328 9.1734 11.4147 9.05764C11.9967 8.94189 12.5999 9.0013 13.1481 9.22836C13.6962 9.45542 14.1648 9.83994 14.4944 10.3333C14.8241 10.8266 15 11.4067 15 12C15 12.7956 14.6839 13.5587 14.1213 14.1213C13.5587 14.6839 12.7956 15 12 15Z" fill="#84F3FF"/>
</svg>
