<svg xmlns="http://www.w3.org/2000/svg" width="20" height="20" fill="none" viewBox="0 0 20 20">
  <g class="icons8-facebook (1) 1">
    <path fill="#fff" d="M15.833 2.5H4.167c-.921 0-1.667.746-1.667 1.667v11.666c0 .921.746 1.667 1.667 1.667h6.35v-5.8H8.566V9.427h1.953v-1.67c0-1.937 1.184-2.993 2.912-2.993.582-.002 1.164.028 1.743.088v2.025h-1.19c-.941 0-1.125.444-1.125 1.101v1.446h2.25l-.292 2.27h-1.971V17.5h2.988c.921 0 1.667-.746 1.667-1.667V4.167c0-.921-.746-1.667-1.667-1.667Z" class="Vector"/>
  </g>
</svg>
