<svg width="434" height="548" viewBox="0 0 434 548" fill="none" xmlns="http://www.w3.org/2000/svg">
<g opacity="0.7" filter="url(#filter0_f_1895_5412)">
<circle cx="206" cy="99.9995" r="22.1479" fill="#FEE084"/>
</g>
<path d="M240.94 110V90.4H243.236L256.2 106.5H254.996V90.4H257.796V110H255.5L242.536 93.9H243.74V110H240.94ZM263.271 110V95.16H265.959V110H263.271ZM264.615 92.304C264.092 92.304 263.653 92.136 263.299 91.8C262.963 91.464 262.795 91.0533 262.795 90.568C262.795 90.064 262.963 89.644 263.299 89.308C263.653 88.972 264.092 88.804 264.615 88.804C265.137 88.804 265.567 88.972 265.903 89.308C266.257 89.6253 266.435 90.0267 266.435 90.512C266.435 91.016 266.267 91.4453 265.931 91.8C265.595 92.136 265.156 92.304 264.615 92.304ZM277.587 115.6C276.224 115.6 274.899 115.404 273.611 115.012C272.342 114.639 271.306 114.097 270.503 113.388L271.791 111.316C272.482 111.913 273.331 112.38 274.339 112.716C275.347 113.071 276.402 113.248 277.503 113.248C279.258 113.248 280.546 112.837 281.367 112.016C282.188 111.195 282.599 109.944 282.599 108.264V105.128L282.879 102.188L282.739 99.22V95.16H285.287V107.984C285.287 110.597 284.634 112.52 283.327 113.752C282.02 114.984 280.107 115.6 277.587 115.6ZM277.251 109.384C275.814 109.384 274.526 109.085 273.387 108.488C272.267 107.872 271.371 107.023 270.699 105.94C270.046 104.857 269.719 103.607 269.719 102.188C269.719 100.751 270.046 99.5 270.699 98.436C271.371 97.3533 272.267 96.5133 273.387 95.916C274.526 95.3187 275.814 95.02 277.251 95.02C278.52 95.02 279.678 95.2813 280.723 95.804C281.768 96.308 282.599 97.092 283.215 98.156C283.85 99.22 284.167 100.564 284.167 102.188C284.167 103.793 283.85 105.128 283.215 106.192C282.599 107.256 281.768 108.059 280.723 108.6C279.678 109.123 278.52 109.384 277.251 109.384ZM277.559 107.032C278.548 107.032 279.426 106.827 280.191 106.416C280.956 106.005 281.554 105.436 281.983 104.708C282.431 103.98 282.655 103.14 282.655 102.188C282.655 101.236 282.431 100.396 281.983 99.668C281.554 98.94 280.956 98.38 280.191 97.988C279.426 97.5773 278.548 97.372 277.559 97.372C276.57 97.372 275.683 97.5773 274.899 97.988C274.134 98.38 273.527 98.94 273.079 99.668C272.65 100.396 272.435 101.236 272.435 102.188C272.435 103.14 272.65 103.98 273.079 104.708C273.527 105.436 274.134 106.005 274.899 106.416C275.683 106.827 276.57 107.032 277.559 107.032ZM308.987 95.02C310.182 95.02 311.236 95.2533 312.151 95.72C313.066 96.1867 313.775 96.896 314.279 97.848C314.802 98.8 315.063 100.004 315.063 101.46V110H312.375V101.768C312.375 100.331 312.039 99.248 311.367 98.52C310.695 97.792 309.752 97.428 308.539 97.428C307.643 97.428 306.859 97.6147 306.187 97.988C305.515 98.3613 304.992 98.912 304.619 99.64C304.264 100.368 304.087 101.273 304.087 102.356V110H301.399V101.768C301.399 100.331 301.063 99.248 300.391 98.52C299.738 97.792 298.795 97.428 297.563 97.428C296.686 97.428 295.911 97.6147 295.239 97.988C294.567 98.3613 294.044 98.912 293.671 99.64C293.298 100.368 293.111 101.273 293.111 102.356V110H290.423V95.16H292.999V99.108L292.579 98.1C293.046 97.1293 293.764 96.3733 294.735 95.832C295.706 95.2907 296.835 95.02 298.123 95.02C299.542 95.02 300.764 95.3747 301.791 96.084C302.818 96.7747 303.49 97.8293 303.807 99.248L302.715 98.8C303.163 97.6613 303.947 96.7467 305.067 96.056C306.187 95.3653 307.494 95.02 308.987 95.02ZM329.221 110V106.864L329.081 106.276V100.928C329.081 99.7893 328.745 98.912 328.073 98.296C327.42 97.6613 326.43 97.344 325.105 97.344C324.228 97.344 323.369 97.4933 322.529 97.792C321.689 98.072 320.98 98.4547 320.401 98.94L319.281 96.924C320.046 96.308 320.961 95.8413 322.025 95.524C323.108 95.188 324.237 95.02 325.413 95.02C327.448 95.02 329.016 95.5147 330.117 96.504C331.218 97.4933 331.769 99.0053 331.769 101.04V110H329.221ZM324.349 110.168C323.248 110.168 322.277 109.981 321.437 109.608C320.616 109.235 319.981 108.721 319.533 108.068C319.085 107.396 318.861 106.64 318.861 105.8C318.861 104.997 319.048 104.269 319.421 103.616C319.813 102.963 320.438 102.44 321.297 102.048C322.174 101.656 323.35 101.46 324.825 101.46H329.529V103.392H324.937C323.593 103.392 322.688 103.616 322.221 104.064C321.754 104.512 321.521 105.053 321.521 105.688C321.521 106.416 321.81 107.004 322.389 107.452C322.968 107.881 323.77 108.096 324.797 108.096C325.805 108.096 326.682 107.872 327.429 107.424C328.194 106.976 328.745 106.323 329.081 105.464L329.613 107.312C329.258 108.189 328.633 108.889 327.737 109.412C326.841 109.916 325.712 110.168 324.349 110.168ZM344.655 110V90.4H352.299C354.016 90.4 355.482 90.6707 356.695 91.212C357.908 91.7533 358.842 92.5373 359.495 93.564C360.148 94.5907 360.475 95.8133 360.475 97.232C360.475 98.6507 360.148 99.8733 359.495 100.9C358.842 101.908 357.908 102.692 356.695 103.252C355.482 103.793 354.016 104.064 352.299 104.064H346.195L347.455 102.748V110H344.655ZM347.455 103.028L346.195 101.628H352.215C354.007 101.628 355.36 101.245 356.275 100.48C357.208 99.7147 357.675 98.632 357.675 97.232C357.675 95.832 357.208 94.7493 356.275 93.984C355.36 93.2187 354.007 92.836 352.215 92.836H346.195L347.455 91.436V103.028ZM364.47 110V89.224H367.158V110H364.47ZM381.502 110V106.864L381.362 106.276V100.928C381.362 99.7893 381.026 98.912 380.354 98.296C379.701 97.6613 378.712 97.344 377.386 97.344C376.509 97.344 375.65 97.4933 374.81 97.792C373.97 98.072 373.261 98.4547 372.682 98.94L371.562 96.924C372.328 96.308 373.242 95.8413 374.306 95.524C375.389 95.188 376.518 95.02 377.694 95.02C379.729 95.02 381.297 95.5147 382.398 96.504C383.5 97.4933 384.05 99.0053 384.05 101.04V110H381.502ZM376.63 110.168C375.529 110.168 374.558 109.981 373.718 109.608C372.897 109.235 372.262 108.721 371.814 108.068C371.366 107.396 371.142 106.64 371.142 105.8C371.142 104.997 371.329 104.269 371.702 103.616C372.094 102.963 372.72 102.44 373.578 102.048C374.456 101.656 375.632 101.46 377.106 101.46H381.81V103.392H377.218C375.874 103.392 374.969 103.616 374.502 104.064C374.036 104.512 373.802 105.053 373.802 105.688C373.802 106.416 374.092 107.004 374.67 107.452C375.249 107.881 376.052 108.096 377.078 108.096C378.086 108.096 378.964 107.872 379.71 107.424C380.476 106.976 381.026 106.323 381.362 105.464L381.894 107.312C381.54 108.189 380.914 108.889 380.018 109.412C379.122 109.916 377.993 110.168 376.63 110.168ZM396.949 95.02C398.162 95.02 399.226 95.2533 400.141 95.72C401.074 96.1867 401.802 96.896 402.325 97.848C402.847 98.8 403.109 100.004 403.109 101.46V110H400.421V101.768C400.421 100.331 400.066 99.248 399.357 98.52C398.666 97.792 397.686 97.428 396.417 97.428C395.465 97.428 394.634 97.6147 393.925 97.988C393.215 98.3613 392.665 98.912 392.273 99.64C391.899 100.368 391.713 101.273 391.713 102.356V110H389.025V95.16H391.601V99.164L391.181 98.1C391.666 97.1293 392.413 96.3733 393.421 95.832C394.429 95.2907 395.605 95.02 396.949 95.02ZM414.691 110.168C413.104 110.168 411.704 109.841 410.491 109.188C409.296 108.535 408.363 107.639 407.691 106.5C407.038 105.361 406.711 104.055 406.711 102.58C406.711 101.105 407.028 99.7987 407.663 98.66C408.316 97.5213 409.203 96.6347 410.323 96C411.462 95.3467 412.74 95.02 414.159 95.02C415.596 95.02 416.866 95.3373 417.967 95.972C419.068 96.6067 419.927 97.5027 420.543 98.66C421.178 99.7987 421.495 101.133 421.495 102.664C421.495 102.776 421.486 102.907 421.467 103.056C421.467 103.205 421.458 103.345 421.439 103.476H408.811V101.544H420.039L418.947 102.216C418.966 101.264 418.77 100.415 418.359 99.668C417.948 98.9213 417.379 98.3427 416.651 97.932C415.942 97.5027 415.111 97.288 414.159 97.288C413.226 97.288 412.395 97.5027 411.667 97.932C410.939 98.3427 410.37 98.9307 409.959 99.696C409.548 100.443 409.343 101.301 409.343 102.272V102.72C409.343 103.709 409.567 104.596 410.015 105.38C410.482 106.145 411.126 106.743 411.947 107.172C412.768 107.601 413.711 107.816 414.775 107.816C415.652 107.816 416.446 107.667 417.155 107.368C417.883 107.069 418.518 106.621 419.059 106.024L420.543 107.76C419.871 108.544 419.031 109.141 418.023 109.552C417.034 109.963 415.923 110.168 414.691 110.168ZM430.324 110.168C428.83 110.168 427.673 109.767 426.852 108.964C426.03 108.161 425.62 107.013 425.62 105.52V91.912H428.308V105.408C428.308 106.211 428.504 106.827 428.896 107.256C429.306 107.685 429.885 107.9 430.632 107.9C431.472 107.9 432.172 107.667 432.732 107.2L433.572 109.132C433.161 109.487 432.666 109.748 432.088 109.916C431.528 110.084 430.94 110.168 430.324 110.168ZM423.1 97.372V95.16H432.564V97.372H423.1Z" fill="#84F3FF"/>
<path d="M234.94 452V432.4H237.236L250.2 448.5H248.996V432.4H251.796V452H249.5L236.536 435.9H237.74V452H234.94ZM257.271 452V437.16H259.959V452H257.271ZM258.615 434.304C258.092 434.304 257.653 434.136 257.299 433.8C256.963 433.464 256.795 433.053 256.795 432.568C256.795 432.064 256.963 431.644 257.299 431.308C257.653 430.972 258.092 430.804 258.615 430.804C259.137 430.804 259.567 430.972 259.903 431.308C260.257 431.625 260.435 432.027 260.435 432.512C260.435 433.016 260.267 433.445 259.931 433.8C259.595 434.136 259.156 434.304 258.615 434.304ZM271.587 457.6C270.224 457.6 268.899 457.404 267.611 457.012C266.342 456.639 265.306 456.097 264.503 455.388L265.791 453.316C266.482 453.913 267.331 454.38 268.339 454.716C269.347 455.071 270.402 455.248 271.503 455.248C273.258 455.248 274.546 454.837 275.367 454.016C276.188 453.195 276.599 451.944 276.599 450.264V447.128L276.879 444.188L276.739 441.22V437.16H279.287V449.984C279.287 452.597 278.634 454.52 277.327 455.752C276.02 456.984 274.107 457.6 271.587 457.6ZM271.251 451.384C269.814 451.384 268.526 451.085 267.387 450.488C266.267 449.872 265.371 449.023 264.699 447.94C264.046 446.857 263.719 445.607 263.719 444.188C263.719 442.751 264.046 441.5 264.699 440.436C265.371 439.353 266.267 438.513 267.387 437.916C268.526 437.319 269.814 437.02 271.251 437.02C272.52 437.02 273.678 437.281 274.723 437.804C275.768 438.308 276.599 439.092 277.215 440.156C277.85 441.22 278.167 442.564 278.167 444.188C278.167 445.793 277.85 447.128 277.215 448.192C276.599 449.256 275.768 450.059 274.723 450.6C273.678 451.123 272.52 451.384 271.251 451.384ZM271.559 449.032C272.548 449.032 273.426 448.827 274.191 448.416C274.956 448.005 275.554 447.436 275.983 446.708C276.431 445.98 276.655 445.14 276.655 444.188C276.655 443.236 276.431 442.396 275.983 441.668C275.554 440.94 274.956 440.38 274.191 439.988C273.426 439.577 272.548 439.372 271.559 439.372C270.57 439.372 269.683 439.577 268.899 439.988C268.134 440.38 267.527 440.94 267.079 441.668C266.65 442.396 266.435 443.236 266.435 444.188C266.435 445.14 266.65 445.98 267.079 446.708C267.527 447.436 268.134 448.005 268.899 448.416C269.683 448.827 270.57 449.032 271.559 449.032ZM302.987 437.02C304.182 437.02 305.236 437.253 306.151 437.72C307.066 438.187 307.775 438.896 308.279 439.848C308.802 440.8 309.063 442.004 309.063 443.46V452H306.375V443.768C306.375 442.331 306.039 441.248 305.367 440.52C304.695 439.792 303.752 439.428 302.539 439.428C301.643 439.428 300.859 439.615 300.187 439.988C299.515 440.361 298.992 440.912 298.619 441.64C298.264 442.368 298.087 443.273 298.087 444.356V452H295.399V443.768C295.399 442.331 295.063 441.248 294.391 440.52C293.738 439.792 292.795 439.428 291.563 439.428C290.686 439.428 289.911 439.615 289.239 439.988C288.567 440.361 288.044 440.912 287.671 441.64C287.298 442.368 287.111 443.273 287.111 444.356V452H284.423V437.16H286.999V441.108L286.579 440.1C287.046 439.129 287.764 438.373 288.735 437.832C289.706 437.291 290.835 437.02 292.123 437.02C293.542 437.02 294.764 437.375 295.791 438.084C296.818 438.775 297.49 439.829 297.807 441.248L296.715 440.8C297.163 439.661 297.947 438.747 299.067 438.056C300.187 437.365 301.494 437.02 302.987 437.02ZM323.221 452V448.864L323.081 448.276V442.928C323.081 441.789 322.745 440.912 322.073 440.296C321.42 439.661 320.43 439.344 319.105 439.344C318.228 439.344 317.369 439.493 316.529 439.792C315.689 440.072 314.98 440.455 314.401 440.94L313.281 438.924C314.046 438.308 314.961 437.841 316.025 437.524C317.108 437.188 318.237 437.02 319.413 437.02C321.448 437.02 323.016 437.515 324.117 438.504C325.218 439.493 325.769 441.005 325.769 443.04V452H323.221ZM318.349 452.168C317.248 452.168 316.277 451.981 315.437 451.608C314.616 451.235 313.981 450.721 313.533 450.068C313.085 449.396 312.861 448.64 312.861 447.8C312.861 446.997 313.048 446.269 313.421 445.616C313.813 444.963 314.438 444.44 315.297 444.048C316.174 443.656 317.35 443.46 318.825 443.46H323.529V445.392H318.937C317.593 445.392 316.688 445.616 316.221 446.064C315.754 446.512 315.521 447.053 315.521 447.688C315.521 448.416 315.81 449.004 316.389 449.452C316.968 449.881 317.77 450.096 318.797 450.096C319.805 450.096 320.682 449.872 321.429 449.424C322.194 448.976 322.745 448.323 323.081 447.464L323.613 449.312C323.258 450.189 322.633 450.889 321.737 451.412C320.841 451.916 319.712 452.168 318.349 452.168ZM243.704 488.224C242.211 488.224 240.829 487.981 239.56 487.496C238.309 486.992 237.217 486.292 236.284 485.396C235.369 484.481 234.651 483.417 234.128 482.204C233.605 480.991 233.344 479.656 233.344 478.2C233.344 476.744 233.605 475.409 234.128 474.196C234.651 472.983 235.379 471.928 236.312 471.032C237.245 470.117 238.337 469.417 239.588 468.932C240.857 468.428 242.239 468.176 243.732 468.176C245.244 468.176 246.635 468.437 247.904 468.96C249.192 469.464 250.284 470.22 251.18 471.228L249.36 472.992C248.613 472.208 247.773 471.629 246.84 471.256C245.907 470.864 244.908 470.668 243.844 470.668C242.743 470.668 241.716 470.855 240.764 471.228C239.831 471.601 239.019 472.124 238.328 472.796C237.637 473.468 237.096 474.271 236.704 475.204C236.331 476.119 236.144 477.117 236.144 478.2C236.144 479.283 236.331 480.291 236.704 481.224C237.096 482.139 237.637 482.932 238.328 483.604C239.019 484.276 239.831 484.799 240.764 485.172C241.716 485.545 242.743 485.732 243.844 485.732C244.908 485.732 245.907 485.545 246.84 485.172C247.773 484.78 248.613 484.183 249.36 483.38L251.18 485.144C250.284 486.152 249.192 486.917 247.904 487.44C246.635 487.963 245.235 488.224 243.704 488.224ZM260.509 488.168C259.016 488.168 257.691 487.841 256.533 487.188C255.376 486.535 254.461 485.639 253.789 484.5C253.117 483.343 252.781 482.036 252.781 480.58C252.781 479.105 253.117 477.799 253.789 476.66C254.461 475.521 255.376 474.635 256.533 474C257.691 473.347 259.016 473.02 260.509 473.02C261.984 473.02 263.3 473.347 264.457 474C265.633 474.635 266.548 475.521 267.201 476.66C267.873 477.78 268.209 479.087 268.209 480.58C268.209 482.055 267.873 483.361 267.201 484.5C266.548 485.639 265.633 486.535 264.457 487.188C263.3 487.841 261.984 488.168 260.509 488.168ZM260.509 485.816C261.461 485.816 262.311 485.601 263.057 485.172C263.823 484.743 264.42 484.136 264.849 483.352C265.279 482.549 265.493 481.625 265.493 480.58C265.493 479.516 265.279 478.601 264.849 477.836C264.42 477.052 263.823 476.445 263.057 476.016C262.311 475.587 261.461 475.372 260.509 475.372C259.557 475.372 258.708 475.587 257.961 476.016C257.215 476.445 256.617 477.052 256.169 477.836C255.721 478.601 255.497 479.516 255.497 480.58C255.497 481.625 255.721 482.549 256.169 483.352C256.617 484.136 257.215 484.743 257.961 485.172C258.708 485.601 259.557 485.816 260.509 485.816ZM279.851 473.02C281.064 473.02 282.128 473.253 283.043 473.72C283.976 474.187 284.704 474.896 285.227 475.848C285.75 476.8 286.011 478.004 286.011 479.46V488H283.323V479.768C283.323 478.331 282.968 477.248 282.259 476.52C281.568 475.792 280.588 475.428 279.319 475.428C278.367 475.428 277.536 475.615 276.827 475.988C276.118 476.361 275.567 476.912 275.175 477.64C274.802 478.368 274.615 479.273 274.615 480.356V488H271.927V473.16H274.503V477.164L274.083 476.1C274.568 475.129 275.315 474.373 276.323 473.832C277.331 473.291 278.507 473.02 279.851 473.02ZM295.242 488.168C294.01 488.168 292.834 488 291.714 487.664C290.612 487.328 289.744 486.917 289.11 486.432L290.23 484.304C290.864 484.733 291.648 485.097 292.582 485.396C293.515 485.695 294.467 485.844 295.438 485.844C296.688 485.844 297.584 485.667 298.126 485.312C298.686 484.957 298.966 484.463 298.966 483.828C298.966 483.361 298.798 482.997 298.462 482.736C298.126 482.475 297.678 482.279 297.118 482.148C296.576 482.017 295.97 481.905 295.298 481.812C294.626 481.7 293.954 481.569 293.282 481.42C292.61 481.252 291.994 481.028 291.434 480.748C290.874 480.449 290.426 480.048 290.09 479.544C289.754 479.021 289.586 478.331 289.586 477.472C289.586 476.576 289.838 475.792 290.342 475.12C290.846 474.448 291.555 473.935 292.47 473.58C293.403 473.207 294.504 473.02 295.774 473.02C296.744 473.02 297.724 473.141 298.714 473.384C299.722 473.608 300.543 473.935 301.178 474.364L300.03 476.492C299.358 476.044 298.658 475.736 297.93 475.568C297.202 475.4 296.474 475.316 295.746 475.316C294.57 475.316 293.692 475.512 293.114 475.904C292.535 476.277 292.246 476.763 292.246 477.36C292.246 477.864 292.414 478.256 292.75 478.536C293.104 478.797 293.552 479.003 294.094 479.152C294.654 479.301 295.27 479.432 295.942 479.544C296.614 479.637 297.286 479.768 297.958 479.936C298.63 480.085 299.236 480.3 299.778 480.58C300.338 480.86 300.786 481.252 301.122 481.756C301.476 482.26 301.654 482.932 301.654 483.772C301.654 484.668 301.392 485.443 300.87 486.096C300.347 486.749 299.61 487.263 298.658 487.636C297.706 487.991 296.567 488.168 295.242 488.168ZM310.109 488.168C308.616 488.168 307.458 487.767 306.637 486.964C305.816 486.161 305.405 485.013 305.405 483.52V469.912H308.093V483.408C308.093 484.211 308.289 484.827 308.681 485.256C309.092 485.685 309.67 485.9 310.417 485.9C311.257 485.9 311.957 485.667 312.517 485.2L313.357 487.132C312.946 487.487 312.452 487.748 311.873 487.916C311.313 488.084 310.725 488.168 310.109 488.168ZM302.885 475.372V473.16H312.349V475.372H302.885ZM322.722 488.168C321.136 488.168 319.736 487.841 318.522 487.188C317.328 486.535 316.394 485.639 315.722 484.5C315.069 483.361 314.742 482.055 314.742 480.58C314.742 479.105 315.06 477.799 315.694 476.66C316.348 475.521 317.234 474.635 318.354 474C319.493 473.347 320.772 473.02 322.19 473.02C323.628 473.02 324.897 473.337 325.998 473.972C327.1 474.607 327.958 475.503 328.574 476.66C329.209 477.799 329.526 479.133 329.526 480.664C329.526 480.776 329.517 480.907 329.498 481.056C329.498 481.205 329.489 481.345 329.47 481.476H316.842V479.544H328.07L326.978 480.216C326.997 479.264 326.801 478.415 326.39 477.668C325.98 476.921 325.41 476.343 324.682 475.932C323.973 475.503 323.142 475.288 322.19 475.288C321.257 475.288 320.426 475.503 319.698 475.932C318.97 476.343 318.401 476.931 317.99 477.696C317.58 478.443 317.374 479.301 317.374 480.272V480.72C317.374 481.709 317.598 482.596 318.046 483.38C318.513 484.145 319.157 484.743 319.978 485.172C320.8 485.601 321.742 485.816 322.806 485.816C323.684 485.816 324.477 485.667 325.186 485.368C325.914 485.069 326.549 484.621 327.09 484.024L328.574 485.76C327.902 486.544 327.062 487.141 326.054 487.552C325.065 487.963 323.954 488.168 322.722 488.168ZM333.259 488V467.224H335.947V488H333.259ZM341.079 488V467.224H343.767V488H341.079ZM358.112 488V484.864L357.972 484.276V478.928C357.972 477.789 357.636 476.912 356.964 476.296C356.31 475.661 355.321 475.344 353.996 475.344C353.118 475.344 352.26 475.493 351.42 475.792C350.58 476.072 349.87 476.455 349.292 476.94L348.172 474.924C348.937 474.308 349.852 473.841 350.916 473.524C351.998 473.188 353.128 473.02 354.304 473.02C356.338 473.02 357.906 473.515 359.008 474.504C360.109 475.493 360.66 477.005 360.66 479.04V488H358.112ZM353.24 488.168C352.138 488.168 351.168 487.981 350.328 487.608C349.506 487.235 348.872 486.721 348.424 486.068C347.976 485.396 347.752 484.64 347.752 483.8C347.752 482.997 347.938 482.269 348.312 481.616C348.704 480.963 349.329 480.44 350.188 480.048C351.065 479.656 352.241 479.46 353.716 479.46H358.42V481.392H353.828C352.484 481.392 351.578 481.616 351.112 482.064C350.645 482.512 350.412 483.053 350.412 483.688C350.412 484.416 350.701 485.004 351.28 485.452C351.858 485.881 352.661 486.096 353.688 486.096C354.696 486.096 355.573 485.872 356.32 485.424C357.085 484.976 357.636 484.323 357.972 483.464L358.504 485.312C358.149 486.189 357.524 486.889 356.628 487.412C355.732 487.916 354.602 488.168 353.24 488.168ZM370.73 488.168C369.237 488.168 368.079 487.767 367.258 486.964C366.437 486.161 366.026 485.013 366.026 483.52V469.912H368.714V483.408C368.714 484.211 368.91 484.827 369.302 485.256C369.713 485.685 370.291 485.9 371.038 485.9C371.878 485.9 372.578 485.667 373.138 485.2L373.978 487.132C373.567 487.487 373.073 487.748 372.494 487.916C371.934 488.084 371.346 488.168 370.73 488.168ZM363.506 475.372V473.16H372.97V475.372H363.506ZM377.228 488V473.16H379.916V488H377.228ZM378.572 470.304C378.049 470.304 377.61 470.136 377.256 469.8C376.92 469.464 376.752 469.053 376.752 468.568C376.752 468.064 376.92 467.644 377.256 467.308C377.61 466.972 378.049 466.804 378.572 466.804C379.094 466.804 379.524 466.972 379.86 467.308C380.214 467.625 380.392 468.027 380.392 468.512C380.392 469.016 380.224 469.445 379.888 469.8C379.552 470.136 379.113 470.304 378.572 470.304ZM391.404 488.168C389.911 488.168 388.585 487.841 387.428 487.188C386.271 486.535 385.356 485.639 384.684 484.5C384.012 483.343 383.676 482.036 383.676 480.58C383.676 479.105 384.012 477.799 384.684 476.66C385.356 475.521 386.271 474.635 387.428 474C388.585 473.347 389.911 473.02 391.404 473.02C392.879 473.02 394.195 473.347 395.352 474C396.528 474.635 397.443 475.521 398.096 476.66C398.768 477.78 399.104 479.087 399.104 480.58C399.104 482.055 398.768 483.361 398.096 484.5C397.443 485.639 396.528 486.535 395.352 487.188C394.195 487.841 392.879 488.168 391.404 488.168ZM391.404 485.816C392.356 485.816 393.205 485.601 393.952 485.172C394.717 484.743 395.315 484.136 395.744 483.352C396.173 482.549 396.388 481.625 396.388 480.58C396.388 479.516 396.173 478.601 395.744 477.836C395.315 477.052 394.717 476.445 393.952 476.016C393.205 475.587 392.356 475.372 391.404 475.372C390.452 475.372 389.603 475.587 388.856 476.016C388.109 476.445 387.512 477.052 387.064 477.836C386.616 478.601 386.392 479.516 386.392 480.58C386.392 481.625 386.616 482.549 387.064 483.352C387.512 484.136 388.109 484.743 388.856 485.172C389.603 485.601 390.452 485.816 391.404 485.816ZM410.745 473.02C411.959 473.02 413.023 473.253 413.937 473.72C414.871 474.187 415.599 474.896 416.121 475.848C416.644 476.8 416.905 478.004 416.905 479.46V488H414.217V479.768C414.217 478.331 413.863 477.248 413.153 476.52C412.463 475.792 411.483 475.428 410.213 475.428C409.261 475.428 408.431 475.615 407.721 475.988C407.012 476.361 406.461 476.912 406.069 477.64C405.696 478.368 405.509 479.273 405.509 480.356V488H402.821V473.16H405.397V477.164L404.977 476.1C405.463 475.129 406.209 474.373 407.217 473.832C408.225 473.291 409.401 473.02 410.745 473.02Z" fill="#006971"/>
<path d="M0.0650001 302V282.4H2.361L15.325 298.5H14.121V282.4H16.921V302H14.625L1.661 285.9H2.865V302H0.0650001ZM22.3957 302V287.16H25.0837V302H22.3957ZM23.7397 284.304C23.217 284.304 22.7783 284.136 22.4237 283.8C22.0877 283.464 21.9197 283.053 21.9197 282.568C21.9197 282.064 22.0877 281.644 22.4237 281.308C22.7783 280.972 23.217 280.804 23.7397 280.804C24.2623 280.804 24.6917 280.972 25.0277 281.308C25.3823 281.625 25.5597 282.027 25.5597 282.512C25.5597 283.016 25.3917 283.445 25.0557 283.8C24.7197 284.136 24.281 284.304 23.7397 284.304ZM36.712 307.6C35.3493 307.6 34.024 307.404 32.736 307.012C31.4666 306.639 30.4306 306.097 29.628 305.388L30.916 303.316C31.6066 303.913 32.456 304.38 33.464 304.716C34.472 305.071 35.5266 305.248 36.628 305.248C38.3826 305.248 39.6706 304.837 40.492 304.016C41.3133 303.195 41.724 301.944 41.724 300.264V297.128L42.004 294.188L41.864 291.22V287.16H44.412V299.984C44.412 302.597 43.7586 304.52 42.452 305.752C41.1453 306.984 39.232 307.6 36.712 307.6ZM36.376 301.384C34.9386 301.384 33.6506 301.085 32.512 300.488C31.392 299.872 30.496 299.023 29.824 297.94C29.1706 296.857 28.844 295.607 28.844 294.188C28.844 292.751 29.1706 291.5 29.824 290.436C30.496 289.353 31.392 288.513 32.512 287.916C33.6506 287.319 34.9386 287.02 36.376 287.02C37.6453 287.02 38.8026 287.281 39.848 287.804C40.8933 288.308 41.724 289.092 42.34 290.156C42.9746 291.22 43.292 292.564 43.292 294.188C43.292 295.793 42.9746 297.128 42.34 298.192C41.724 299.256 40.8933 300.059 39.848 300.6C38.8026 301.123 37.6453 301.384 36.376 301.384ZM36.684 299.032C37.6733 299.032 38.5506 298.827 39.316 298.416C40.0813 298.005 40.6786 297.436 41.108 296.708C41.556 295.98 41.78 295.14 41.78 294.188C41.78 293.236 41.556 292.396 41.108 291.668C40.6786 290.94 40.0813 290.38 39.316 289.988C38.5506 289.577 37.6733 289.372 36.684 289.372C35.6946 289.372 34.808 289.577 34.024 289.988C33.2586 290.38 32.652 290.94 32.204 291.668C31.7746 292.396 31.56 293.236 31.56 294.188C31.56 295.14 31.7746 295.98 32.204 296.708C32.652 297.436 33.2586 298.005 34.024 298.416C34.808 298.827 35.6946 299.032 36.684 299.032ZM68.112 287.02C69.3067 287.02 70.3613 287.253 71.276 287.72C72.1907 288.187 72.9 288.896 73.404 289.848C73.9267 290.8 74.188 292.004 74.188 293.46V302H71.5V293.768C71.5 292.331 71.164 291.248 70.492 290.52C69.82 289.792 68.8773 289.428 67.664 289.428C66.768 289.428 65.984 289.615 65.312 289.988C64.64 290.361 64.1173 290.912 63.744 291.64C63.3893 292.368 63.212 293.273 63.212 294.356V302H60.524V293.768C60.524 292.331 60.188 291.248 59.516 290.52C58.8627 289.792 57.92 289.428 56.688 289.428C55.8107 289.428 55.036 289.615 54.364 289.988C53.692 290.361 53.1693 290.912 52.796 291.64C52.4227 292.368 52.236 293.273 52.236 294.356V302H49.548V287.16H52.124V291.108L51.704 290.1C52.1707 289.129 52.8893 288.373 53.86 287.832C54.8307 287.291 55.96 287.02 57.248 287.02C58.6667 287.02 59.8893 287.375 60.916 288.084C61.9427 288.775 62.6147 289.829 62.932 291.248L61.84 290.8C62.288 289.661 63.072 288.747 64.192 288.056C65.312 287.365 66.6187 287.02 68.112 287.02ZM88.3459 302V298.864L88.2059 298.276V292.928C88.2059 291.789 87.8699 290.912 87.1979 290.296C86.5446 289.661 85.5553 289.344 84.2299 289.344C83.3526 289.344 82.4939 289.493 81.6539 289.792C80.8139 290.072 80.1046 290.455 79.5259 290.94L78.4059 288.924C79.1713 288.308 80.0859 287.841 81.1499 287.524C82.2326 287.188 83.3619 287.02 84.5379 287.02C86.5726 287.02 88.1406 287.515 89.2419 288.504C90.3433 289.493 90.8939 291.005 90.8939 293.04V302H88.3459ZM83.4739 302.168C82.3726 302.168 81.4019 301.981 80.5619 301.608C79.7406 301.235 79.1059 300.721 78.6579 300.068C78.2099 299.396 77.9859 298.64 77.9859 297.8C77.9859 296.997 78.1726 296.269 78.5459 295.616C78.9379 294.963 79.5633 294.44 80.4219 294.048C81.2993 293.656 82.4753 293.46 83.9499 293.46H88.6539V295.392H84.0619C82.7179 295.392 81.8126 295.616 81.3459 296.064C80.8793 296.512 80.6459 297.053 80.6459 297.688C80.6459 298.416 80.9353 299.004 81.5139 299.452C82.0926 299.881 82.8953 300.096 83.9219 300.096C84.9299 300.096 85.8073 299.872 86.5539 299.424C87.3193 298.976 87.8699 298.323 88.2059 297.464L88.7379 299.312C88.3833 300.189 87.7579 300.889 86.8619 301.412C85.9659 301.916 84.8366 302.168 83.4739 302.168ZM106.3 291.668H116.408V294.076H106.3V291.668ZM106.58 302H103.78V282.4H117.612V284.836H106.58V302ZM127.052 302.168C125.559 302.168 124.234 301.841 123.076 301.188C121.919 300.535 121.004 299.639 120.332 298.5C119.66 297.343 119.324 296.036 119.324 294.58C119.324 293.105 119.66 291.799 120.332 290.66C121.004 289.521 121.919 288.635 123.076 288C124.234 287.347 125.559 287.02 127.052 287.02C128.527 287.02 129.843 287.347 131 288C132.176 288.635 133.091 289.521 133.744 290.66C134.416 291.78 134.752 293.087 134.752 294.58C134.752 296.055 134.416 297.361 133.744 298.5C133.091 299.639 132.176 300.535 131 301.188C129.843 301.841 128.527 302.168 127.052 302.168ZM127.052 299.816C128.004 299.816 128.854 299.601 129.6 299.172C130.366 298.743 130.963 298.136 131.392 297.352C131.822 296.549 132.036 295.625 132.036 294.58C132.036 293.516 131.822 292.601 131.392 291.836C130.963 291.052 130.366 290.445 129.6 290.016C128.854 289.587 128.004 289.372 127.052 289.372C126.1 289.372 125.251 289.587 124.504 290.016C123.758 290.445 123.16 291.052 122.712 291.836C122.264 292.601 122.04 293.516 122.04 294.58C122.04 295.625 122.264 296.549 122.712 297.352C123.16 298.136 123.758 298.743 124.504 299.172C125.251 299.601 126.1 299.816 127.052 299.816ZM138.47 302V287.16H141.046V291.192L140.794 290.184C141.205 289.157 141.895 288.373 142.866 287.832C143.837 287.291 145.031 287.02 146.45 287.02V289.624C146.338 289.605 146.226 289.596 146.114 289.596C146.021 289.596 145.927 289.596 145.834 289.596C144.397 289.596 143.258 290.025 142.418 290.884C141.578 291.743 141.158 292.984 141.158 294.608V302H138.47ZM156.094 302.168C154.582 302.168 153.229 301.841 152.034 301.188C150.858 300.535 149.934 299.639 149.262 298.5C148.59 297.361 148.254 296.055 148.254 294.58C148.254 293.105 148.59 291.799 149.262 290.66C149.934 289.521 150.858 288.635 152.034 288C153.229 287.347 154.582 287.02 156.094 287.02C157.438 287.02 158.633 287.291 159.678 287.832C160.742 288.355 161.563 289.139 162.142 290.184L160.098 291.5C159.613 290.772 159.015 290.24 158.306 289.904C157.615 289.549 156.869 289.372 156.066 289.372C155.095 289.372 154.227 289.587 153.462 290.016C152.697 290.445 152.09 291.052 151.642 291.836C151.194 292.601 150.97 293.516 150.97 294.58C150.97 295.644 151.194 296.568 151.642 297.352C152.09 298.136 152.697 298.743 153.462 299.172C154.227 299.601 155.095 299.816 156.066 299.816C156.869 299.816 157.615 299.648 158.306 299.312C159.015 298.957 159.613 298.416 160.098 297.688L162.142 298.976C161.563 300.003 160.742 300.796 159.678 301.356C158.633 301.897 157.438 302.168 156.094 302.168ZM172.011 302.168C170.425 302.168 169.025 301.841 167.811 301.188C166.617 300.535 165.683 299.639 165.011 298.5C164.358 297.361 164.031 296.055 164.031 294.58C164.031 293.105 164.349 291.799 164.983 290.66C165.637 289.521 166.523 288.635 167.643 288C168.782 287.347 170.061 287.02 171.479 287.02C172.917 287.02 174.186 287.337 175.287 287.972C176.389 288.607 177.247 289.503 177.863 290.66C178.498 291.799 178.815 293.133 178.815 294.664C178.815 294.776 178.806 294.907 178.787 295.056C178.787 295.205 178.778 295.345 178.759 295.476H166.131V293.544H177.359L176.267 294.216C176.286 293.264 176.09 292.415 175.679 291.668C175.269 290.921 174.699 290.343 173.971 289.932C173.262 289.503 172.431 289.288 171.479 289.288C170.546 289.288 169.715 289.503 168.987 289.932C168.259 290.343 167.69 290.931 167.279 291.696C166.869 292.443 166.663 293.301 166.663 294.272V294.72C166.663 295.709 166.887 296.596 167.335 297.38C167.802 298.145 168.446 298.743 169.267 299.172C170.089 299.601 171.031 299.816 172.095 299.816C172.973 299.816 173.766 299.667 174.475 299.368C175.203 299.069 175.838 298.621 176.379 298.024L177.863 299.76C177.191 300.544 176.351 301.141 175.343 301.552C174.354 301.963 173.243 302.168 172.011 302.168Z" fill="#006971"/>
<path d="M206 116L206 292" stroke="#006971" stroke-width="2"/>
<path d="M206 302L206 478" stroke="#085D64" stroke-width="2"/>
<circle cx="206" cy="100" r="15" stroke="#FEE084" stroke-width="2"/>
<circle cx="206" cy="292" r="10" fill="#006971"/>
<circle cx="206" cy="478" r="10" fill="#006971"/>
<line x1="264.89" y1="0.758789" x2="148.927" y2="201.612" stroke="url(#paint0_linear_1895_5412)"/>
<line x1="266.317" y1="85.4195" x2="146.889" y2="117.42" stroke="url(#paint1_linear_1895_5412)"/>
<line x1="280.715" y1="144.377" x2="131.729" y2="58.3604" stroke="url(#paint2_linear_1895_5412)"/>
<line x1="220.958" y1="156.927" x2="191.022" y2="45.2047" stroke="url(#paint3_linear_1895_5412)"/>
<path d="M208.248 89.7483L207.599 101.223L218.88 103.419L207.405 102.769L205.209 114.05L205.859 102.576L194.578 100.379L206.052 101.029L208.248 89.7483Z" fill="#FEE084"/>
<defs>
<filter id="filter0_f_1895_5412" x="122.852" y="16.8516" width="166.297" height="166.296" filterUnits="userSpaceOnUse" color-interpolation-filters="sRGB">
<feFlood flood-opacity="0" result="BackgroundImageFix"/>
<feBlend mode="normal" in="SourceGraphic" in2="BackgroundImageFix" result="shape"/>
<feGaussianBlur stdDeviation="30.5" result="effect1_foregroundBlur_1895_5412"/>
</filter>
<linearGradient id="paint0_linear_1895_5412" x1="150.662" y1="197.608" x2="261.748" y2="5.20162" gradientUnits="userSpaceOnUse">
<stop stop-color="#FFE083" stop-opacity="0"/>
<stop offset="0.522908" stop-color="#FFE083"/>
<stop offset="1" stop-color="#FFE083" stop-opacity="0"/>
</linearGradient>
<linearGradient id="paint1_linear_1895_5412" x1="148.992" y1="116.339" x2="263.397" y2="85.6842" gradientUnits="userSpaceOnUse">
<stop stop-color="#FFE083" stop-opacity="0"/>
<stop offset="0.522908" stop-color="#FFE083"/>
<stop offset="1" stop-color="#FFE083" stop-opacity="0"/>
</linearGradient>
<linearGradient id="paint2_linear_1895_5412" x1="134.764" y1="59.5352" x2="277.484" y2="141.935" gradientUnits="userSpaceOnUse">
<stop stop-color="#FFE083" stop-opacity="0"/>
<stop offset="0.522908" stop-color="#FFE083"/>
<stop offset="1" stop-color="#FFE083" stop-opacity="0"/>
</linearGradient>
<linearGradient id="paint3_linear_1895_5412" x1="192.065" y1="47.1636" x2="220.742" y2="154.188" gradientUnits="userSpaceOnUse">
<stop stop-color="#FFE083" stop-opacity="0"/>
<stop offset="0.522908" stop-color="#FFE083"/>
<stop offset="1" stop-color="#FFE083" stop-opacity="0"/>
</linearGradient>
</defs>
</svg>
