<svg width="164" height="40" fill="none" viewBox="0 0 164 40">
  <path fill="#E8C349" d="M18.552 9.991 7.096 13.778l11.456-2.75V9.99Zm2.911.872L7.568 14.045l13.895-2.092v-1.09Zm2.619 1.453L7.994 14.24l16.088-.748v-1.176Zm-8.3-2.839v.935l-8.92 3.035 8.92-3.97Z"/>
  <path fill="#E8C349" d="M14.91 14.75v8.301H7.869c-.781 0-1.694-.176-1.694-1.3v-7.778c.436.931 1.315.777 1.694.777h7.043Zm-6.407 1.747v5.244h3.64v-.73H9.52v-1.457h2.475v-.875H9.521v-1.31h2.475v-.876H8.503v.004Zm16.023 6.554h-8.008V14.75h8.008v8.301Zm-2.186-2.197c-.436.199-.887.3-1.405.3-1.243 0-1.844-.65-1.844-1.945 0-1.199.59-1.796 1.829-1.796.518 0 .98.098 1.416.3v-.905c-.436-.18-.905-.262-1.476-.262-1.863 0-2.772.886-2.772 2.663 0 1.878.897 2.817 2.757 2.817.567 0 1.052-.09 1.487-.263v-.905l.008-.004Zm-7.43 4.091V33.1H7.869c-.781 0-1.694-.162-1.694-1.289v-7.775c.436.932 1.315.91 1.694.91h7.043Zm-2.475 5.747c-.435.2-.901.3-1.42.3-1.243 0-1.851-.65-1.851-1.949 0-1.194.6-1.795 1.844-1.795.518 0 .992.101 1.427.304v-.905c-.435-.177-.924-.267-1.495-.267-1.859 0-2.775.887-2.775 2.663 0 1.878.909 2.817 2.768 2.817.57 0 1.067-.086 1.502-.263v-.909.004ZM24.526 33.1h-8.008v-8.155h8.008V33.1Zm-3.786-6.697h-1.018v5.243h1.018v-5.243Zm133.257 6.66H28.209a.293.293 0 0 1 0-.586h125.788a.293.293 0 0 1 0 .586Zm0-17.768H28.209a.293.293 0 0 1 0-.586h125.788a.293.293 0 0 1 0 .586ZM38.03 25.047c0 2.261-1.291 3.452-3.526 3.452s-3.678-1.067-3.678-3.452v-5.725h1.195v5.725c0 1.581.905 2.449 2.486 2.449 1.582 0 2.337-.868 2.337-2.45v-5.724h1.194v5.725h-.007Zm1.898-5.725h1.27l4.72 7.269h.027v-7.269h1.13v8.966H45.77l-4.684-7.193h-.027v7.193h-1.13v-8.966Zm9.129 0h1.194v8.966h-1.194v-8.966Zm6.725 8.966h-1.356l-3.162-8.966h1.292l2.562 7.772h.026l2.588-7.772h1.243l-3.189 8.966h-.004Zm4.142-8.966h6.19v1.003h-4.996v2.851h4.658v1.003h-4.658v3.103h5.034v1.003h-6.228v-8.967.004Zm7.676 0h4.218c1.683 0 2.723.917 2.723 2.348 0 1.078-.477 1.972-1.555 2.272v.027c1.04.199 1.255.965 1.345 1.844.075.879.026 1.86.526 2.472h-1.33c-.338-.365-.15-1.33-.327-2.21-.124-.878-.338-1.618-1.495-1.618h-2.91v3.828H67.6v-8.967.004Zm3.677 4.132c1.115 0 2.073-.29 2.073-1.596 0-.88-.477-1.533-1.596-1.533H68.79v3.125h2.487v.004Zm10.103-1.507c-.14-1.28-.992-1.833-2.224-1.833-1.003 0-2.01.365-2.01 1.533 0 1.104 1.431 1.27 2.874 1.596 1.43.327 2.862.83 2.862 2.588 0 1.909-1.87 2.675-3.505 2.675-2.01 0-3.703-.98-3.703-3.163h1.13c0 1.506 1.255 2.16 2.611 2.16 1.078 0 2.272-.338 2.272-1.63 0-1.293-1.43-1.443-2.862-1.758-1.43-.316-2.873-.729-2.873-2.374 0-1.822 1.619-2.626 3.253-2.626 1.833 0 3.226.868 3.301 2.836h-1.13l.003-.004Zm3.005-2.625h1.194v8.966h-1.194v-8.966Zm3.203 0h3.076c2.761 0 4.305 1.382 4.305 4.267 0 2.885-1.319 4.696-4.305 4.696h-3.076v-8.967.004Zm1.194 7.96h1.984c.815 0 3.012-.226 3.012-3.527 0-2.134-.792-3.426-2.99-3.426h-2.01v6.956l.004-.003Zm10.076-7.96h1.319l3.504 8.966h-1.318l-.981-2.7h-3.79l-1.002 2.7h-1.233l3.505-8.966h-.004Zm-.89 5.259h3.039l-1.495-4.18h-.026l-1.518 4.18Zm6.589-5.259h3.076c2.761 0 4.305 1.382 4.305 4.267 0 2.885-1.319 4.696-4.305 4.696h-3.076v-8.967.004Zm1.194 7.96h1.983c.816 0 3.013-.226 3.013-3.527 0-2.134-.793-3.426-2.99-3.426h-2.01v6.956l.004-.003Zm14.45-7.96h7.145v1.87h-4.808v1.571h4.394v1.807h-4.394v1.709h4.935v2.01h-7.268v-8.967h-.004Zm14.552 3.204c-.124-.905-.83-1.382-1.807-1.382-1.506 0-2.084 1.33-2.084 2.663 0 1.333.578 2.663 2.084 2.663 1.094 0 1.721-.627 1.807-1.656h2.337c-.124 2.31-1.822 3.666-4.095 3.666-2.712 0-4.47-2.07-4.47-4.67 0-2.599 1.758-4.668 4.47-4.668 1.935 0 4.031 1.232 4.095 3.388h-2.337v-.004Zm9.531 0c-.124-.905-.83-1.382-1.806-1.382-1.507 0-2.085 1.33-2.085 2.663 0 1.333.578 2.663 2.085 2.663 1.093 0 1.72-.627 1.806-1.656h2.337c-.124 2.31-1.822 3.666-4.094 3.666-2.712 0-4.47-2.07-4.47-4.67 0-2.599 1.758-4.668 4.47-4.668 1.934 0 4.03 1.232 4.094 3.388h-2.337v-.004Zm3.577-3.204h2.337v8.966h-2.337v-8.966Zm-31.116 3.748h-1.829v1.83h1.829v-1.83Z"/>
</svg>
